<svg width="400" height="400" viewBox="0 0 400 400" fill="none" xmlns="http://www.w3.org/2000/svg">
<path fill-rule="evenodd" clip-rule="evenodd" d="M245.332 58.3756C243.694 59.2923 242.947 62.3245 244.416 62.0933C247.221 61.65 247.922 62.3085 246.108 63.6805C244.91 64.5871 244.668 65.1625 245.475 65.1815C246.196 65.1996 246.523 65.6369 246.204 66.1553C245.857 66.7157 247.149 66.8658 249.397 66.5255C252.428 66.0662 252.937 66.2053 251.978 67.228C250.221 69.1034 244.905 69.2815 244.217 67.4882C243.812 66.4355 242.875 66.1953 240.999 66.6666C239.385 67.0719 238.069 66.8758 237.631 66.1653C236.658 64.5921 232.657 65.9401 232.657 67.8415C232.657 68.6631 233.061 69.0844 233.555 68.7792C234.81 68.0046 240.663 69.2795 240.663 70.3283C240.663 70.8016 238.858 72.3838 236.652 73.8438C233.45 75.9634 232.873 76.777 233.791 77.8838C234.428 78.6503 235.771 79.0056 236.801 78.6783C239.092 77.9518 239.233 79.5049 237.042 81.3233C235.644 82.4831 235.121 82.29 233.224 79.9092L231.024 77.1512L228.338 79.641C226.861 81.01 225.652 83.0255 225.652 84.1203C225.652 86.3909 223.469 88.1882 222.876 86.406C222.66 85.7585 221.845 85.2281 221.066 85.2281C220.285 85.2281 219.648 84.5526 219.648 83.727C219.648 81.2832 217.921 81.9988 215.195 85.5723C212.247 89.4382 212.068 90.2317 214.144 90.2317C214.969 90.2317 215.645 89.6693 215.645 88.9808C215.645 88.2933 216.771 87.7299 218.147 87.7299C219.523 87.7299 220.648 88.2933 220.648 88.9808C220.648 89.6693 220.285 90.2317 219.84 90.2317C219.396 90.2317 218.238 92.033 217.266 94.2346C216.234 96.5723 214.802 98.2515 213.821 98.2706C212.469 98.2976 212.601 98.6859 214.495 100.265C216.449 101.893 216.585 102.327 215.294 102.822C214.439 103.15 213.267 103.127 212.691 102.771C212.114 102.414 211.642 102.6 211.642 103.182C211.642 103.765 210.178 104.274 208.39 104.312C206.601 104.351 204.237 104.769 203.136 105.243C201.395 105.99 201.514 106.112 204.041 106.173C206.884 106.241 206.908 106.287 205.137 108.245C203.482 110.074 203.471 110.246 205.014 110.246C205.943 110.246 207.11 109.233 207.608 107.995C208.434 105.939 208.516 105.918 208.545 107.744C208.599 111.164 206.07 113.574 203.187 112.85C201.352 112.39 200.634 112.608 200.634 113.623C200.634 114.4 201.309 115.295 202.135 115.612C204.715 116.602 203.776 118.252 200.634 118.252C198.983 118.252 197.632 118.732 197.632 119.32C197.632 119.919 198.478 120.119 199.56 119.776C201.305 119.223 201.376 119.405 200.311 121.703C199.001 124.525 197.632 125.063 197.632 122.755C197.632 121.922 196.742 121.254 195.63 121.254C193.104 121.254 193.058 122.742 195.531 124.475C196.863 125.407 197.357 126.793 197.176 129.092C196.845 133.302 195.253 135.026 193.241 133.356C192.039 132.358 191.554 132.529 190.616 134.285C189.982 135.469 189.787 136.735 190.182 137.102C190.578 137.467 191.102 137.204 191.347 136.515C191.593 135.828 192.286 135.264 192.886 135.264C193.487 135.264 192.936 136.373 191.663 137.727C189.881 139.626 188.937 139.97 187.552 139.228C184.668 137.685 183.457 138.104 183.826 140.518C184.015 141.757 184.637 142.686 185.21 142.582C186.53 142.344 186.051 149.247 184.651 150.647C183.946 151.352 183.251 151.306 182.445 150.499C181.542 149.597 181.696 148.848 183.105 147.29C184.116 146.173 184.646 144.961 184.283 144.598C183.919 144.235 183.622 144.515 183.622 145.222C183.622 146.029 182.85 146.304 181.541 145.962C180.028 145.566 179.609 145.804 180.005 146.836C180.355 147.749 179.672 148.474 178.083 148.872C175.187 149.599 174.745 152.277 177.519 152.277C178.674 152.277 179.836 153.36 180.473 155.029C181.051 156.542 182.315 159.001 183.28 160.493C185.317 163.636 184.405 165.256 181.588 163.497C179.034 161.903 178.944 161.928 178.294 164.416C177.908 165.892 177.231 166.353 176.094 165.917C175.19 165.569 173.812 165.286 173.032 165.286C172.251 165.286 171.583 164.499 171.545 163.535C171.491 162.141 171.256 162.243 170.392 164.035C169.795 165.274 168.361 166.333 167.207 166.388C162.455 166.618 157.943 166.135 155.35 165.12C153.371 164.345 152.226 164.351 151.273 165.141C150.304 165.945 149.595 165.911 148.626 165.012C147.798 164.244 147.54 164.212 147.941 164.926C148.344 165.647 147.232 166.32 144.917 166.754C142.115 167.28 141.049 167.071 140.373 165.864C139.249 163.856 135.587 163.797 135.587 165.787C135.587 167.912 132.945 167.648 130.583 165.286C128.1 162.803 122.775 162.605 121.871 164.963C121.288 166.481 121.164 166.464 120.577 164.79C120.018 163.198 118.675 162.908 110.995 162.729C104.598 162.58 101.616 162.911 100.49 163.896C99.5905 164.684 96.8095 165.25 93.9855 165.221C83.7931 165.115 74.3362 166.002 73.6407 167.128C73.2444 167.768 71.0538 168.472 68.7722 168.691C66.4895 168.911 63.2522 170.067 61.5769 171.26C58.5798 173.393 57.6001 175.293 59.4974 175.293C60.0288 175.293 60.7624 177.545 61.1266 180.297C61.4919 183.049 62.1814 185.301 62.6597 185.301C63.9747 185.301 73.5366 195.507 73.0142 196.353C72.7631 196.759 73.6797 197.826 75.0517 198.724C77.9198 200.604 78.3091 202.313 75.8693 202.313C74.4823 202.313 74.5984 202.744 76.5438 204.815C79.524 207.987 83.63 208.235 83.2867 205.222C83.0896 203.487 83.678 203.068 86.7152 202.776C89.3261 202.525 90.552 202.866 90.9723 203.96C91.908 206.401 90.7051 207.325 87.9511 206.278C84.4265 204.938 84.2194 205.05 86.2619 207.193C88.6576 209.704 92.3353 210.746 93.9825 209.379C94.8831 208.632 96.13 208.585 97.8353 209.233C99.2213 209.759 100.627 209.92 100.959 209.587C101.291 209.256 101.562 209.524 101.562 210.184C101.562 210.843 100.886 211.642 100.061 211.958C98.4187 212.589 97.9994 214.322 99.4895 214.322C99.9998 214.322 101.122 213.618 101.981 212.759C103.508 211.232 105.265 211.718 110.539 215.126C110.799 215.295 110.371 215.827 109.59 216.309C108.712 216.853 110.06 217.005 113.121 216.708C117.223 216.31 119.064 216.737 123.84 219.19C129.419 222.056 129.639 222.089 130.645 220.21C131.793 218.066 133.814 218.564 132.964 220.781C132.401 222.246 135.868 224.715 136.957 223.627C137.304 223.279 137.588 223.47 137.588 224.051C137.588 224.631 139.271 225.423 141.328 225.809C144.844 226.469 144.952 226.595 143.132 227.927C142.067 228.705 140.382 229.084 139.387 228.768C138.216 228.396 137.34 228.814 136.903 229.954C136.513 230.969 136.728 231.882 137.408 232.108C138.968 232.628 138.921 235.02 137.338 235.736C136.65 236.048 136.985 236.193 138.08 236.058C139.394 235.896 140.293 234.793 140.714 232.823C141.067 231.179 141.408 230.396 141.473 231.084C141.538 231.772 142.027 232.335 142.561 232.335C143.093 232.335 143.25 231.607 142.909 230.719C142.404 229.4 142.733 229.239 144.692 229.842C146.013 230.249 147.287 230.756 147.522 230.969C148.12 231.509 144.34 234.266 142.949 234.304C142.32 234.322 141.555 234.989 141.249 235.786C140.858 236.805 141.173 237.052 142.307 236.617C143.381 236.205 143.68 236.389 143.197 237.168C142.799 237.813 141.712 238.376 140.781 238.42C139.754 238.47 140.267 239.027 142.091 239.84C144.606 240.962 144.809 241.291 143.342 241.868C142.379 242.246 140.978 242.321 140.227 242.033C139.198 241.639 138.918 242.472 139.084 245.428C139.331 249.812 139.012 250.033 135.745 247.744C132.808 245.687 131.926 246.568 133.984 249.505C136.174 252.633 135.996 254.229 133.335 255.343C129.777 256.831 127.581 258.926 127.581 260.833C127.581 262.194 126.983 262.476 124.929 262.083C122.949 261.704 121.652 262.245 119.805 264.218C118.445 265.671 116.953 266.753 116.489 266.622C116.024 266.491 115.901 267.054 116.216 267.873C116.53 268.691 116.289 269.362 115.679 269.362C115.07 269.362 114.571 270.037 114.571 270.863C114.571 272.417 113.655 272.714 109.818 272.403C108.58 272.303 107.566 272.751 107.566 273.4C107.566 274.049 106.879 274.315 106.037 273.993C105.171 273.66 103.776 274.263 102.813 275.387C101.88 276.476 100.305 277.368 99.3133 277.368C98.3086 277.368 97.0867 278.479 96.5553 279.876C96.031 281.256 95.2544 282.329 94.8291 282.26C94.4038 282.191 93.4911 282.187 92.7996 282.253C90.9533 282.427 82.5482 291.242 82.5482 293.005C82.5482 294.109 81.9427 294.329 80.2965 293.823C79.0586 293.442 78.3901 293.494 78.8125 293.939C79.2338 294.383 78.172 295.339 76.4517 296.062C73.8709 297.147 73.4265 297.789 73.9149 299.733C74.6384 302.618 73.6957 303.76 71.8524 302.23C68.593 299.525 61.702 306.478 64.409 309.739C65.3437 310.866 65.1235 311.293 63.3052 311.876C62.0553 312.276 60.3571 312.547 59.5315 312.478C58.4777 312.389 58.0304 313.327 58.0304 315.624C58.0304 317.867 58.5027 318.898 59.5315 318.898C60.4061 318.898 60.9095 318.166 60.7383 317.146C60.3641 314.915 62.1113 314.852 62.9609 317.066C63.3142 317.988 63.026 319.104 62.3175 319.553C61.611 320.002 61.4829 320.382 62.0333 320.399C62.5837 320.416 62.4136 320.822 61.655 321.303C60.8964 321.784 60.5862 322.678 60.9655 323.293C61.8211 324.677 66.6236 323.674 68.1367 321.796C68.7411 321.044 69.5087 320.702 69.8409 321.035C70.9497 322.143 75.2949 320.446 75.9244 318.659C76.2656 317.689 76.797 316.366 77.1042 315.717C77.4485 314.991 76.5878 314.415 74.8606 314.216C73.1523 314.02 71.9285 313.211 71.7253 312.143C71.323 310.021 73.1033 309.914 76.794 311.84C79.3148 313.155 80.8569 312.32 78.5453 310.892C77.2723 310.105 77.2413 308.39 78.5002 308.39C79.0256 308.39 79.7491 309.954 80.1074 311.867C80.7459 315.269 80.8569 315.339 85.4062 315.197C88.9358 315.087 90.582 314.469 92.2512 312.629C93.4601 311.297 94.8921 310.481 95.4345 310.816C95.9769 311.151 96.7024 310.967 97.0487 310.408C97.3939 309.848 98.9251 309.391 100.451 309.391C104.376 309.391 106.474 313.329 104.507 317.003C103.218 319.411 103.3 319.767 105.575 321.609C106.93 322.706 108.089 324.121 108.151 324.754C108.543 328.793 108.644 328.863 110.528 326.41C112.234 324.191 112.52 324.107 113.115 325.66C114.043 328.076 115.745 327.79 117.881 324.856C119.466 322.679 119.509 322.191 118.231 320.913C117.056 319.738 116.975 318.619 117.816 315.173C118.39 312.818 119.472 310.181 120.219 309.312C120.965 308.443 121.577 306.743 121.577 305.535C121.577 304.135 122.45 303.005 123.981 302.423C125.303 301.919 126.655 301.073 126.984 300.54C127.314 300.007 128.429 299.793 129.463 300.063C130.624 300.367 132.252 299.613 133.715 298.093C135.02 296.739 137.365 295.331 138.927 294.963C142.582 294.107 147.378 289.748 146.063 288.48C145.53 287.965 143.968 287.343 142.592 287.096C140.474 286.715 140.584 286.625 143.31 286.51C145.874 286.402 146.828 286.936 147.991 289.126L149.451 291.878L149.406 287.611C149.381 285.264 148.963 283.099 148.478 282.799C147.993 282.498 147.595 281.826 147.595 281.303C147.595 280.758 148.342 280.819 149.347 281.447C150.415 282.113 151.098 283.774 151.098 285.708C151.098 287.45 151.548 288.986 152.099 289.12C152.649 289.255 153.099 287.904 153.099 286.118C153.099 283.899 153.575 282.872 154.6 282.872C155.426 282.872 156.102 283.541 156.102 284.359C156.102 285.177 157.002 286.009 158.103 286.207C159.722 286.499 159.865 286.32 158.854 285.27C157.282 283.64 157.247 282.371 158.775 282.371C159.419 282.371 160.811 281.589 161.868 280.633C163.691 278.983 163.852 278.983 165.059 280.633C165.758 281.589 166.955 282.357 167.72 282.339C168.669 282.318 168.491 281.839 167.164 280.834C165.03 279.221 165.705 278.017 169.361 276.912C171.107 276.385 171.631 276.64 171.692 278.051C171.738 279.102 171.984 279.341 172.275 278.618C172.554 277.931 173.418 277.368 174.198 277.368C174.978 277.368 175.616 276.917 175.616 276.367C175.616 275.816 176.742 275.366 178.118 275.366C180.146 275.366 180.619 274.873 180.619 272.757C180.619 270.79 181.009 270.297 182.203 270.756C183.073 271.09 183.974 271.363 184.204 271.363C184.434 271.363 184.622 272.039 184.622 272.864C184.622 273.69 185.346 274.365 186.23 274.365C187.249 274.365 187.627 273.815 187.262 272.864C186.878 271.863 187.303 271.363 188.54 271.363C189.559 271.363 190.629 270.463 190.917 269.362C191.553 266.926 196.631 266.482 196.631 268.861C196.631 270.848 197.612 270.726 200.634 268.361C202.01 267.284 203.643 266.394 204.265 266.382C206.185 266.344 207.724 263.843 206.55 262.669C205.829 261.947 206.012 261.125 207.146 259.991C209.296 257.84 210.641 257.916 210.641 260.188C210.641 262.872 211.545 263.358 214.244 262.13C216.908 260.916 222.243 262.588 221.182 264.304C220.863 264.82 222.302 266.024 224.378 266.98C230.879 269.97 234.031 272.508 232.499 273.518C231.412 274.234 231.49 274.66 232.907 275.745C233.871 276.484 234.659 277.601 234.659 278.228C234.659 278.856 235.529 279.369 236.593 279.369C238.597 279.369 240.261 282.595 239.168 284.364C238.399 285.607 239.674 285.652 241.573 284.45C242.348 283.959 243.611 283.798 244.38 284.092C245.463 284.509 245.266 285.17 243.495 287.055C242.076 288.567 241.607 289.745 242.251 290.18C242.82 290.563 243.244 293.129 243.192 295.881C243.14 298.633 243.664 301.864 244.356 303.061C245.344 304.77 245.351 305.362 244.39 305.813C243.431 306.264 243.436 306.516 244.414 306.972C245.173 307.326 245.428 308.49 245.065 309.937C244.611 311.748 245.151 312.908 247.319 314.781L250.17 317.243L247.418 320.127C244.015 323.692 243.979 324.402 247.199 324.402C249.924 324.402 251.723 321.668 249.787 320.472C249.02 319.998 249.534 319.325 251.269 318.534C253.713 317.421 253.883 317.487 253.392 319.362C252.787 321.677 253.652 321.986 255.596 320.149C256.687 319.118 256.725 319.277 255.815 321.049C254.926 322.78 255.02 323.32 256.296 323.809C257.198 324.156 257.635 325.063 257.31 325.911C256.758 327.351 257.894 327.777 261.678 327.552C262.686 327.492 262.768 327.644 261.928 328.016C259.932 328.902 260.4 331.442 262.429 330.727C263.751 330.263 263.91 330.405 263.078 331.311C261.716 332.792 262.418 336.95 264.291 338.504C265.056 339.138 265.681 340.278 265.681 341.036C265.681 341.977 266.951 342.415 269.684 342.415C272.871 342.415 273.687 342.048 273.687 340.613C273.687 339.623 274.161 338.338 274.742 337.757C276.094 336.405 276.932 330.138 275.656 330.926C275.136 331.248 274.909 330.924 275.151 330.208C275.393 329.491 275.83 327.261 276.12 325.251C276.517 322.495 276.256 321.448 275.054 320.986C273.987 320.577 273.765 319.967 274.382 319.136C275.495 317.64 275.294 313.424 274.068 312.533C273.584 312.181 273.166 309.641 273.141 306.889C273.082 300.406 271.948 295.328 270.104 293.29C268.868 291.925 268.851 291.484 269.993 290.536C270.974 289.722 271.258 287.381 271.014 282.137C270.829 278.137 270.636 267.322 270.586 258.104C270.499 241.928 270.425 241.341 268.454 241.341C266.523 241.341 266.541 241.241 268.798 239.485C270.111 238.464 272.867 237.081 274.924 236.41C276.98 235.739 278.922 234.773 279.238 234.26C279.59 233.69 280.504 233.7 281.6 234.286C282.808 234.933 283.77 234.861 284.567 234.064C285.472 233.159 286.196 233.166 287.682 234.094C289.214 235.052 289.783 235.034 290.409 234.009C291.355 232.46 295.786 229.333 297.033 229.333C297.52 229.333 297.644 230.12 297.309 231.084C296.891 232.287 297.327 232.095 298.703 230.473C301.025 227.735 301.383 224.855 299.304 225.654C297.34 226.408 296.504 225.276 297.835 223.671C299.28 221.931 300.707 221.952 300.707 223.712C300.707 225.697 304.708 226.475 306.371 224.812C307.14 224.043 308.386 223.651 309.141 223.94C309.894 224.229 310.838 223.937 311.238 223.289C311.789 222.399 312.15 222.414 312.728 223.349C313.859 225.179 315.717 223.574 315.717 220.767C315.717 218.146 316.37 217.818 318.686 219.283C319.627 219.879 320.642 219.807 321.515 219.082C322.544 218.228 323.093 218.303 323.771 219.389C324.507 220.568 324.956 220.417 326.272 218.548C327.155 217.295 328.406 216.348 329.052 216.443C331.806 216.849 338.734 214.963 338.734 213.808C338.734 212.064 343.47 209.075 344.245 210.33C345.221 211.909 346.581 211.485 347.792 209.223C348.792 207.353 348.689 207.199 346.826 207.79C344.305 208.59 344.127 206.928 346.345 203.314C347.188 201.938 347.665 201.529 347.402 202.404C346.788 204.452 348.655 207.404 349.401 205.565C349.68 204.878 350.772 204.315 351.827 204.315C354.139 204.315 354.167 204.031 352.232 200.289C350.826 197.57 350.844 197.408 352.482 197.992C355.56 199.09 356.973 200.554 355.71 201.335C355.003 201.772 355.382 202.246 356.717 202.595C358.322 203.015 359.08 202.572 359.743 200.829C360.23 199.549 361.654 197.547 362.909 196.378C366.034 193.465 366.532 186.789 363.734 185.292C362.644 184.707 361.751 183.569 361.751 182.764C361.751 181.957 361.027 181.298 360.143 181.298C358.57 181.298 358.581 181.124 360.453 176.544C360.736 175.851 360.248 175.293 359.356 175.293C358.471 175.293 357.748 174.618 357.748 173.792C357.748 172.913 356.836 172.291 355.546 172.291C353.834 172.291 353.612 172.558 354.546 173.492C355.206 174.153 355.747 175.369 355.747 176.194C355.747 177.362 355.479 177.428 354.546 176.494C353.885 175.834 352.642 175.293 351.785 175.293C350.926 175.293 349.715 174.48 349.094 173.485C347.7 171.253 338.743 170.399 338.719 172.495C338.708 173.433 338.409 173.376 337.642 172.291C336.849 171.169 336.453 171.104 336.075 172.033C335.758 172.815 334.95 172.98 333.9 172.477C332.124 171.628 323.22 171.711 318.219 172.622C316.568 172.923 312.775 173.448 309.79 173.788C306.806 174.129 303.552 174.842 302.558 175.374C301.146 176.13 300.875 176.019 301.317 174.868C301.787 173.642 300.489 173.405 293.574 173.45C289.005 173.48 284.155 173.927 282.796 174.444C281.144 175.072 279.388 174.996 277.505 174.216C275.301 173.303 274.349 173.328 273.144 174.329C271.975 175.298 271.319 175.328 270.443 174.451C269.805 173.813 268.548 173.292 267.65 173.292C265.408 173.292 265.576 170.13 267.85 169.535C268.858 169.271 269.742 168.095 269.813 166.92C270.163 161.124 269.344 154.612 268.084 153.196C267.31 152.326 266.964 151.327 267.314 150.978C267.665 150.628 268.072 149.236 268.22 147.885C268.368 146.534 268.809 143.975 269.2 142.197C269.797 139.477 269.654 139.064 268.295 139.586C266.63 140.225 266.108 139.174 267.432 137.849C267.846 137.437 268.239 136.686 268.308 136.182C268.377 135.677 268.516 135.151 268.618 135.014C269.416 133.938 269.541 125.257 268.76 125.257C268.204 125.257 268.021 123.846 268.338 122.005C268.646 120.216 269.067 113.582 269.273 107.262C269.479 100.943 269.896 95.1243 270.2 94.3327C270.504 93.5411 270.203 92.5544 269.532 92.1391C268.624 91.5777 268.599 91.0393 269.433 90.0336C270.918 88.2443 269.822 80.2145 267.997 79.5139C266.825 79.0646 266.853 78.6924 268.164 77.2433C269.908 75.3159 269.237 72.2187 267.075 72.2187C266.246 72.2187 265.681 71.1779 265.681 69.6498C265.681 67.4852 265.346 67.187 263.555 67.7554C262.124 68.2097 261.651 68.0676 262.113 67.3221C262.489 66.7127 262.32 66.2143 261.737 66.2143C261.155 66.2143 260.677 65.792 260.677 65.2756C260.677 63.6604 254.914 57.9413 253.911 58.5617C253.386 58.886 251.616 58.7669 249.978 58.2965C248.24 57.7982 246.305 57.8312 245.332 58.3756ZM259.677 60.5202C259.677 61.3327 260.385 62.2694 261.251 62.6017C262.348 63.022 262.727 62.7007 262.502 61.5399C262.091 59.4224 259.677 58.5497 259.677 60.5202ZM227.904 72.8811C227.216 73.1593 226.653 74.01 226.653 74.7725C226.653 75.6541 227.259 75.9263 228.318 75.5201C229.438 75.0897 229.746 75.2639 229.26 76.0514C228.42 77.4104 229.566 77.5655 231.48 76.3516C232.55 75.6732 232.488 75.1948 231.158 73.8648C230.253 72.9592 229.432 72.2547 229.334 72.2977C229.235 72.3407 228.592 72.6039 227.904 72.8811ZM243.303 76.7219C242.916 77.7337 243.351 78.223 244.638 78.223C245.69 78.223 246.846 78.7034 247.209 79.2908C248.003 80.5767 247.808 80.7799 244.916 81.6685C243.245 82.1829 242.664 81.9567 242.664 80.7919C242.664 79.9292 242.214 79.2237 241.664 79.2237C241.113 79.2237 240.663 78.3231 240.663 77.2223C240.663 76.0514 241.33 75.2208 242.271 75.2208C243.29 75.2208 243.668 75.7712 243.303 76.7219ZM249.398 75.8253C249.066 76.1575 248.202 76.1935 247.481 75.9043C246.682 75.5851 246.92 75.3479 248.085 75.2999C249.14 75.2569 249.731 75.493 249.398 75.8253ZM252.672 76.2216C252.672 76.772 252.221 77.2223 251.671 77.2223C251.121 77.2223 250.67 76.772 250.67 76.2216C250.67 75.6712 251.121 75.2208 251.671 75.2208C252.221 75.2208 252.672 75.6712 252.672 76.2216ZM260.406 77.8267C260.074 78.159 259.21 78.195 258.489 77.9058C257.69 77.5865 257.927 77.3494 259.093 77.3013C260.148 77.2583 260.739 77.4945 260.406 77.8267ZM220.92 80.2765C220.829 81.4894 221.26 82.1889 221.956 81.9567C223.423 81.4674 223.536 79.0186 222.114 78.5442C221.543 78.3541 221.006 79.1337 220.92 80.2765ZM253.245 79.7451C251.189 81.3012 250.04 81.0541 251.13 79.2908C251.492 78.7034 252.551 78.237 253.481 78.255C254.967 78.2831 254.938 78.4642 253.245 79.7451ZM257.311 83.721C259.291 84.7538 259.626 85.2181 258.394 85.2221C256.774 85.2271 256.741 85.4753 258.029 87.9351C259.645 91.0183 258.413 95.2354 255.897 95.2354C254.878 95.2354 254.585 95.9959 254.922 97.7612C255.189 99.1502 255.076 100.49 254.674 100.738C254.058 101.12 254.006 103.424 254.545 106.463C254.616 106.858 255.349 106.922 256.174 106.606C257 106.288 257.675 106.299 257.675 106.63C257.675 108.046 254.133 115.25 253.436 115.25C251.958 115.25 252.694 118.359 254.674 120.486C256.189 122.111 256.372 122.825 255.425 123.416C254.447 124.024 254.434 124.617 255.364 126.118C256.402 127.794 256.305 127.975 254.613 127.533C253.083 127.133 252.689 127.526 252.751 129.393C252.794 130.696 253.047 131.227 253.313 130.574C253.642 129.765 254.417 130.005 255.737 131.325C258.28 133.867 258.188 134.264 255.051 134.264C252.913 134.264 252.643 134.524 253.591 135.668C254.233 136.439 254.357 137.228 253.869 137.419C252.285 138.038 251.477 143.27 252.965 143.27C254.341 143.27 258.676 148.475 258.676 150.128C258.676 150.642 258.001 151.321 257.175 151.638C256.096 152.052 255.674 151.535 255.674 149.803C255.674 148.476 255.217 147.108 254.657 146.763C254.098 146.417 253.945 145.602 254.318 144.952C254.691 144.302 253.845 144.817 252.439 146.097C250.803 147.584 249.64 148.036 249.215 147.348C248.85 146.757 248.971 146.272 249.485 146.272C250 146.272 250.42 145.147 250.42 143.771C250.42 142.395 250.026 141.269 249.544 141.269C249.063 141.269 248.64 140.481 248.606 139.518C248.557 138.176 248.331 138.293 247.637 140.018C247.139 141.257 246.267 142.27 245.699 142.27C245.131 142.27 244.666 142.945 244.666 143.771C244.666 144.596 245.004 145.276 245.416 145.28C246.47 145.291 248.721 150.382 248.108 151.373C247.831 151.822 246.943 151.936 246.135 151.625C245.327 151.316 244.666 151.508 244.666 152.053C244.666 152.598 245.567 153.279 246.667 153.568C247.768 153.855 248.669 153.735 248.669 153.299C248.669 152.863 249.865 151.723 251.326 150.767C254.173 148.9 254.122 148.693 252.064 153.778C251.658 154.783 252.055 155.279 253.265 155.279C254.692 155.279 254.815 155.537 253.848 156.505C252.906 157.447 252.188 157.46 250.753 156.564C249.726 155.921 248.611 155.67 248.276 156.005C247.129 157.152 247.669 158.059 249.419 157.92C250.822 157.809 251.187 158.625 251.253 162.033C251.298 164.371 251.636 166.585 252.003 166.952C252.37 167.321 252.672 167.064 252.672 166.382C252.672 165.127 255.052 162.284 256.103 162.284C256.417 162.284 256.675 163.32 256.675 164.586C256.675 165.852 257.238 167.455 257.926 168.147C258.929 169.159 258.781 169.262 257.175 168.671C256.074 168.265 254.892 167.516 254.548 167.003C254.204 166.492 253.923 167.283 253.923 168.762C253.923 170.24 254.513 171.676 255.236 171.953C255.957 172.23 256.304 173.093 256.006 173.869C255.708 174.646 255.109 175.063 254.676 174.795C254.243 174.527 252.153 174.086 250.033 173.814C247.911 173.543 246.018 172.845 245.825 172.264C245.586 171.548 245.021 171.581 244.074 172.367C243.305 173.006 241.498 173.302 240.057 173.027C238.615 172.752 236.249 173.143 234.797 173.897C232.741 174.965 232.072 174.994 231.773 174.031C230.778 170.828 229.434 170.205 226.984 171.81C225.67 172.671 224.053 173.04 223.389 172.631C220.539 170.869 206.948 169.787 205.261 171.188C203.813 172.389 200.634 171.699 200.634 170.183C200.634 169.691 199.733 169.289 198.632 169.289C196.745 169.289 196.119 167.82 196.573 164.462C196.672 163.733 196.163 162.382 195.441 161.459C194.247 159.932 194.296 159.914 195.996 161.251C197.679 162.575 198.052 162.484 199.809 160.314C201.077 158.748 201.553 157.09 201.171 155.57C200.776 153.995 201.082 153.043 202.11 152.648C202.95 152.326 203.636 151.318 203.636 150.409C203.636 149.5 204.537 148.193 205.638 147.505C206.738 146.818 207.639 145.407 207.639 144.37C207.639 143.332 208.306 142.227 209.122 141.914C209.938 141.601 210.896 139.527 211.252 137.304C211.722 134.363 212.376 133.263 213.654 133.263C215.531 133.263 217.267 128.99 215.619 128.426C213.848 127.821 214.604 126.485 217.066 125.867C218.722 125.451 219.697 124.309 220.148 122.256C220.51 120.604 221.222 119.253 221.728 119.253C222.236 119.253 222.65 118.765 222.65 118.17C222.65 117.575 224.138 115.211 225.957 112.916C229.727 108.163 231.95 103.524 231.11 102.165C230.795 101.656 231.302 101.24 232.238 101.24C234.697 101.24 236.743 98.1775 235.269 96.7034C234.639 96.073 233.536 95.3615 232.817 95.1223C231.124 94.5579 235.145 89.231 237.265 89.231C238.067 89.231 238.989 88.5425 239.312 87.6999C239.643 86.8363 240.611 86.3949 241.532 86.6872C242.43 86.9724 244.966 86.0987 247.168 84.7467C251.863 81.8636 253.442 81.7035 257.311 83.721ZM263.179 87.2295C263.52 87.7799 263.32 88.2303 262.738 88.2303C262.156 88.2303 261.678 87.7799 261.678 87.2295C261.678 86.6791 261.876 86.2288 262.12 86.2288C262.363 86.2288 262.839 86.6791 263.179 87.2295ZM231.656 88.0752C231.656 88.5405 230.793 89.7023 229.738 90.657C228.208 92.042 227.398 92.1671 225.735 91.2775C222.877 89.7474 223.108 89.4121 226.903 89.5843C229.03 89.6803 230.068 89.298 229.905 88.4805C229.768 87.793 230.105 87.2295 230.656 87.2295C231.206 87.2295 231.656 87.6098 231.656 88.0752ZM252.055 89.4001C250.181 91.5107 250.186 91.5207 252.892 91.0223C254.389 90.7461 255.395 90.8752 255.126 91.3075C254.255 92.7185 256.141 93.0598 257.383 91.7148C258.327 90.6931 258.327 90.2027 257.383 89.4742C254.671 87.3827 253.857 87.3706 252.055 89.4001ZM239.662 89.231C239.662 89.7814 239.149 90.2317 238.521 90.2317C237.358 90.2317 234.748 93.1288 234.691 94.4848C234.636 95.7888 238.126 95.2984 240.44 93.6772C242.956 91.916 243.445 88.2303 241.163 88.2303C240.338 88.2303 239.662 88.6806 239.662 89.231ZM209.64 93.7343C209.64 94.5599 209.818 95.2354 210.034 95.2354C210.25 95.2354 210.686 94.5599 211.003 93.7343C211.32 92.9087 211.143 92.2332 210.61 92.2332C210.077 92.2332 209.64 92.9087 209.64 93.7343ZM221.898 95.7597C222.165 97.1488 221.991 98.5268 221.515 98.821C221.039 99.1152 220.648 98.6538 220.648 97.7962C220.648 96.9386 220.212 96.2361 219.679 96.2361C219.146 96.2361 218.969 95.5606 219.285 94.735C220.158 92.4623 221.358 92.9337 221.898 95.7597ZM206.194 97.1468C205.283 98.6198 206.719 101.24 208.438 101.24C209.734 101.24 209.668 100.951 208.08 99.6566C206.501 98.3696 206.455 98.1735 207.838 98.6048C209.027 98.9761 209.371 98.6999 208.982 97.6861C208.353 96.0449 207.033 95.7898 206.194 97.1468ZM248.689 103.766C249.385 104.604 250.161 105.085 250.413 104.833C251.107 104.139 249.697 102.24 248.488 102.24C247.823 102.24 247.899 102.815 248.689 103.766ZM252.672 110.246C252.672 110.797 253.149 111.247 253.731 111.247C254.314 111.247 254.513 110.797 254.173 110.246C253.833 109.696 253.356 109.246 253.113 109.246C252.87 109.246 252.672 109.696 252.672 110.246ZM248.482 111.93C249.203 112.22 250.067 112.184 250.399 111.851C250.731 111.519 250.141 111.283 249.086 111.326C247.92 111.374 247.683 111.611 248.482 111.93ZM247.668 116.692C247.668 117.55 247.218 118.252 246.667 118.252C246.117 118.252 245.667 118.928 245.667 119.753C245.667 120.706 246.625 121.254 248.291 121.254C250.475 121.254 250.712 121.01 249.706 119.797C249.041 118.996 248.768 117.901 249.099 117.364C249.431 116.828 249.244 116.107 248.685 115.76C248.125 115.415 247.668 115.834 247.668 116.692ZM208.036 119.42C207.753 119.878 207.098 120.254 206.579 120.254C206.061 120.254 205.638 119.878 205.638 119.42C205.638 118.961 206.293 118.585 207.095 118.585C207.896 118.585 208.319 118.961 208.036 119.42ZM215.645 119.694C215.645 119.937 215.194 120.414 214.644 120.754C214.094 121.094 213.643 120.895 213.643 120.313C213.643 119.73 214.094 119.253 214.644 119.253C215.194 119.253 215.645 119.451 215.645 119.694ZM190.908 125.174C190.769 127.025 194.42 129.836 195.477 128.692C195.836 128.303 195.568 127.784 194.88 127.539C194.192 127.293 193.629 126.502 193.629 125.782C193.629 123.791 191.056 123.217 190.908 125.174ZM248.551 127.426C248.485 128.159 248.513 129.356 248.611 130.085C248.71 130.813 248.229 132.086 247.543 132.913C246.542 134.12 246.559 134.579 247.631 135.241C249.681 136.508 251.183 134.406 251.067 130.433C250.968 127.084 248.81 124.505 248.551 127.426ZM196.631 157.722C196.631 158.777 194.711 159.222 194.139 158.297C193.794 157.738 194.213 157.28 195.071 157.28C195.928 157.28 196.631 157.479 196.631 157.722ZM187.624 161.521C187.624 163.216 187.457 163.261 186.123 161.927C185.298 161.101 184.622 160.244 184.622 160.02C184.622 159.797 185.298 159.615 186.123 159.615C186.949 159.615 187.624 160.473 187.624 161.521ZM247.747 161.867C247.795 163.033 248.032 163.27 248.352 162.472C248.641 161.75 248.605 160.886 248.272 160.554C247.94 160.222 247.704 160.812 247.747 161.867ZM70.5194 171.815C69.8229 172.654 68.9933 173.08 68.6741 172.762C68.3559 172.443 68.7582 171.764 69.5677 171.252C71.6863 169.912 71.9635 170.076 70.5194 171.815ZM106.566 173.233C106.566 173.751 106.115 174.453 105.565 174.793C105.014 175.133 104.564 174.709 104.564 173.851C104.564 172.994 105.014 172.291 105.565 172.291C106.115 172.291 106.566 172.715 106.566 173.233ZM116.573 174.186C116.573 174.677 115.897 175.339 115.072 175.656C114.157 176.006 113.571 175.657 113.571 174.762C113.571 173.953 114.246 173.292 115.072 173.292C115.897 173.292 116.573 173.694 116.573 174.186ZM54.1946 174.96C53.0127 176.141 53.4841 179.065 54.9451 179.627C56.3612 180.17 57.53 178.399 57.53 175.712C57.53 174.254 55.3834 173.77 54.1946 174.96ZM64.0347 176.627C64.0347 179.236 62.0723 179.072 61.699 176.433C61.4699 174.813 61.7841 174.21 62.6998 174.515C63.4343 174.76 64.0347 175.711 64.0347 176.627ZM127.956 175.091C128.694 176.284 127.315 177.776 125.329 177.934C123.288 178.097 123.084 177.189 124.779 175.494C126.173 174.1 127.259 173.963 127.956 175.091ZM320.721 177.854C320.721 178.648 321.397 179.296 322.222 179.296C323.048 179.296 323.723 178.621 323.723 177.795C323.723 176.322 325.827 175.729 326.976 176.878C327.678 177.581 324.128 181.298 322.754 181.298C322.221 181.298 322.032 182.085 322.335 183.049C322.806 184.544 322.654 184.516 321.304 182.858C320.433 181.789 319.72 180.363 319.72 179.689C319.72 179.014 319.19 178.286 318.543 178.069C317.895 177.854 317.701 177.134 318.111 176.469C319.028 174.986 320.721 175.885 320.721 177.854ZM88.5525 177.295C88.5525 177.845 88.1292 178.296 87.6108 178.296C87.0925 178.296 86.391 177.845 86.0507 177.295C85.7105 176.745 86.1348 176.294 86.9924 176.294C87.85 176.294 88.5525 176.745 88.5525 177.295ZM50.5249 178.296C50.5249 178.846 50.9752 179.296 51.5256 179.296C52.076 179.296 52.5264 178.846 52.5264 178.296C52.5264 177.745 52.076 177.295 51.5256 177.295C50.9752 177.295 50.5249 177.745 50.5249 178.296ZM149.597 178.296C149.597 178.846 148.921 179.296 148.096 179.296C147.27 179.296 146.595 178.846 146.595 178.296C146.595 177.745 147.27 177.295 148.096 177.295C148.921 177.295 149.597 177.745 149.597 178.296ZM343.738 178.296C343.738 178.846 343.287 179.296 342.737 179.296C342.187 179.296 341.736 178.846 341.736 178.296C341.736 177.745 342.187 177.295 342.737 177.295C343.287 177.295 343.738 177.745 343.738 178.296ZM223.651 182.406C223.651 182.897 223.152 183.299 222.543 183.299C221.933 183.299 221.664 183.897 221.944 184.626C222.279 185.498 221.715 185.898 220.3 185.794C219.099 185.706 217.992 184.833 217.795 183.822C217.539 182.504 217.882 182.175 219.046 182.622C220.057 183.01 220.648 182.706 220.648 181.798C220.648 180.931 221.244 180.588 222.15 180.936C222.975 181.253 223.651 181.914 223.651 182.406ZM229.708 182.549C229.679 182.961 229.499 183.186 229.309 183.049C229.118 182.912 228.206 183.426 227.283 184.193C226.36 184.958 225.315 185.297 224.961 184.943C224.607 184.589 224.843 184.3 225.485 184.3C226.127 184.3 226.6 183.962 226.535 183.549C226.256 181.784 226.75 181.172 228.207 181.475C229.062 181.653 229.737 182.136 229.708 182.549ZM303.072 182.793C302.756 183.616 302.096 184.04 301.602 183.735C300.189 182.862 300.557 181.298 302.177 181.298C303.069 181.298 303.421 181.885 303.072 182.793ZM309.713 182.299C309.713 182.849 309.263 183.299 308.712 183.299C308.162 183.299 307.712 182.849 307.712 182.299C307.712 181.748 308.162 181.298 308.712 181.298C309.263 181.298 309.713 181.748 309.713 182.299ZM167.61 182.74C167.61 183.796 165.69 184.24 165.118 183.315C164.773 182.756 165.192 182.299 166.05 182.299C166.907 182.299 167.61 182.497 167.61 182.74ZM352.494 184.883C351.54 185.837 349.628 184.293 350.34 183.143C350.762 182.46 351.321 182.477 352.04 183.195C352.629 183.785 352.833 184.544 352.494 184.883ZM360.25 183.299C360.59 183.85 360.391 184.3 359.808 184.3C359.226 184.3 358.749 183.85 358.749 183.299C358.749 182.749 358.947 182.299 359.19 182.299C359.433 182.299 359.91 182.749 360.25 183.299ZM233.114 184.231C233.432 184.743 233.233 185.445 232.673 185.791C232.114 186.136 231.656 185.717 231.656 184.859C231.656 183.101 232.257 182.843 233.114 184.231ZM355.93 185.518C355.212 186.235 354.746 186.294 354.746 185.668C354.746 184.332 355.93 183.148 356.597 183.817C356.881 184.101 356.581 184.866 355.93 185.518ZM130.583 186.992C130.583 187.805 130.021 188.268 129.332 188.021C128.645 187.775 127.294 187.978 126.33 188.473C124.002 189.67 123.968 187.468 126.288 185.772C128.323 184.284 130.583 184.925 130.583 186.992ZM163.607 185.301C163.607 185.851 163.409 186.301 163.166 186.301C162.923 186.301 162.446 185.851 162.106 185.301C161.766 184.75 161.965 184.3 162.547 184.3C163.13 184.3 163.607 184.75 163.607 185.301ZM290.699 187.874C290.699 191.051 290.532 191.281 289.198 189.947C287.383 188.132 287.313 187.086 288.898 185.501C290.611 183.788 290.699 183.904 290.699 187.874ZM346.402 187.552C346.125 188.241 345.897 187.677 345.897 186.301C345.897 184.925 346.125 184.363 346.402 185.051C346.68 185.739 346.68 186.865 346.402 187.552ZM77.5445 186.219C77.5445 186.725 77.8307 187.964 78.18 188.971C78.7374 190.583 78.6203 190.563 77.2103 188.803C75.3519 186.484 75.1268 185.301 76.5438 185.301C77.0942 185.301 77.5445 185.714 77.5445 186.219ZM138.458 186.644C139.07 187.382 139.279 188.279 138.922 188.636C138.172 189.388 135.587 187.483 135.587 186.179C135.587 184.861 137.195 185.122 138.458 186.644ZM302.084 186.101C302.356 186.542 301.728 187.433 300.689 188.082C299.338 188.925 298.605 188.951 298.123 188.171C297.751 187.569 298.069 186.686 298.827 186.205C300.557 185.109 301.453 185.081 302.084 186.101ZM314.216 187.803C314.216 189.179 313.931 190.304 313.583 190.304C312.717 190.304 311.796 186.554 312.49 185.859C313.634 184.716 314.216 185.372 314.216 187.803ZM319.705 186.051C319.67 187.745 317.868 189.514 316.83 188.872C314.979 187.728 315.582 185.301 317.719 185.301C318.82 185.301 319.713 185.639 319.705 186.051ZM156.045 188.553C155.124 191.548 155.213 191.497 152.217 190.745C149.005 189.939 148.775 187.599 151.848 187.008C156.489 186.114 156.763 186.214 156.045 188.553ZM287.09 188.885C288.177 191.719 287.775 192.418 285.696 191.305C283.413 190.083 282.992 187.302 285.088 187.302C285.855 187.302 286.755 188.015 287.09 188.885ZM144.406 194.435C147.768 195.06 150.306 194.919 151.38 194.048C152.407 193.215 152.456 193.554 151.623 195.743C150.456 198.813 150.984 200.312 153.231 200.312C155.628 200.312 154.371 203.772 151.843 204.133C150.071 204.387 149.729 204.074 150.196 202.632C150.687 201.12 150.606 201.066 149.72 202.313C148.345 204.248 145.628 202.716 143.788 198.969C142.364 196.066 140.59 195.423 140.59 197.81C140.59 198.635 141.116 199.311 141.758 199.311C142.4 199.311 142.692 199.544 142.407 199.829C142.122 200.114 140.583 199.661 138.988 198.822C137.282 197.924 134.954 197.537 133.335 197.882C129.035 198.8 129.788 195.552 134.336 193.57C136.4 192.67 138.427 192.018 138.839 192.12C139.251 192.222 139.59 191.603 139.59 190.746C139.59 189.888 140.009 189.445 140.521 189.761C141.034 190.078 141.821 189.767 142.273 189.069C142.809 188.241 143.2 188.927 143.405 191.055C143.578 192.843 144.029 194.364 144.406 194.435ZM293.701 191.865C293.701 193.208 293.269 194.307 292.741 194.307C292.212 194.307 291.875 193 291.99 191.402C292.24 187.951 293.701 188.345 293.701 191.865ZM200.634 192.865C200.634 193.659 200.232 194.307 199.74 194.307C198.635 194.307 197.56 191.71 198.34 190.93C199.217 190.054 200.634 191.25 200.634 192.865ZM342.737 191.305C342.737 191.855 342.062 192.306 341.236 192.306C340.41 192.306 339.735 191.855 339.735 191.305C339.735 190.755 340.41 190.304 341.236 190.304C342.062 190.304 342.737 190.755 342.737 191.305ZM128.924 193.632C129.286 193.27 129.582 193.935 129.582 195.11C129.582 196.73 129.159 197.086 127.831 196.584C124.987 195.507 123.349 193.557 124.838 193.021C125.521 192.775 126.571 192.96 127.173 193.433C127.774 193.904 128.562 193.994 128.924 193.632ZM157.129 193.263C156.804 193.789 157.617 194.926 158.936 195.79C160.799 197.011 161.332 198.246 161.332 201.338C161.332 203.526 160.944 205.315 160.469 205.315C159.993 205.315 159.604 205.991 159.604 206.816C159.604 207.642 159.202 208.317 158.71 208.317C157.359 208.317 156.546 205.467 157.695 204.758C158.349 204.354 158.29 203.642 157.529 202.724C156.884 201.948 156.692 201.312 157.102 201.312C157.513 201.312 157.291 200.643 156.613 199.824C155.933 199.006 155.633 197.669 155.945 196.854C156.259 196.039 156.077 195.102 155.541 194.771C154.408 194.071 155.253 192.306 156.72 192.306C157.27 192.306 157.455 192.736 157.129 193.263ZM218.385 194.557C218.204 196.275 218.669 196.816 220.345 196.839C221.554 196.856 222.867 197.193 223.263 197.59C224.675 199.002 225.652 198.273 225.652 195.808C225.652 193.974 226.185 193.307 227.654 193.307C230.087 193.307 230.209 194.181 228.001 195.796C227.091 196.462 226.648 197.493 227.016 198.088C227.702 199.198 232.159 199.142 233.291 198.01C233.637 197.664 234.845 198.028 235.975 198.819C237.178 199.662 239.033 200.005 240.454 199.649C241.928 199.279 243.188 199.539 243.665 200.312C244.236 201.235 244.791 200.93 245.695 199.196C246.379 197.883 247.108 196.617 247.314 196.382C247.976 195.627 250.605 199.749 250.638 201.594C250.656 202.574 251.346 203.636 252.171 203.952C254.517 204.853 254.06 207.651 251.67 207.027C250.568 206.738 249.888 206.86 250.158 207.297C251.015 208.685 247.707 210.624 244.631 210.537C242.586 210.479 241.313 211.104 240.542 212.548C239.508 214.479 239.345 214.507 238.45 212.908C237.552 211.303 237.346 211.295 235.677 212.805C234.687 213.701 232.7 214.56 231.263 214.714C229.826 214.867 228.314 215.364 227.902 215.818C227.49 216.272 227.829 216.307 228.654 215.897C229.48 215.486 229.03 216.085 227.654 217.229C225.895 218.691 224.334 219.139 222.4 218.737C220.621 218.368 219.648 218.586 219.648 219.354C219.648 220.133 218.755 220.319 217.063 219.894C215.082 219.397 214.368 219.665 214.01 221.037C213.652 222.401 212.358 222.895 208.589 223.11C193.325 223.98 189.284 223.405 186.307 219.94C184.423 217.748 183.203 217.171 181.252 217.544C179.837 217.814 178.916 217.65 179.207 217.18C179.499 216.709 179.147 216.254 178.427 216.171C177.706 216.087 176.667 215.963 176.116 215.894C174.003 215.632 172.744 214.188 172.109 211.3C171.339 207.793 169.203 208.404 169.879 211.937C170.13 213.249 169.936 214.322 169.447 214.322C168.96 214.322 168.288 212.959 167.955 211.294C167.449 208.765 166.999 208.373 165.228 208.924C164.061 209.286 162.957 209.974 162.773 210.451C162.208 211.922 160.605 211.411 160.605 209.759C160.605 208.902 161.055 208.478 161.606 208.818C162.156 209.158 162.606 208.54 162.606 207.443C162.606 204.874 165.623 203.939 171.212 204.778C174.28 205.237 175.616 205.083 175.616 204.268C175.616 203.626 174.94 203.359 174.115 203.676C173.289 203.992 172.614 203.842 172.614 203.342C172.614 202.052 174.779 200.812 177.03 200.812C178.12 200.812 179.661 199.519 180.607 197.81C182.335 194.695 186.063 193.347 187.894 195.177C188.582 195.865 189.547 195.885 190.76 195.237C193.614 193.709 197.506 195.073 196.9 197.39C196.624 198.446 196.9 199.311 197.515 199.311C198.13 199.311 198.632 198.803 198.632 198.182C198.632 197.398 201.099 197.195 206.696 197.52C214.733 197.984 214.765 197.976 216.229 195.146C218 191.722 218.706 191.529 218.385 194.557ZM278.981 194.307C278.478 196.228 276.689 197.165 276.689 195.508C276.689 194.811 278.73 192.306 279.297 192.306C279.411 192.306 279.268 193.206 278.981 194.307ZM284.424 192.91C284.092 193.243 283.228 193.279 282.506 192.989C281.708 192.67 281.945 192.433 283.111 192.385C284.166 192.342 284.756 192.578 284.424 192.91ZM172.426 196.247C172.677 196.997 172.301 197.373 171.551 197.122C170.828 196.881 170.04 196.093 169.8 195.371C169.549 194.621 169.925 194.245 170.675 194.495C171.397 194.736 172.185 195.524 172.426 196.247ZM349.742 195.089C349.742 195.518 348.503 196.42 346.99 197.091C342.688 199.001 337.815 202.687 337.772 204.064C337.75 204.753 337.058 205.315 336.232 205.315C335.407 205.315 334.698 204.753 334.657 204.064C334.616 203.377 334.396 201.817 334.168 200.598C333.841 198.844 334.117 198.511 335.494 199.002C336.451 199.343 337.79 200.052 338.472 200.58C339.323 201.237 339.905 201.032 340.33 199.924C340.672 199.037 341.352 198.31 341.843 198.31C342.335 198.31 343.638 197.41 344.739 196.309C346.724 194.323 349.742 193.588 349.742 195.089ZM332.196 197.059C330.935 203.436 330.556 204.315 329.068 204.315C328.177 204.315 326.875 205.096 326.176 206.052C325.036 207.611 324.922 207.521 325.065 205.178C325.153 203.743 325.703 202.752 326.288 202.977C327.853 203.577 331.064 199.628 330.405 197.912C330.095 197.101 330.378 196.22 331.035 195.952C331.692 195.684 332.3 195.43 332.386 195.387C332.472 195.344 332.387 196.096 332.196 197.059ZM170.702 198.919C171.627 200.033 171.441 200.312 169.77 200.312C168.621 200.312 167.222 199.455 166.662 198.408C165.799 196.795 165.941 196.583 167.595 197.015C168.668 197.296 170.066 198.153 170.702 198.919ZM311.214 197.309C311.554 197.86 311.355 198.31 310.773 198.31C310.19 198.31 309.713 197.86 309.713 197.309C309.713 196.759 309.911 196.309 310.154 196.309C310.398 196.309 310.874 196.759 311.214 197.309ZM277.587 201.624C275.393 203.666 274.092 203.308 275.011 200.913C275.324 200.095 276.489 199.496 277.599 199.579L279.617 199.731L277.587 201.624ZM313.716 200.312C313.716 200.862 313.266 201.312 312.715 201.312C312.165 201.312 311.715 202.063 311.715 202.981C311.715 203.897 311.448 204.382 311.123 204.056C310.288 203.222 311.655 199.311 312.782 199.311C313.296 199.311 313.716 199.761 313.716 200.312ZM245.342 203.119C242.947 205.767 243.27 207.115 246.167 206.561C248.73 206.071 249.259 204.792 247.829 202.539C247.206 201.557 246.636 201.69 245.342 203.119ZM99.5605 204.284C99.5605 205.513 99.0602 206.061 98.2266 205.742C97.492 205.459 96.8916 204.573 96.8916 203.771C96.8916 202.97 97.492 202.313 98.2266 202.313C98.9601 202.313 99.5605 203.2 99.5605 204.284ZM319.247 204.398C319.263 205.273 320.147 205.721 321.557 205.566C322.813 205.43 323.593 205.717 323.292 206.204C322.991 206.691 323.415 207.646 324.235 208.326C326.686 210.361 325.927 211.286 322.723 210.169C321.071 209.593 319.72 208.686 319.72 208.152C319.72 207.619 318.82 207.468 317.719 207.817C315.616 208.485 315.116 207.046 316.341 203.854C317.074 201.944 319.208 202.343 319.247 204.398ZM106.247 205.371C104.679 206.641 103.863 206.81 103.331 205.975C102.139 204.101 102.409 203.82 105.496 203.711L108.425 203.608L106.247 205.371ZM293.701 204.255C293.701 204.774 293.251 205.475 292.701 205.816C292.15 206.156 291.7 205.732 291.7 204.874C291.7 204.016 292.15 203.314 292.701 203.314C293.251 203.314 293.701 203.737 293.701 204.255ZM305.71 205.433C305.71 205.984 305.26 206.156 304.709 205.816C304.159 205.475 303.709 204.747 303.709 204.196C303.709 203.646 304.159 203.474 304.709 203.814C305.26 204.154 305.71 204.883 305.71 205.433ZM309.206 204.304C309.556 204.87 309.155 205.038 308.264 204.697C306.531 204.031 306.214 203.314 307.653 203.314C308.171 203.314 308.87 203.759 309.206 204.304ZM296.704 205.315C296.704 205.866 296.253 206.316 295.703 206.316C295.153 206.316 294.702 205.866 294.702 205.315C294.702 204.765 295.153 204.315 295.703 204.315C296.253 204.315 296.704 204.765 296.704 205.315ZM96.058 206.316C96.3982 206.866 96.1991 207.317 95.6167 207.317C95.0342 207.317 94.5569 206.866 94.5569 206.316C94.5569 205.766 94.755 205.315 94.9982 205.315C95.2414 205.315 95.7177 205.766 96.058 206.316ZM304.166 208.248C304.483 208.761 304.284 209.462 303.725 209.809C303.165 210.154 302.708 209.734 302.708 208.877C302.708 207.119 303.308 206.86 304.166 208.248ZM333.385 212.999C333.098 213.286 332.361 213.211 331.747 212.832C330.947 212.336 330.998 211.7 331.93 210.574C333.101 209.162 333.264 209.178 333.568 210.742C333.756 211.696 333.672 212.712 333.385 212.999ZM291.586 213.392C289.98 214.384 289.249 213.857 290.168 212.37C290.536 211.775 291.305 211.576 291.876 211.929C292.549 212.344 292.446 212.86 291.586 213.392ZM319.72 214.322C319.72 214.872 319.27 215.323 318.72 215.323C318.169 215.323 317.719 214.872 317.719 214.322C317.719 213.771 318.169 213.321 318.72 213.321C319.27 213.321 319.72 213.771 319.72 214.322ZM245.309 215.823C246.135 216.648 246.665 217.357 246.488 217.398C244.417 217.877 241.47 218.072 242.456 217.663C243.449 217.253 243.478 216.804 242.583 215.726C240.937 213.742 243.313 213.827 245.309 215.823ZM314.717 217.163C314.717 217.625 313.478 218.624 311.965 219.382C310.452 220.142 308.933 220.908 308.589 221.086C308.247 221.263 307.719 220.461 307.416 219.303C306.925 217.426 307.181 217.268 309.79 217.841C311.613 218.242 312.715 218.077 312.715 217.403C312.715 216.81 313.166 216.323 313.716 216.323C314.266 216.323 314.717 216.702 314.717 217.163ZM285.696 218.325C285.696 218.875 285.498 219.325 285.254 219.325C285.011 219.325 284.535 218.875 284.195 218.325C283.854 217.774 284.053 217.324 284.636 217.324C285.218 217.324 285.696 217.774 285.696 218.325ZM183.622 222.328C183.622 222.878 183.144 223.328 182.562 223.328C181.979 223.328 181.78 222.878 182.12 222.328C182.461 221.777 182.937 221.327 183.18 221.327C183.423 221.327 183.622 221.777 183.622 222.328ZM309.713 226.331C308.43 227.159 308.466 227.303 309.963 227.316C310.926 227.324 311.715 226.881 311.715 226.331C311.715 225.11 311.601 225.11 309.713 226.331ZM282.673 227.856C281.977 228.694 281.201 229.175 280.949 228.923C280.256 228.229 281.666 226.331 282.875 226.331C283.539 226.331 283.463 226.905 282.673 227.856ZM292.291 229.076C291.597 229.769 289.699 228.359 289.699 227.15C289.699 226.486 290.273 226.562 291.224 227.351C292.062 228.048 292.543 228.823 292.291 229.076ZM247.397 228.936C247.065 229.269 246.201 229.305 245.479 229.015C244.681 228.696 244.918 228.459 246.084 228.411C247.139 228.368 247.729 228.604 247.397 228.936ZM164.608 230.834C164.608 231.659 164.157 232.335 163.607 232.335C163.057 232.335 162.606 231.659 162.606 230.834C162.606 230.008 163.057 229.333 163.607 229.333C164.157 229.333 164.608 230.008 164.608 230.834ZM156.602 231.334C156.602 231.885 156.152 232.335 155.601 232.335C155.051 232.335 154.6 231.885 154.6 231.334C154.6 230.784 155.051 230.333 155.601 230.333C156.152 230.333 156.602 230.784 156.602 231.334ZM133.585 233.895C133.585 234.753 134.036 235.177 134.586 234.837C135.136 234.496 135.587 233.795 135.587 233.277C135.587 232.758 135.136 232.335 134.586 232.335C134.036 232.335 133.585 233.037 133.585 233.895ZM162.685 237.589C162.748 238.589 162.865 238.589 163.269 237.589C163.807 236.255 168.611 235.816 168.611 237.101C168.611 238.248 163.986 241.493 159.468 243.515L155.463 245.308L155.782 242.574C156.262 238.47 162.458 233.995 162.685 237.589ZM150.598 239.34C150.598 239.89 149.585 240.309 148.346 240.271C146.197 240.204 146.186 240.161 148.096 239.34C149.197 238.867 150.21 238.448 150.347 238.409C150.484 238.371 150.598 238.79 150.598 239.34ZM253.172 246.345C253.523 246.912 252.682 247.346 251.23 247.346C249.822 247.346 248.669 246.895 248.669 246.345C248.669 245.795 249.542 245.344 250.611 245.344C251.68 245.344 252.832 245.795 253.172 246.345ZM256.174 246.345C256.514 246.895 256.315 247.346 255.733 247.346C255.15 247.346 254.673 246.895 254.673 246.345C254.673 245.795 254.871 245.344 255.114 245.344C255.358 245.344 255.834 245.795 256.174 246.345ZM245.016 249.347C244.56 251.628 244.781 252.349 245.935 252.349C246.77 252.349 247.733 253.076 248.073 253.965C248.494 255.057 249.498 255.427 251.183 255.104C253.323 254.695 253.67 254.994 253.657 257.242C253.648 258.679 253.311 259.405 252.907 258.854C251.014 256.279 245.926 253.573 244.579 254.426C240.955 256.72 237.908 253.391 241.288 250.832C242.756 249.721 242.839 249.397 241.664 249.347C240.511 249.298 240.614 248.942 242.105 247.814C244.984 245.637 245.685 246.005 245.016 249.347ZM161.896 250.348C162.485 252.602 161.598 252.942 159.804 251.149C158.206 249.55 158.284 248.347 159.987 248.347C160.749 248.347 161.608 249.247 161.896 250.348ZM268.683 249.347C268.683 249.898 268.233 250.348 267.683 250.348C267.132 250.348 266.682 249.898 266.682 249.347C266.682 248.797 267.132 248.347 267.683 248.347C268.233 248.347 268.683 248.797 268.683 249.347ZM252.4 251.953C252.068 252.285 251.205 252.321 250.483 252.032C249.685 251.713 249.922 251.476 251.088 251.428C252.142 251.385 252.733 251.621 252.4 251.953ZM198.632 255.793C198.632 256.036 198.182 256.512 197.632 256.853C197.081 257.193 196.631 256.994 196.631 256.411C196.631 255.829 197.081 255.352 197.632 255.352C198.182 255.352 198.632 255.55 198.632 255.793ZM224.38 260.96C224.048 261.292 223.184 261.328 222.463 261.039C221.664 260.719 221.901 260.482 223.067 260.434C224.122 260.391 224.712 260.627 224.38 260.96ZM199.633 264.299C199.633 265.48 197.682 266.743 196.964 266.026C196.248 265.309 197.511 263.357 198.692 263.357C199.21 263.357 199.633 263.781 199.633 264.299ZM144.028 269.257C144.333 269.75 143.872 270.426 143.004 270.758C140.774 271.613 140.59 271.545 140.59 269.862C140.59 268.239 143.123 267.793 144.028 269.257ZM156.402 270.563C158.166 272.327 157.87 273.365 155.601 273.365C154.267 273.365 153.6 272.697 153.6 271.363C153.6 269.095 154.638 268.798 156.402 270.563ZM163.607 274.365C163.607 274.916 163.157 275.366 162.606 275.366C162.056 275.366 161.606 274.916 161.606 274.365C161.606 273.815 162.056 273.365 162.606 273.365C163.157 273.365 163.607 273.815 163.607 274.365ZM114.075 278.375C114.414 278.924 113.48 279.833 111.998 280.397C109.067 281.512 105.565 280.856 105.565 279.195C105.565 278.622 106.282 278.429 107.159 278.766C108.218 279.172 108.926 278.714 109.271 277.396C109.682 275.822 110.167 275.616 111.624 276.396C112.633 276.936 113.737 277.827 114.075 278.375ZM158.603 275.759C158.603 275.976 157.928 276.412 157.102 276.729C156.277 277.045 155.601 276.868 155.601 276.336C155.601 275.802 156.277 275.366 157.102 275.366C157.928 275.366 158.603 275.543 158.603 275.759ZM102.217 282.829C101.891 283.678 101.145 284.373 100.557 284.373C99.8177 284.373 99.8327 283.733 100.607 282.285C101.849 279.964 103.148 280.403 102.217 282.829ZM161.606 282.312C161.606 282.831 162.056 283.532 162.606 283.872C163.157 284.213 163.607 283.788 163.607 282.931C163.607 282.073 163.157 281.37 162.606 281.37C162.056 281.37 161.606 281.794 161.606 282.312ZM268.683 284.814C268.683 285.87 266.763 286.314 266.192 285.389C265.846 284.83 266.266 284.373 267.123 284.373C267.981 284.373 268.683 284.571 268.683 284.814ZM103.563 286.374C103.563 286.925 103.365 287.375 103.122 287.375C102.879 287.375 102.403 286.925 102.062 286.374C101.722 285.824 101.921 285.373 102.504 285.373C103.086 285.373 103.563 285.824 103.563 286.374ZM94.5569 287.375C94.5569 287.925 94.1066 288.376 93.5562 288.376C93.0058 288.376 92.5554 287.925 92.5554 287.375C92.5554 286.824 93.0058 286.374 93.5562 286.374C94.1066 286.374 94.5569 286.824 94.5569 287.375ZM118.574 286.815C118.574 287.059 118.124 287.535 117.574 287.875C117.023 288.215 116.573 288.016 116.573 287.434C116.573 286.851 117.023 286.374 117.574 286.374C118.124 286.374 118.574 286.572 118.574 286.815ZM108.567 288.376C109.787 289.164 109.658 289.348 107.876 289.361C106.67 289.369 105.405 288.926 105.065 288.376C104.277 287.102 106.596 287.102 108.567 288.376ZM134.586 290.818C134.586 291.062 134.136 291.538 133.585 291.878C133.035 292.218 132.584 292.019 132.584 291.437C132.584 290.854 133.035 290.377 133.585 290.377C134.136 290.377 134.586 290.575 134.586 290.818ZM248.669 291.771C248.669 292.538 249.373 293.435 250.233 293.765C251.094 294.096 251.509 294.833 251.157 295.404C250.764 296.038 249.601 295.563 248.17 294.186C245.923 292.022 245.732 290.377 247.727 290.377C248.245 290.377 248.669 291.004 248.669 291.771ZM101.312 294.63C101.168 295.353 101.844 295.747 102.913 295.564C104.025 295.374 104.501 295.674 104.105 296.314C103.743 296.902 103.848 297.382 104.338 297.382C104.829 297.382 105.232 298.01 105.232 298.777C105.232 300.263 103.184 300.208 98.0594 298.582C95.5786 297.794 95.3615 297.502 96.8085 296.898C97.7722 296.496 98.5598 295.54 98.5598 294.773C98.5598 294.007 99.2353 293.379 100.061 293.379C100.886 293.379 101.45 293.943 101.312 294.63ZM109.548 298.907C108.851 299.746 108.076 300.226 107.824 299.975C107.13 299.28 108.54 297.382 109.749 297.382C110.413 297.382 110.337 297.957 109.548 298.907ZM251.978 299.023C252.678 299.724 249.65 305.388 248.576 305.388C248.211 305.388 247.353 304.712 246.667 303.887C245.623 302.629 245.784 302.386 247.662 302.386C249.41 302.386 249.788 301.945 249.379 300.384C248.877 298.462 250.544 297.589 251.978 299.023ZM94.9021 301.928C94.5759 302.778 94.0946 303.258 93.8324 302.996C93.5702 302.734 93.6522 302.038 94.0155 301.452C95.0022 299.855 95.5786 300.165 94.9021 301.928ZM82.5482 303.887C82.5482 304.712 81.8727 305.388 81.0471 305.388C78.4432 305.388 79.2868 303.415 82.298 302.465C82.4361 302.422 82.5482 303.061 82.5482 303.887ZM115.286 306.102C114.369 307.02 113.27 307.422 112.845 306.998C112.421 306.573 112.94 305.591 114 304.816C115.06 304.041 116.158 303.639 116.44 303.921C116.723 304.204 116.204 305.186 115.286 306.102ZM56.5293 310.451C56.5293 311.033 56.9796 311.232 57.53 310.892C58.0804 310.552 58.5307 310.075 58.5307 309.832C58.5307 309.589 58.0804 309.391 57.53 309.391C56.9796 309.391 56.5293 309.868 56.5293 310.451ZM69.5387 316.063C69.5387 316.796 68.6521 317.397 67.5683 317.397C66.3384 317.397 65.791 316.896 66.1102 316.063C66.3924 315.328 67.2791 314.728 68.0807 314.728C68.8822 314.728 69.5387 315.328 69.5387 316.063ZM46.3429 321.635C46.1057 323.31 45.4572 323.823 43.8591 323.603C42.6692 323.439 41.4043 323.777 41.048 324.354C40.6818 324.946 41.2372 325.402 42.325 325.402C43.3837 325.402 45.4372 326.336 46.8873 327.477C49.1459 329.252 49.5242 329.316 49.5242 327.918C49.5242 327.02 49.1009 326.547 48.5825 326.867C48.0271 327.211 47.867 326.056 48.1922 324.051C48.4994 322.162 48.2823 320.368 47.7049 320.011C47.1264 319.653 46.522 320.375 46.3429 321.635ZM55.7787 322.106C52.5804 322.721 52.9907 324.096 56.5293 324.615C58.93 324.967 59.5315 324.69 59.5315 323.228C59.5315 322.222 59.1932 321.461 58.7809 321.536C58.3686 321.611 57.0166 321.867 55.7787 322.106ZM35.514 330.5C35.514 330.998 36.4147 331.407 37.5155 331.407C38.6163 331.407 39.5169 331.234 39.5169 331.024C39.5169 330.812 38.6163 330.404 37.5155 330.116C36.4147 329.829 35.514 330.001 35.514 330.5Z" fill="#1363FE"/>
</svg>
