<svg width="554" height="281" viewBox="0 0 554 281" fill="none" xmlns="http://www.w3.org/2000/svg">
<g clip-path="url(#clip0_1_107)">
<path fill-rule="evenodd" clip-rule="evenodd" d="M279.232 18.8944C249.928 16.9512 215.498 21.4488 179.462 31.9279C130.21 46.2501 80.8196 72.6672 51.2699 100.495C22.1516 127.916 8.47329 156.112 12.1083 181.218C13.0719 187.874 17.3922 200.393 20.8879 206.661C23.6685 211.645 29.0314 218.198 34.9722 223.869C46.0708 234.462 61.3737 242.071 85.2725 248.88C99.3842 252.9 138.676 259.612 156.373 261.025C188.696 263.607 220.374 263.411 262.673 260.369C305.583 257.282 337.721 252.636 381.772 243.149C430.222 232.715 453.082 226.114 476.434 215.817C499.768 205.527 514.317 195.323 524.032 182.438C532.49 171.217 537.388 160.833 539.201 150.273C541.257 138.298 539.609 131.457 532.105 120.819C526.741 113.213 521.067 107.64 510.442 99.5374C496.589 88.9728 482.226 80.6136 464.537 72.8209C424.358 55.1206 397.433 49.1065 333.791 43.6165C314.806 41.9786 279.45 39.6391 277.773 39.91C276.392 40.1331 276.392 42.5234 277.772 43.7511C278.478 44.3784 287.439 47.7203 297.685 51.1777C315.941 57.3374 345.03 67.5804 386.518 82.4592C397.96 86.5619 413.531 92.0239 421.12 94.5965C452.135 105.109 474.852 115.668 491.58 127.344C504.504 136.365 510.904 142.962 510.267 146.603C509.782 149.381 507.485 154.2 505.167 157.31C496.969 168.304 474.019 181.832 446.355 191.979C424.98 199.818 372.223 213.077 334.138 220.182C294.995 227.482 250.652 232.076 207.755 233.275C174.059 234.217 148.995 232.432 115.496 226.703C82.3713 221.038 64.0772 215.033 50.6102 205.403C33.2875 193.016 27.2616 173.99 34.2165 153.64C40.4447 135.417 60.6958 112.249 87.5361 92.6409C130.79 61.0415 185.689 38.1079 238.663 29.5078C276.373 23.3859 314.634 26.6862 342.083 38.4281C345.541 39.9078 349.15 41.7064 350.103 42.4258C352.341 44.1161 352.537 43.0071 350.384 40.8411C345.783 36.2146 333.52 30.2105 320.479 26.201C312.362 23.7056 288.778 19.5276 279.232 18.8944ZM202.057 40.9558C193.831 40.9578 192.007 41.1491 191.858 42.0224C191.422 44.5707 192.89 44.8014 201.815 43.5881C206.599 42.9383 211.188 42.3657 212.015 42.3166C213.886 42.205 214.819 41.2692 213.239 41.0871C212.598 41.0136 207.566 40.9545 202.057 40.9558Z" fill="#1363FE"/>
</g>
<defs>
<clipPath id="clip0_1_107">
<rect width="554" height="281" fill="white"/>
</clipPath>
</defs>
</svg>
