<svg width="746" height="135" viewBox="0 0 746 135" fill="none" xmlns="http://www.w3.org/2000/svg">
<path fill-rule="evenodd" clip-rule="evenodd" d="M641.853 14.211C641.254 14.4347 640.355 15.1319 639.856 15.7615C639.357 16.3912 638.948 16.5517 638.948 16.1181C638.948 15.5691 638.031 15.5364 635.921 16.0106C634.256 16.3847 632.499 16.5386 632.015 16.3534C631.531 16.1675 630.722 16.3992 630.215 16.8669C629.493 17.5343 629.425 17.4828 629.902 16.6287C630.427 15.6896 630.342 15.6773 629.283 16.5357C628.607 17.0841 628.054 17.2896 628.054 16.9918C628.054 16.6941 627.615 16.8146 627.079 17.2598C626.543 17.7043 625.937 17.9011 625.733 17.6963C625.528 17.4915 621.636 19.2744 617.085 21.658C612.533 24.0416 607.497 26.6546 605.895 27.4644C602.77 29.0433 591.299 38.4402 589.663 40.7599C588.717 42.1006 588.608 42.0555 587.226 39.7453C586.43 38.4148 584.098 35.7328 582.042 33.7842C579.987 31.8357 578.469 30.1944 578.669 30.1363C578.869 30.0782 577.774 28.6714 576.237 27.0097C572.918 23.4228 569.339 21.5788 564.87 21.1533C563.073 20.9819 561.348 20.6042 561.038 20.3144C560.311 19.6332 551.826 20.7269 546.82 22.1468C544.681 22.7532 540.946 24.2108 538.52 25.3858C536.094 26.5609 533.677 27.5225 533.149 27.5225C532.621 27.5225 532.189 27.8689 532.189 28.2916C532.189 28.7143 531.932 28.9024 531.619 28.7085C530.905 28.2676 522.316 31.8568 518.627 34.1365C517.112 35.0726 515.515 35.8911 515.08 35.955C514.643 36.0196 513.364 36.926 512.238 37.9704C511.111 39.0147 509.812 39.8688 509.351 39.8688C508.89 39.8688 506.452 41.529 503.934 43.5589L499.355 47.2482L497.071 44.7158C495.814 43.3236 494.366 41.5813 493.852 40.8449C493.338 40.1084 493.155 39.9959 493.447 40.595C493.905 41.5377 493.808 41.5479 492.73 40.6727C492.044 40.1172 491.631 39.5144 491.812 39.3335C492.234 38.9116 490.248 35.6805 487.752 32.7319C485.366 29.9119 483.421 29.1282 479.172 29.2728C477.375 29.3338 475.534 29.1202 475.081 28.7978C474.588 28.4463 474.08 28.6743 473.815 29.3657C473.571 30.0005 473.066 30.3302 472.691 30.0985C472.316 29.8668 471.814 29.9954 471.573 30.3839C471.333 30.7725 470.653 30.9046 470.061 30.6773C469.47 30.4507 468.582 30.572 468.087 30.9475C467.209 31.6142 461.131 34.0072 459.364 34.3812C457.443 34.7872 450.179 38.4126 447.157 40.473C445.403 41.6692 443.756 42.516 443.496 42.3555C443.236 42.195 442.801 40.8347 442.528 39.3321C442.186 37.4482 441.089 35.7103 438.996 33.7334C437.326 32.156 435.727 30.9264 435.442 31.0012C435.156 31.0753 435.13 30.5967 435.383 29.9365C435.673 29.182 435.555 28.9154 435.065 29.2183C434.236 29.7303 432.502 25.7751 433.235 25.0423C433.625 24.6531 432.322 24.3379 431.084 24.5231C430.799 24.5652 430.737 24.1541 430.946 23.6087C431.19 22.9725 430.598 22.4351 429.293 22.1075C428.175 21.8272 427.06 21.2745 426.817 20.8802C426.573 20.4858 425.916 20.0711 425.357 19.9586C424.798 19.8453 423.79 19.5134 423.117 19.2207C419.673 17.7224 404.682 22.0124 397.643 26.5101C395.55 27.8478 392.886 29.5211 391.724 30.2292C387.149 33.0159 369.795 48.5192 373.139 46.8314C373.738 46.5285 373.164 47.2875 371.863 48.5163C370.563 49.7458 369.419 50.9986 369.321 51.3015C369.224 51.6043 368.891 51.767 368.58 51.6639C368.269 51.56 367.821 51.982 367.583 52.6007C367.346 53.2195 366.047 54.863 364.699 56.2516C363.349 57.6409 362.245 59.2619 362.245 59.8538C362.245 61.8975 360.423 60.5554 358.282 56.9357C357.101 54.9385 355.711 52.8723 355.195 52.3451C354.679 51.8171 354.257 51.0814 354.257 50.711C354.257 50.3399 353.899 50.1184 353.463 50.2179C353.026 50.3181 352.302 49.7458 351.855 48.9469C350.525 46.575 346.751 41.0279 345.801 40.0503C345.316 39.5507 344.569 39.1425 344.141 39.1425C343.713 39.1425 343.363 38.7612 343.363 38.295C343.363 37.8295 343.148 37.6632 342.885 37.9261C342.622 38.189 341.969 38.0394 341.433 37.5949C340.698 36.9848 340.455 37.0313 340.447 37.783C340.438 38.6102 340.326 38.6066 339.79 37.759C339.43 37.1911 338.08 36.7691 336.743 36.8069C335.145 36.8527 334.676 36.6689 335.341 36.2579C335.965 35.8729 334.312 35.5389 330.956 35.3711C327.993 35.2237 325.235 35.337 324.825 35.6231C324.416 35.91 323.272 36.2782 322.283 36.4423C320.383 36.7575 319.71 36.9834 313.977 39.2304C309.348 41.0446 301.732 45.3012 300.536 46.742C300.027 47.3557 299.186 47.8576 298.667 47.8576C298.148 47.8576 296.146 49.4103 294.217 51.3073C292.288 53.205 291.194 54.1033 291.787 53.3045C292.85 51.8701 292.843 51.8687 291.259 53.2202C290.376 53.9726 289.827 54.8674 290.039 55.2087C290.249 55.55 289.989 55.6633 289.46 55.4607C288.93 55.2566 287.041 56.6387 285.247 58.5429C283.458 60.4421 282.975 61.1836 284.173 60.1915L286.352 58.3882L284.594 60.3825C283.627 61.4792 282.674 62.2141 282.475 62.0151C282.276 61.8161 281.513 62.1952 280.781 62.8576C279.525 63.9949 279.456 63.9644 279.557 62.3151C279.744 59.235 273.76 46.4051 272.136 46.4051C271.783 46.4051 270.867 45.1799 270.101 43.6816C267.875 39.3277 264.567 36.3123 261.665 35.992C259.791 35.7858 259.291 35.9347 259.8 36.5476C260.315 37.1686 259.329 37.3327 255.993 37.1831C251.341 36.9739 246.771 37.9936 246.771 39.242C246.771 39.6335 246.439 39.7489 246.033 39.4984C245.627 39.2471 245.516 38.6559 245.787 38.1846C246.058 37.7125 245.491 38.0161 244.528 38.8586C243.565 39.7003 241.225 41.1477 239.327 42.0737C237.43 42.9997 235.877 43.9743 235.877 44.2394C235.877 44.5045 234.325 45.5699 232.428 46.6062C229.359 48.2831 225.413 51.6072 223.081 54.481C221.732 56.1434 214.531 62.8009 213.364 63.4647C212.686 63.8504 212.821 63.4204 213.722 62.326L215.169 60.567L213.177 62.3274C212.081 63.2963 211.175 64.4401 211.162 64.8693C211.124 66.1657 207.722 69.6306 204.827 71.3228C203.331 72.1979 202.107 73.4035 202.107 74.0027C202.107 74.6018 201.389 75.1944 200.513 75.3186C199.471 75.4668 199.058 75.9076 199.319 76.5896C199.54 77.164 199.277 77.684 198.735 77.7443C198.193 77.8053 197.422 77.931 197.023 78.0239C196.624 78.1169 195.97 78.2353 195.57 78.2876C195.171 78.3398 195.334 78.6993 195.934 79.0864C196.873 79.6929 196.853 79.7916 195.795 79.8018C195.119 79.8076 194.308 79.4038 193.99 78.9049C193.417 78.0021 193.293 77.6071 193.119 76.1386C193.069 75.7159 192.702 75.5714 192.302 75.8183C191.903 76.0652 191.526 75.676 191.466 74.9533C191.405 74.2307 191.279 73.3127 191.186 72.9133C191.093 72.5139 190.941 71.8602 190.848 71.4608C190.754 71.0613 190.716 70.4898 190.764 70.1898C190.811 69.8906 190.523 69.6452 190.124 69.6452C189.724 69.6452 189.397 69.1796 189.397 68.6117C189.397 68.043 188.231 66.0502 186.806 64.1823C185.38 62.3151 184.386 60.6156 184.595 60.4058C184.805 60.1959 184.101 58.8392 183.03 57.3911C180.109 53.441 175.153 48.5453 174.617 49.0806C174.358 49.3398 174.146 49.0188 174.146 48.3667C174.146 45.8713 169.845 42.1848 165.085 40.6008C160.473 39.0655 155.263 39.1287 155.263 40.7185C155.263 41.0976 154.963 41.2211 154.596 40.9945C154.229 40.7672 153.493 41.001 152.962 41.5137C152.43 42.0258 151.342 42.4521 150.543 42.4608C149.692 42.4702 149.183 42.89 149.313 43.4746C149.496 44.296 149.336 44.3069 148.405 43.5342C147.483 42.7694 147.275 42.7687 147.275 43.532C147.275 44.0469 147.07 44.2633 146.819 44.0128C146.349 43.5429 136.987 48.1219 135.437 49.5802C134.957 50.0305 133.689 50.8512 132.617 51.4039C131.545 51.9565 129.584 53.4984 128.259 54.8303C126.934 56.163 125.587 57.2633 125.264 57.2756C124.942 57.2887 121.087 60.9759 116.699 65.4692C112.311 69.9633 108.381 73.9664 107.967 74.3658C99.0275 82.9886 96.4667 85.2988 95.6279 85.4956C95.0745 85.6256 94.5124 86.0338 94.3795 86.4034C94.2458 86.7731 93.8181 87.0752 93.4288 87.0752C93.0388 87.0752 92.9044 86.776 93.1303 86.4107C93.3562 86.0454 93.2937 85.6372 92.9916 85.5029C92.6895 85.3693 91.5536 83.6255 90.4671 81.6283C89.3799 79.6311 88.186 78.0682 87.8134 78.1554C87.4401 78.2425 86.695 77.7712 86.1576 77.1081C85.4698 76.2599 85.4487 76.0645 86.0878 76.448C87.3936 77.233 87.2084 75.8096 85.8583 74.689C85.233 74.1697 84.27 72.9046 83.7181 71.8769C82.8248 70.2116 79.7636 66.9587 74.8019 62.4001C71.1866 59.0782 65.5647 58.8051 60.4097 61.6999C59.0545 62.4611 57.9455 62.8866 57.9455 62.6455C57.9455 62.4051 56.5562 63.3173 54.859 64.674C53.161 66.0306 50.5494 67.9494 49.054 68.9378C47.5587 69.9262 46.3335 71.0643 46.3306 71.4673C46.3277 71.8711 45.6595 72.617 44.8447 73.1254C44.0305 73.6337 43.5904 74.4166 43.8679 74.8647C44.1511 75.323 44.0465 75.4791 43.6296 75.2213C42.6492 74.6156 40.8365 76.6876 39.4551 79.995C38.8415 81.4635 37.6569 83.0307 36.8232 83.4766C35.9895 83.9226 35.484 84.4643 35.699 84.68C35.9147 84.8957 35.3039 86.2306 34.3409 87.6475C33.3786 89.0637 32.7366 90.4581 32.9138 90.7457C33.0917 91.0333 32.7039 91.2236 32.0524 91.1691C31.4003 91.1146 30.7256 91.5598 30.552 92.159C30.2724 93.1271 30.332 93.1271 31.0873 92.159C31.8099 91.233 31.8731 91.2693 31.5056 92.4001C31.2681 93.1314 31.0742 94.0305 31.0742 94.3973C31.0742 94.7641 30.7278 95.064 30.3051 95.064C29.8824 95.064 29.7691 94.6864 30.0538 94.2252C30.3857 93.6892 30.2521 93.5846 29.6841 93.9361C29.1961 94.2375 28.9717 94.942 29.1859 95.5005C29.4009 96.0597 29.2404 96.5165 28.8301 96.5165C28.419 96.5165 28.2854 96.8433 28.5323 97.2428C28.7792 97.6422 28.6434 97.969 28.2309 97.969C27.8177 97.969 26.9818 98.9335 26.3724 100.111C25.0267 102.714 24.9824 103.281 26.172 102.679C26.6716 102.426 26.5612 102.652 25.9265 103.181C25.2925 103.709 24.9265 104.596 25.1131 105.151C25.3099 105.736 25.1262 105.959 24.6759 105.68C24.2125 105.393 23.9438 105.792 24.0099 106.668C24.0709 107.476 24.5415 108.137 25.0557 108.137C25.5699 108.137 25.9904 108.478 25.9904 108.895C25.9904 109.313 26.8423 108.803 27.883 107.763C29.9376 105.708 31.2848 105.868 29.4699 107.951C28.0755 109.551 28.5083 111.455 29.9623 110.113C30.4896 109.625 30.7735 108.98 30.592 108.681C30.4104 108.381 30.6087 108.137 31.0313 108.137C31.454 108.137 31.8004 108.483 31.8004 108.906C31.8004 109.328 32.1323 109.469 32.5383 109.219C32.9443 108.967 33.0888 108.458 32.8586 108.086C32.6291 107.715 32.8092 107.41 33.2588 107.41C34.0249 107.41 33.9523 107.968 32.6923 111.768C32.4809 112.405 32.8245 112.254 33.5202 111.405L34.7091 109.952L34.2152 111.405C33.9443 112.204 33.4577 113.037 33.1353 113.256C32.8128 113.476 33.0576 114.382 33.6793 115.269L34.81 116.884L36.1725 115.233L37.5349 113.583L37.1253 115.218C36.7956 116.53 37.02 116.852 38.2655 116.852C39.5902 116.852 39.7471 117.144 39.3375 118.849C39.0746 119.947 39.1196 120.603 39.4384 120.308C39.758 120.012 40.5387 120.175 41.1749 120.671C42.1655 121.443 42.2055 121.41 41.4531 120.444C40.758 119.552 40.8067 118.872 41.6862 117.176C42.297 115.999 42.7872 114.873 42.7748 114.673C42.7632 114.473 43.3776 114.334 44.1402 114.363C44.9028 114.393 45.3603 114.148 45.157 113.819C44.9536 113.49 44.2346 113.215 43.5592 113.209C42.8598 113.203 42.6441 112.968 43.0574 112.665C43.7415 112.162 44.0908 111.243 44.4561 108.986C44.5418 108.455 45.019 107.769 45.5172 107.461C46.303 106.975 46.7961 105.674 46.9958 103.555C47.0271 103.231 47.3786 103.169 47.778 103.416C48.1774 103.663 48.5043 103.355 48.5043 102.733C48.5043 102.11 48.8507 101.6 49.2734 101.6C49.696 101.6 49.8616 101.308 49.6408 100.95C49.4193 100.592 49.7374 100.109 50.346 99.8747C51.1188 99.5784 50.8602 100.463 49.4934 102.794C47.611 106.007 46.5833 110.691 47.9458 109.848C48.3074 109.625 48.4425 109.023 48.2457 108.51C48.0489 107.998 48.8282 105.793 49.9771 103.611C51.3976 100.914 51.8298 99.4063 51.3257 98.9023C50.8225 98.399 50.9619 98.0177 51.7615 97.7105C52.4384 97.4505 52.7514 97.5601 52.4986 97.969C52.2503 98.3714 52.548 98.4912 53.1871 98.2464C54.1973 97.8586 54.6723 96.4998 54.3825 94.8287C54.3252 94.499 54.5641 94.406 54.9134 94.6224C55.5707 95.0284 56.8779 93.7088 60.3865 89.0957C61.5165 87.6097 62.7737 86.4659 63.1804 86.5538C63.5871 86.6409 64.0475 85.9568 64.2029 85.0337C64.4034 83.8456 64.2204 83.5086 63.5762 83.879C63.0758 84.1673 62.9211 84.123 63.2319 83.7817C64.131 82.794 66.15 82.7257 67.3621 83.643C67.9751 84.1063 68.2336 84.1993 67.9381 83.8499C67.6417 83.5006 67.8051 82.6945 68.3012 82.0583C69.1102 81.0197 69.0543 81.0081 67.75 81.9428C66.8559 82.5841 66.9954 82.2761 68.1131 81.1417C69.3107 79.9267 70.1103 79.573 70.4625 80.101C70.7864 80.5876 70.9999 80.3726 71.0072 79.5534C71.0145 78.655 71.3819 78.3442 72.1075 78.6231C72.7829 78.8816 73.1968 78.6195 73.1968 77.9317C73.1968 77.3209 73.5418 77.0348 73.963 77.2955C74.385 77.5562 74.6261 78.3072 74.4997 78.9644C74.3734 79.6217 74.7634 80.6835 75.3676 81.3248C75.9711 81.966 77.1186 83.5928 77.9175 84.94C81.19 90.4588 82.0985 91.7378 84.3136 93.939C88.7815 98.3793 92.6423 102.974 92.2414 103.375C92.0191 103.597 92.2377 103.779 92.7272 103.779C93.2225 103.779 93.3845 104.157 93.0925 104.629C92.7309 105.213 92.9763 105.322 93.8783 104.975C94.9096 104.579 95.0193 104.677 94.3911 105.435C93.8057 106.14 93.8384 106.873 94.5138 108.175C95.0215 109.153 95.4732 110.271 95.519 110.66C95.6243 111.564 97.1632 112.107 97.1632 111.241C97.1632 110.885 96.6831 109.959 96.0971 109.183C95.5102 108.408 95.02 107.508 95.0077 107.185C94.9699 106.235 99.2533 107.184 101.38 108.596C103.679 110.123 105.152 110.469 105.152 109.482C105.152 109.094 105.484 108.983 105.89 109.233C106.296 109.484 106.443 109.99 106.215 110.357C105.989 110.724 106.308 110.831 106.925 110.594C107.544 110.357 107.868 109.871 107.647 109.513C107.426 109.155 107.774 108.863 108.42 108.863C109.066 108.863 109.44 108.612 109.249 108.304C109.059 107.996 110.605 106.607 112.685 105.217C114.765 103.827 116.577 102.363 116.712 101.963C117.429 99.8391 117.707 99.4651 118.301 99.8319C118.658 100.053 118.951 99.5798 118.951 98.781C118.951 97.9821 119.328 97.0953 119.79 96.8106C120.355 96.4606 120.432 96.6233 120.027 97.3118C119.375 98.42 123.948 94.3152 126.472 91.5286C130.244 87.3621 143.196 76.6549 143.47 77.4763C143.633 77.9673 144.082 78.175 144.467 77.9368C144.909 77.6637 144.893 77.1749 144.423 76.6085C143.853 75.9229 144.182 75.7856 145.819 76.026C147.562 76.2816 148.116 75.9984 148.797 74.5023C149.257 73.4921 150.05 72.8247 150.559 73.0201C151.069 73.2154 151.702 73.0251 151.966 72.5974C152.268 72.1093 151.822 71.9096 150.769 72.0614C149.846 72.1943 148.768 73.0128 148.373 73.8792C147.612 75.5525 146.889 75.867 146.235 74.8095C146.016 74.4544 147.01 73.2692 148.445 72.1747C150.425 70.6641 150.817 70.0351 150.071 69.5631C149.412 69.1448 149.374 68.9378 149.955 68.9298C150.431 68.924 151.024 69.2479 151.273 69.651C151.554 70.1063 152.126 69.9814 152.789 69.3183C153.374 68.733 154.347 68.4439 154.951 68.6756C155.555 68.9073 155.954 68.7628 155.838 68.3546C155.722 67.9457 155.875 67.5855 156.178 67.5535C156.483 67.5216 157.744 66.9718 158.983 66.332C160.22 65.6914 161.031 65.4946 160.784 65.8941C160.511 66.3363 161.261 66.5346 162.702 66.401C165.374 66.1526 167.609 65.3624 167.611 64.6652C167.612 64.4081 168.614 64.1278 169.839 64.0421C171.59 63.9194 172.013 64.1496 171.825 65.1257C171.688 65.8396 170.69 66.5223 169.476 66.7343C165.896 67.3604 166.384 68.7969 170.037 68.3851L173.254 68.0227L175.545 75.3949C176.804 79.4503 178.149 82.5739 178.533 82.3364C178.916 82.0997 179.23 82.4156 179.23 83.038C179.23 83.6604 179.708 84.1702 180.294 84.1702C180.878 84.1702 181.712 84.8333 182.146 85.643C182.579 86.4528 183.244 86.9242 183.624 86.6896C184.003 86.455 184.314 86.6097 184.314 87.0324C184.314 87.455 184.559 87.763 184.858 87.7158C186.41 87.4703 187.129 87.9162 186.755 88.8909C186.525 89.49 186.688 89.9802 187.118 89.9802C187.548 89.9802 187.709 90.4748 187.478 91.0791C187.245 91.6833 187.417 92.6122 187.857 93.1431C188.298 93.674 188.416 94.3755 188.12 94.7023C187.824 95.0291 187.969 95.0749 188.442 94.8033C189.381 94.2651 193.155 97.6008 192.429 98.3263C192.184 98.5718 192.599 98.5355 193.352 98.2472C194.162 97.9363 194.544 98.0053 194.29 98.4164C194.055 98.7977 194.491 99.11 195.26 99.11C196.03 99.11 196.66 98.8536 196.66 98.5398C196.66 97.6081 197.928 97.8884 199.124 99.0845C199.737 99.6975 200.415 100.188 200.628 100.174C202.145 100.072 202.5 100.238 202.112 100.866C201.863 101.269 202.137 101.404 202.737 101.173C203.411 100.915 203.689 100.114 203.487 99.0032C203.312 98.0351 203.466 97.2428 203.83 97.2428C204.195 97.2428 204.699 96.7061 204.951 96.051C205.333 95.0538 205.227 95.0088 204.302 95.7765C203.566 96.3872 203.196 96.4265 203.196 95.8927C203.196 95.4526 204.044 94.8788 205.081 94.6188C206.497 94.2629 206.723 93.9833 205.989 93.4931C205.351 93.0675 205.678 92.9956 206.93 93.2854C208.106 93.5577 209.062 93.382 209.402 92.8322C209.789 92.2062 209.648 92.1132 208.937 92.5265C208.333 92.8765 208.164 92.8482 208.522 92.4568C208.855 92.0936 209.509 91.7813 209.974 91.7632C210.44 91.745 210.73 91.3056 210.618 90.7871C210.505 90.2685 210.832 89.9853 211.344 90.1574C211.855 90.3296 212.707 89.9519 213.236 89.3179C213.985 88.4188 214.078 88.405 213.656 89.254C213.293 89.9824 213.637 89.8851 214.691 88.9598C216.601 87.2851 216.669 86.9779 214.998 87.5749C214.299 87.824 214.629 87.2975 215.731 86.4042C216.833 85.5109 217.518 84.4288 217.253 83.9995C216.988 83.5703 217.102 83.4243 217.508 83.6749C217.913 83.9255 219.434 82.9414 220.888 81.4874C222.342 80.0335 223.531 79.1961 223.531 79.626C223.531 80.056 222.066 81.8048 220.275 83.5115C218.484 85.2182 217.174 86.7695 217.362 86.959C217.552 87.1478 218.496 86.516 219.461 85.5552C222.177 82.8484 223.531 81.8702 223.531 82.6138C223.531 82.9879 222.306 84.3162 220.808 85.5668C219.31 86.8174 217.419 88.4849 216.606 89.2736C215.793 90.0616 214.813 90.7116 214.428 90.7181C214.042 90.7246 212.621 91.7051 211.268 92.8969C209.915 94.0886 208.342 95.064 207.769 95.064C207.023 95.064 206.875 95.523 207.246 96.6923C207.708 98.1484 207.635 98.2145 206.552 97.3161C205.487 96.4323 205.402 96.4693 205.845 97.6226C206.191 98.5246 206.083 98.7701 205.498 98.4084C204.987 98.0925 204.649 98.3387 204.649 99.0257C204.649 99.935 205.242 99.7759 207.554 98.2457C209.151 97.1883 210.459 96.0001 210.459 95.6051C210.459 95.2092 210.952 95.2957 211.556 95.7968C212.528 96.6037 212.507 96.8259 211.374 97.7417C210.238 98.6604 210.298 98.6771 211.911 97.8964C212.91 97.4127 215.115 95.8847 216.813 94.5004C218.932 92.7734 219.9 92.3268 219.9 93.0777C219.9 93.679 219.055 94.7248 218.021 95.4017C216.988 96.0786 216.311 96.8005 216.516 97.0067C216.722 97.2123 219.61 95.186 222.934 92.5032C230.203 86.638 230.98 85.8958 228.615 87.0803C226.87 87.954 226.882 87.901 228.933 85.7164C230.107 84.4658 231.439 83.5246 231.895 83.6248C232.351 83.725 233.623 82.8266 234.722 81.6283C235.822 80.43 236.469 79.9398 236.16 80.5389C235.663 81.5034 235.75 81.5049 236.924 80.5513C238.204 79.5113 238.203 79.4619 236.882 79.0988C234.903 78.5555 234.888 77.0587 236.865 77.4371C237.888 77.6325 238.889 77.2497 239.518 76.4211C240.383 75.2823 240.382 75.222 239.51 75.9999C238.95 76.4995 238.005 76.9077 237.411 76.9077C236.613 76.9077 236.738 76.5271 237.889 75.4552C238.746 74.6563 239.808 74.0027 240.247 74.0027C240.687 74.0027 240.814 73.625 240.529 73.1638C240.177 72.5945 240.334 72.5255 241.018 72.9482C241.572 73.2909 242.584 73.6119 243.268 73.6621C244.269 73.7361 244.367 73.4863 243.775 72.3795C243.255 71.4092 243.298 70.6924 243.919 69.9444C244.404 69.3612 244.969 69.0533 245.176 69.2595C245.383 69.4665 246.012 68.9792 246.574 68.1759C247.137 67.3727 247.866 66.8818 248.194 67.0851C248.522 67.2877 249.331 66.629 249.992 65.6217C250.652 64.6137 251.505 63.9818 251.887 64.2179C252.607 64.6631 252.653 64.5578 252.939 61.8191C253.103 60.2416 253.032 60.2177 251.394 61.2911C250.417 61.9309 249.676 62.0856 249.676 61.6506C249.676 61.2293 250.249 60.6701 250.947 60.4079C251.646 60.145 252.628 59.4202 253.127 58.7964C253.921 57.808 253.974 57.8421 253.547 59.0593C253.157 60.1654 253.312 60.3578 254.288 59.9831C255.345 59.5778 255.409 59.7405 254.737 61.1284C254.032 62.5823 254.056 62.6187 254.974 61.4864C255.534 60.7936 256.223 60.4566 256.505 60.7377C256.786 61.0187 256.81 60.7122 256.558 60.0557C256.259 59.2772 256.624 58.5821 257.608 58.0556C258.613 57.5175 259.118 57.4993 259.118 57.9997C259.118 58.4129 258.791 58.7514 258.391 58.7514C257.992 58.7514 257.665 59.0978 257.665 59.5205C257.665 59.9431 257.969 60.1015 258.341 59.872C258.713 59.6417 259.222 59.7863 259.473 60.1922C259.724 60.5982 259.665 60.9308 259.342 60.9308C259.019 60.9316 258.812 65.0988 258.881 70.1906C259.028 80.881 259.14 82.0634 259.965 81.5535C260.298 81.348 260.57 81.6893 260.57 82.3117C260.57 82.9341 260.897 83.444 261.296 83.444C261.696 83.444 262.023 83.9197 262.023 84.5007C262.023 85.1325 263.042 85.7484 264.558 86.0323C265.952 86.2945 266.914 86.7992 266.694 87.1551C266.475 87.5102 266.641 87.8015 267.064 87.8015C267.486 87.8015 267.763 88.0469 267.679 88.3462C267.594 88.6454 267.976 89.7079 268.528 90.7065C269.079 91.7051 269.475 92.6855 269.408 92.8852C269.34 93.085 269.694 93.2629 270.193 93.281C270.693 93.2992 271.03 93.6769 270.942 94.1199C270.855 94.5622 271.264 95.3225 271.85 95.8099C272.504 96.3524 272.916 96.4025 272.916 95.9399C272.916 95.5244 272.582 95.019 272.172 94.8156C271.762 94.613 271.844 94.5324 272.354 94.6377C272.863 94.7423 273.3 95.6167 273.325 96.5804C273.35 97.5434 273.759 98.2508 274.233 98.1506C274.707 98.0511 275.095 98.4788 275.095 99.1012C275.095 99.7236 275.394 100.049 275.76 99.8231C276.125 99.5973 276.552 99.797 276.709 100.268C276.866 100.738 277.695 101.175 278.553 101.238C279.41 101.301 279.931 101.06 279.709 100.702C279.488 100.344 279.912 100.154 280.651 100.281C281.464 100.42 281.915 100.131 281.795 99.5493C281.685 99.0199 281.881 98.7635 282.228 98.9785C282.974 99.4389 286.954 95.4838 286.648 94.5869C286.532 94.2506 287.529 93.2397 288.863 92.3406C290.196 91.4422 290.831 90.7014 290.272 90.6956C289.414 90.6862 289.412 90.5866 290.258 90.0499C290.808 89.7013 291.025 89.0368 290.738 88.5735C290.349 87.9445 289.911 87.97 289.011 88.6737C287.925 89.5227 287.907 89.4871 288.827 88.3157C289.534 87.4144 290.081 87.2459 290.604 87.7688C291.127 88.2917 291.986 87.9242 293.395 86.5748C294.514 85.5022 295.43 85.0127 295.43 85.4869C295.43 85.9612 295.049 86.349 294.583 86.349C294.117 86.349 293.919 86.532 294.143 86.7557C294.814 87.4267 303.395 78.9143 302.909 78.0602C302.662 77.6259 302.719 77.5047 303.035 77.7901C303.75 78.4357 306.324 77.1234 306.324 76.1132C306.324 75.7043 305.946 75.6026 305.485 75.8873C304.983 76.1981 304.844 76.0877 305.138 75.612C305.407 75.1756 306.284 74.9446 307.085 75.0986C307.886 75.2533 308.382 75.1211 308.188 74.8059C307.992 74.4907 309.031 73.1188 310.496 71.7571C311.962 70.3961 312.685 69.9357 312.102 70.7345C311.118 72.0861 311.135 72.1159 312.349 71.163C313.066 70.5994 313.478 69.6836 313.265 69.1281C313.039 68.5383 313.197 68.3147 313.643 68.5906C314.064 68.8514 314.852 68.4599 315.392 67.7206C315.932 66.982 316.646 66.3494 316.977 66.3153C318.679 66.141 324.202 63.0057 325.406 61.53C326.165 60.6011 326.569 60.331 326.305 60.9301C325.922 61.8002 326.019 61.7878 326.787 60.8662C327.316 60.2322 328.202 59.8662 328.757 60.0528C329.43 60.2794 329.574 60.0819 329.19 59.4595C328.829 58.8763 328.903 58.7056 329.386 59.0048C330.362 59.6076 332.584 58.7986 332.101 58.0164C331.903 57.6961 332.446 57.6184 333.308 57.8443C334.296 58.1028 334.702 57.9735 334.406 57.4949C334.148 57.0781 334.342 56.7672 334.837 56.8043C335.332 56.8413 336.973 56.6031 338.483 56.2741C340.975 55.7316 341.109 55.5863 339.936 54.7083C338.746 53.8179 338.774 53.7729 340.276 54.1513C341.175 54.3779 341.91 54.8521 341.91 55.2051C341.91 55.5573 342.156 55.7643 342.455 55.6648C343.142 55.436 343.363 56.0969 343.363 58.3882C343.363 59.9315 343.008 60.2191 341.003 60.307C338.729 60.4065 338.75 60.429 341.547 60.9301C343.639 61.3049 343.944 61.4937 342.637 61.6041C341.638 61.6891 340.167 62.0558 339.369 62.4197C338.212 62.9462 338.391 63.0239 340.244 62.8002C343.82 62.3688 344.026 62.9121 344.987 75.2736C345.026 75.7733 345.656 76.1814 346.389 76.1814C347.121 76.1814 347.72 76.5308 347.72 76.9585C347.72 77.3856 348.456 77.6303 349.354 77.5032C350.756 77.3035 351.092 77.732 351.716 80.5172C352.395 83.5529 352.748 83.9211 357.162 86.2066C359.758 87.5502 361.8 88.7855 361.701 88.9519C361.601 89.1182 361.556 89.4995 361.6 89.7987C361.644 90.0979 361.652 91.1604 361.618 92.159C361.584 93.1576 361.737 93.5686 361.959 93.0726C362.228 92.472 362.768 92.3878 363.575 92.8192C364.242 93.1765 365.114 93.5222 365.514 93.5875C365.913 93.6529 366.149 94.1518 366.039 94.6951C365.751 96.1098 371.086 94.5883 372.022 92.9891C373.403 90.6288 373.041 89.8205 371.324 91.4327C370.064 92.6165 369.657 92.7443 369.778 91.9193C369.939 90.8241 371.725 88.8959 375.274 85.9858L377.045 84.5333L375.311 87.0273C374.136 88.7151 373.859 89.6149 374.452 89.8125C374.933 89.973 375.142 90.4029 374.916 90.7682C374.691 91.1335 374.64 91.4327 374.805 91.4327C375.24 91.4327 381.854 82.9269 381.854 82.3677C381.854 82.1077 382.995 80.6907 384.39 79.2193C385.785 77.748 386.929 76.1364 386.932 75.6367C386.935 75.1378 387.256 74.7289 387.645 74.7289C388.035 74.7289 388.902 73.6664 389.571 72.3686C390.242 71.0708 391.966 68.9632 393.403 67.6857C394.84 66.4082 396.534 64.8555 397.167 64.236C397.799 63.6158 398.659 63.1089 399.077 63.1089C400.088 63.1089 404.067 57.8631 403.76 56.9357C403.629 56.5363 403.763 56.452 404.06 56.7476C404.932 57.6206 406.427 55.9081 406.05 54.4672C405.806 53.5332 406.204 53.0103 407.396 52.6988C408.327 52.4555 409.089 52.295 409.089 52.3429C409.089 52.3908 410.509 51.7053 412.246 50.8192C413.982 49.9332 415.275 49.0813 415.119 48.9252C414.622 48.4277 411.631 49.4531 411.631 50.1213C411.631 50.4735 411.292 50.7626 410.879 50.7626C410.373 50.7626 410.384 50.2818 410.915 49.2897C411.349 48.48 412.014 48.0086 412.393 48.2432C412.773 48.4778 413.083 48.3042 413.083 47.8576C413.083 47.4109 413.465 47.2816 413.933 47.5707C414.485 47.912 414.637 47.7152 414.365 47.0086C414.12 46.3709 414.357 45.9206 414.936 45.9206C415.48 45.9206 415.756 46.193 415.55 46.5263C414.908 47.5663 417.094 47.1872 418.573 46.002C419.927 44.917 419.918 44.9039 418.349 45.6643C417.431 46.1087 416.714 46.161 416.714 45.7834C416.714 45.413 417.545 44.9017 418.56 44.6468C419.574 44.3919 420.223 43.8893 420.001 43.5291C419.778 43.1689 419.928 42.6692 420.334 42.4179C420.74 42.1674 421.077 42.3896 421.083 42.9125C421.092 43.6758 421.216 43.6707 421.713 42.8864C422.169 42.1659 422.458 42.4128 422.813 43.8247C423.336 45.9083 421.543 48.7211 420.824 46.9432C420.537 46.23 420.448 46.2315 420.403 46.9497C420.372 47.4494 419.548 47.8576 418.573 47.8576C417.598 47.8576 416.567 48.2352 416.282 48.6964C415.942 49.2469 416.113 49.3536 416.783 49.0065C417.345 48.716 416.497 49.6412 414.899 51.0625C413.301 52.4831 412.379 53.6509 412.85 53.6567C413.321 53.6625 414.138 53.2406 414.666 52.7191C415.727 51.6704 417.728 50.7873 420.053 50.3406C421.201 50.1198 421.916 50.6856 422.958 52.6356C424.32 55.1847 424.319 55.2377 422.93 56.261C422.155 56.8319 421.929 57.2989 422.429 57.2989C422.928 57.2989 423.131 57.6307 422.88 58.0367C422.629 58.4427 422.156 58.609 421.827 58.4057C421.498 58.203 421.056 59.0963 420.844 60.3912C420.632 61.6861 419.638 65.0196 418.637 67.7983C416.989 72.3679 416.734 75.5946 418.21 73.2074C418.533 72.6845 418.636 71.996 418.439 71.6772C418.242 71.3584 418.447 71.0977 418.893 71.0977C419.34 71.0977 419.502 70.7687 419.253 70.3656C418.991 69.9429 419.585 69.9916 420.662 70.4825C421.686 70.9488 422.524 71.6242 422.524 71.9837C422.524 72.3425 422.243 72.4623 421.899 72.2495C421.552 72.0352 421.538 73.227 421.868 74.9301C422.194 76.6172 422.475 78.2011 422.493 78.4502C422.554 79.3283 427.358 84.1702 428.168 84.1702C428.619 84.1702 429.326 84.7418 429.738 85.4412C430.391 86.5494 430.58 86.5727 431.215 85.6227C431.844 84.6808 431.945 84.6996 431.955 85.7614C431.972 87.6439 433.357 88.0825 434.893 86.6925C436.212 85.4978 436.262 85.5116 435.978 86.9844C435.521 89.3549 436.999 88.8146 438.094 86.2103C438.744 84.6648 439.156 84.2799 439.33 85.0548C439.542 85.996 439.833 85.8929 440.863 84.5108C441.777 83.2849 441.899 82.6589 441.296 82.2856C440.74 81.9421 440.655 82.088 441.044 82.7177C441.457 83.3866 441.35 83.4941 440.681 83.0808C440.012 82.6676 439.904 82.7751 440.318 83.444C440.715 84.0867 440.622 84.2196 440.032 83.8543C439.418 83.4759 439.383 83.0438 439.913 82.4047C440.329 81.9043 440.5 81.3262 440.294 81.1199C440.088 80.9144 440.499 80.2906 441.208 79.735C442.38 78.8148 442.406 78.8388 441.5 79.9943C440.618 81.1185 440.681 81.2652 442.045 81.2652C442.892 81.2652 443.586 80.9384 443.586 80.5389C443.586 80.1395 444.076 79.8127 444.675 79.8127C445.274 79.8127 445.765 79.5113 445.765 79.1424C445.765 78.1249 449.991 74.1138 450.513 74.636C450.764 74.8865 450.873 74.7652 450.755 74.3658C450.636 73.9664 450.961 72.8792 451.475 71.9503C452.349 70.3736 452.314 70.3133 450.952 71.0417C450.15 71.471 449.266 72.5429 448.986 73.4231C448.371 75.3608 446.593 77.2519 445.971 76.6302C445.429 76.0885 447.249 72.4848 447.871 72.8668C448.11 73.0142 449.123 72.0316 450.122 70.6837C451.121 69.3358 452.202 68.2239 452.525 68.213C452.848 68.2014 452.925 68.4969 452.695 68.8688C452.139 69.7686 453.54 70.5893 454.557 69.9604C455.13 69.6059 455.106 69.306 454.472 68.9138C453.814 68.5078 454.013 67.783 455.236 66.1286C456.146 64.8984 457.164 64.0617 457.5 64.2694C457.836 64.4771 458.111 64.3007 458.111 63.878C458.111 63.4553 458.438 63.1089 458.837 63.1089C460.169 63.1089 459.584 64.6921 458.111 65.077C457.312 65.2862 456.658 65.719 456.658 66.0393C456.658 66.3596 456.464 67.2202 456.227 67.9515C455.898 68.9639 455.966 69.0431 456.509 68.2812C456.922 67.7017 457.609 67.5194 458.142 67.8484C458.723 68.2079 458.881 68.1244 458.57 67.6218C458.3 67.1846 458.801 66.1533 459.684 65.3312C461.842 63.3202 463.042 63.4219 461.315 65.4692C460.044 66.9762 460.09 66.9682 461.906 65.3639C462.99 64.4067 463.71 63.3551 463.507 63.0268C463.304 62.6985 463.805 62.0137 464.619 61.5053C466.311 60.4486 466.631 59.1181 465.047 59.726C464.308 60.01 464.129 59.7812 464.445 58.9583C464.742 58.1834 464.609 57.9626 464.052 58.3069C463.502 58.6475 463.362 58.4347 463.647 57.6918C463.978 56.829 463.758 56.6721 462.731 57.0396C460.489 57.8414 460.243 58.089 460.802 58.983C461.81 60.596 461.627 61.5663 460.399 61.1073C459.318 60.7021 459.307 60.7965 460.29 62.0653C461.309 63.3827 461.294 63.4052 460.043 62.4211C458.841 61.4755 458.821 61.2853 459.849 60.5336C460.478 60.0731 460.783 59.4871 460.526 59.2307C460.27 58.9736 459.651 59.1036 459.15 59.519C458.52 60.0426 458.096 60.0405 457.77 59.5132C457.511 59.0942 457.482 58.7107 457.705 58.6606C457.928 58.6105 458.356 58.5204 458.656 58.4601C460.249 58.1391 466.023 53.6676 464.844 53.6676C464.496 53.6676 463.771 54.0765 463.233 54.5754C462.45 55.3024 462.359 55.3002 462.774 54.5652C463.06 54.0598 464.66 52.9551 466.331 52.1105C468.001 51.2651 469.633 50.1191 469.957 49.5635C470.281 49.0079 470.935 48.7864 471.409 49.0711C472.051 49.456 472.046 49.3086 471.391 48.4988C470.68 47.6201 470.777 47.18 471.891 46.2264C472.65 45.5764 473.379 45.3651 473.51 45.7572C473.64 46.1487 474.454 46.5227 475.32 46.5881C476.185 46.6534 476.719 46.9875 476.507 47.3318C476.294 47.6753 475.646 47.7748 475.067 47.5525C474.474 47.3252 474.208 47.4647 474.46 47.8714C474.706 48.2686 474.369 48.801 473.711 49.053C472.743 49.4241 472.7 49.6441 473.483 50.2005C474.185 50.6994 474.027 50.7967 472.911 50.5549C471.95 50.3464 471.003 50.7321 470.39 51.5811C469.851 52.3291 468.883 52.9413 468.239 52.9413C467.595 52.9413 467.068 53.4141 467.068 53.9915C467.068 54.7846 467.394 54.8674 468.4 54.3292C469.132 53.937 469.731 53.7751 469.731 53.9683C469.731 54.1614 471.757 53.3146 474.234 52.0858C479.563 49.4415 482.803 48.411 482.803 49.3609C482.803 49.732 482.13 50.0363 481.308 50.0363C480.486 50.0363 480.007 50.3508 480.244 50.735C480.506 51.1577 481.335 51.1831 482.345 50.7989C483.612 50.3174 484.014 50.4191 484.014 51.2208C484.014 51.8033 483.579 52.1105 483.045 51.9057C481.771 51.4169 481.803 52.5354 483.093 53.6066C483.816 54.2065 484.078 55.993 484.001 59.7921C483.903 64.6209 484.021 65.1097 485.231 64.8766C486.14 64.7015 486.442 64.9463 486.175 65.6428C485.917 66.316 486.141 66.5288 486.831 66.2637C487.407 66.0429 487.705 65.4874 487.493 65.0298C487.281 64.5723 487.506 64.7386 487.993 65.3988C488.794 66.4816 489.044 66.491 490.563 65.4968C492.216 64.4132 492.245 64.4408 492.245 67.0452C492.245 69.4774 492.365 69.6314 493.707 68.9131C494.832 68.3118 495.126 68.3481 494.978 69.0692C494.873 69.5856 494.296 70.2305 493.697 70.5021C492.959 70.8362 493.213 71.012 494.482 71.0468C496.138 71.0918 496.346 71.386 496.273 73.5851C496.228 74.9533 496.446 75.9149 496.759 75.721C497.072 75.5278 497.329 75.7704 497.329 76.2599C497.329 76.7494 497.531 76.9476 497.778 76.7C498.026 76.453 498.647 76.6702 499.161 77.1837C500.289 78.3123 505.785 78.6398 506.418 77.6151C506.667 77.2134 507.174 77.0718 507.546 77.302C507.918 77.5315 508.222 76.9963 508.222 76.1117C508.222 74.5278 508.198 74.5241 506.588 75.8568C505.69 76.6005 506.168 75.9323 507.654 74.3716C509.138 72.8102 510.599 71.7796 510.901 72.081C511.202 72.3824 511.107 72.8566 510.69 73.1341C510.273 73.4122 509.707 74.2481 509.432 74.9911C509.035 76.0652 509.192 76.2439 510.194 75.859C511.13 75.5002 511.01 75.8488 509.734 77.2084C508.787 78.2164 507.752 78.8816 507.435 78.6855C507.118 78.4902 506.594 78.7785 506.269 79.3276C505.945 79.8766 505.19 80.5113 504.591 80.7379C503.805 81.0357 503.905 81.165 504.954 81.2027C506.694 81.2659 510.079 79.1438 511.52 77.0856C512.435 75.7798 512.418 75.5481 511.381 75.1509C510.312 74.7405 510.322 74.5677 511.489 73.2786C512.196 72.4972 513.083 72.0491 513.461 72.2829C513.839 72.5168 514.621 72.0323 515.199 71.2066C515.799 70.3518 516.711 69.8826 517.32 70.1165C518.605 70.6089 518.665 70.0787 517.566 67.9632C517.112 67.0909 517 66.6196 517.317 66.9152C518.072 67.6211 519.951 66.0517 519.407 65.17C519.163 64.7756 518.481 64.8867 517.781 65.4336C516.716 66.2666 516.685 66.2354 517.518 65.1707C518.088 64.4408 518.184 63.7937 517.761 63.5323C517.376 63.2941 516.896 63.5105 516.693 64.0123C516.43 64.6652 516.309 64.6783 516.268 64.0595C516.175 62.6622 517.426 62.3107 518.384 63.4647C519.462 64.7633 522.373 63.5693 521.553 62.1647C521.274 61.6854 521.776 61.9352 522.67 62.7203C524.19 64.0537 524.214 64.2077 523.036 65.0683C522.154 65.7139 521.505 65.7633 520.868 65.2346C519.686 64.2542 519.9 66.1482 521.139 67.6414C521.617 68.2181 521.776 68.9218 521.492 69.2058C521.208 69.4897 521.564 69.4963 522.283 69.2203C523.113 68.9022 523.461 68.2246 523.237 67.3669C523.043 66.6232 523.18 65.8323 523.542 65.6086C523.904 65.385 524.2 65.5193 524.2 65.9079C524.2 66.9239 528.393 65.2303 530.35 63.4233C531.245 62.5983 533.168 61.3572 534.625 60.6658C536.081 59.9751 537.272 59.1079 537.272 58.7397C537.272 58.3723 537.701 58.235 538.224 58.4362C538.747 58.6366 540.323 58.0222 541.726 57.0701C543.129 56.118 545.642 54.7366 547.311 54.0002C548.98 53.2645 550.345 52.4359 550.345 52.1606C550.345 51.6675 547.017 52.669 542.719 54.4556C540.294 55.4636 539.797 55.6241 538.682 55.7556C538.259 55.8057 538.078 56.1129 538.28 56.4397C538.481 56.7658 537.683 57.601 536.507 58.296C535.33 58.991 534.367 59.3556 534.367 59.1058C534.367 58.8567 533.387 59.3505 532.189 60.2039C530.99 61.0572 530.01 61.5511 530.01 61.302C530.01 61.0529 529.191 61.766 528.191 62.8866C527.191 64.0073 526.551 64.4067 526.77 63.7749C527.02 63.0508 526.753 62.6245 526.047 62.6245C525.43 62.6245 524.926 62.9368 524.926 63.3188C524.926 63.7008 524.436 63.6064 523.837 63.1089C522.502 62.0006 522.333 60.4428 523.655 61.4305C525.217 62.5969 526.247 62.1248 530.032 58.5088C533.072 55.6052 533.894 55.152 534.781 55.8885C535.372 56.3787 536.065 56.5697 536.322 56.3133C536.578 56.0562 536.388 55.8463 535.898 55.8463C535.409 55.8463 535.211 55.5166 535.46 55.1143C535.71 54.7119 536.735 54.5311 537.739 54.7134C539.252 54.9879 539.419 54.8674 538.71 54.0133C538.043 53.2093 538.099 52.7373 538.964 51.8723C539.575 51.2622 540.56 50.7626 541.156 50.7626C543.093 50.7626 544.538 49.9027 544.028 49.0522C543.754 48.5947 544.09 48.6753 544.775 49.2316C545.848 50.1017 546.421 50.0617 548.909 48.9397C550.497 48.2229 551.797 47.4225 551.797 47.1596C551.797 46.6585 560.574 43.8762 564.801 43.0374C566.508 42.699 567.123 42.7927 566.784 43.3403C566.447 43.8857 566.922 43.9641 568.306 43.5916C572.244 42.5305 573.228 43.3911 572.897 47.6063C572.828 48.4669 573.119 49.3856 573.542 49.647C573.965 49.9078 574.306 50.5113 574.3 50.987C574.293 51.507 574.008 51.4169 573.585 50.7626C573.002 49.8606 572.881 49.9223 572.878 51.1257C572.872 53.9218 573.781 58.0251 574.406 58.0251C574.754 58.0251 575.061 57.4535 575.088 56.7542C575.132 55.6749 575.228 55.7025 575.724 56.9357C576.046 57.7346 576.176 58.6192 576.013 58.901C575.85 59.1828 576.627 59.9925 577.738 60.6999C580.104 62.2061 580.89 63.1779 580.394 63.9818C580.197 64.3007 580.79 64.5665 581.713 64.5723C582.713 64.5788 583.05 64.7996 582.548 65.1191C581.944 65.5041 582.079 66.1156 583.027 67.287C584.48 69.0809 585.899 69.428 585.989 68.0111C586.02 67.5121 586.375 68.0038 586.777 69.1048C587.179 70.2058 587.807 70.9219 588.172 70.696C588.537 70.4702 588.836 71.7491 588.836 73.5371C588.836 78.8882 590.13 80.645 591.789 77.5461C592.242 76.6992 592.311 76.1923 591.943 76.4204C591.574 76.6484 591.296 75.7217 591.325 74.3607L591.378 71.8878L592.991 73.7594C594.738 75.7878 594.361 77.6354 591.92 79.0007C591.229 79.3871 590.899 79.9383 591.185 80.2245C591.472 80.5113 592.255 80.2906 592.925 79.735C593.595 79.1787 594.338 78.7233 594.577 78.7233C594.815 78.7233 594.946 78.5338 594.869 78.3021C594.616 77.5432 614.288 58.686 614.923 59.0789C615.264 59.2895 615.959 58.9605 616.467 58.3483C617.929 56.5864 628.784 49.3101 629.95 49.3101C630.531 49.3101 631.192 48.822 631.421 48.225C631.65 47.6281 632.13 47.3201 632.488 47.5416C632.845 47.7624 633.138 47.578 633.138 47.1313C633.138 46.6847 633.438 46.5053 633.805 46.7319C634.173 46.9592 634.924 46.6948 635.473 46.1443C636.641 44.9772 638.789 44.2241 642.06 43.8341C643.344 43.6816 645.539 43.2844 646.937 42.9525C651.61 41.8413 651.679 41.9117 651.444 47.5075C651.328 50.2963 651.424 53.6407 651.659 54.9385C652.026 56.9655 652.386 57.2989 654.209 57.2989C655.798 57.2989 656.227 57.5726 655.915 58.3882C655.624 59.1443 655.965 59.4776 657.026 59.4776C657.868 59.4776 658.597 59.9678 658.647 60.567C658.816 62.5918 658.918 62.8474 660.009 63.9927C660.608 64.6217 661.896 66.1315 662.871 67.348C664.518 69.4026 666.465 69.8855 665.343 67.961C665.068 67.4889 665.497 67.6748 666.296 68.3742C667.095 69.0736 668.151 69.6452 668.643 69.6452C669.134 69.6452 669.314 70.0047 669.042 70.444C668.742 70.9306 669.221 70.8776 670.27 70.3068C671.217 69.7926 672.629 69.3191 673.407 69.2559C674.186 69.1927 676.391 67.4337 678.309 65.3479C680.227 63.2621 681.797 61.7813 681.797 62.058C681.797 63.5032 684.086 60.3658 684.821 57.9147C685.591 55.3452 685.87 55.1027 687.726 55.3953C688.855 55.5733 689.994 55.3699 690.258 54.9443C690.538 54.4897 690.393 54.3815 689.906 54.6822C689.38 55.0075 689.225 54.8071 689.483 54.1338C689.795 53.3212 690.406 53.2202 692.092 53.7046C693.984 54.2464 694.349 54.1266 694.683 52.8513C694.981 51.7082 695.218 51.5891 695.71 52.3349C696.224 53.1156 696.54 53.0546 697.329 52.0255C698.193 50.8977 698.416 50.8751 699.214 51.836C700.686 53.6102 699.507 57.9547 697.328 58.7826C696.328 59.1631 695.71 59.8022 695.958 60.2024C696.205 60.6026 696.571 60.9301 696.771 60.9301C696.97 60.9301 696.971 60.6672 696.773 60.3462C696.575 60.0252 697.37 59.3999 698.543 58.9576C699.823 58.4747 700.839 58.4224 701.09 58.8276C701.318 59.198 701.81 59.3135 702.182 59.0833C702.554 58.8538 702.858 59.0099 702.858 59.4311C702.858 59.8894 703.819 60.0434 705.256 59.8146C707.465 59.4638 707.734 59.6388 708.673 62.0326C710.056 65.5563 711.545 66.7721 711.657 64.4684C711.731 62.9723 711.79 62.9368 712.105 64.1983C712.57 66.0618 713.917 66.9137 714.629 65.7938C714.996 65.2179 715.186 65.3828 715.193 66.284C715.202 67.3749 715.408 67.4751 716.233 66.791C717.053 66.1098 717.356 66.2369 717.732 67.4214C717.991 68.2377 718.018 69.2065 717.791 69.5733C717.203 70.5246 718.131 72.6221 718.923 72.1326C719.287 71.9074 719.398 71.4194 719.168 71.0475C718.778 70.4164 719.835 70.0504 721.285 70.3148C721.634 70.3787 721.691 69.8456 721.413 69.1302C721.134 68.4149 720.886 63.5076 720.86 58.2256C720.836 52.9435 720.543 48.7893 720.21 48.9949C719.878 49.2004 719.107 48.2933 718.496 46.9788C717.886 45.665 716.735 43.609 715.94 42.4107C715.145 41.2124 714.292 39.8238 714.045 39.3241C713.798 38.8252 713.141 38.4163 712.585 38.4163C712.028 38.4163 711.573 38.0699 711.573 37.6472C711.573 37.2245 711.951 37.1112 712.412 37.3959C712.943 37.7249 713.052 37.5949 712.71 37.0408C712.296 36.3719 711.93 36.3661 711.145 37.0175C710.376 37.6559 710.121 37.6588 710.121 37.0284C710.121 36.5665 709.124 35.2142 707.906 34.0232C706.598 32.745 705.902 31.4907 706.207 30.9613C706.49 30.4682 706.473 30.2888 706.168 30.5626C705.863 30.8371 704.912 30.2488 704.054 29.2561C700.554 25.2043 688.121 28.2378 675.549 36.2106C673.074 37.7808 671.615 38.258 670.303 37.929C668.8 37.5513 668.567 37.6864 668.959 38.7082C669.222 39.3938 669.135 39.7591 668.762 39.5289C668.392 39.3009 668.077 38.5485 668.06 37.8571C667.993 34.9934 667.469 33.1851 666.314 31.8379C665.643 31.0528 665.093 30.0876 665.093 29.6933C665.093 29.2982 664.766 28.975 664.367 28.975C663.967 28.975 663.64 28.492 663.64 27.9023C663.64 27.3126 662.856 26.3162 661.897 25.688C660.939 25.0598 659.284 23.2303 658.22 21.6224C657.156 20.0138 655.407 18.3129 654.334 17.8423C653.262 17.3716 651.566 16.4471 650.568 15.7884C648.579 14.4746 643.576 13.5697 641.853 14.211ZM558.137 21.4249C557.896 21.666 557.269 21.6921 556.745 21.4822C556.166 21.2506 556.338 21.0784 557.184 21.0436C557.95 21.0124 558.378 21.1837 558.137 21.4249ZM558.511 29.4572C558.009 29.6598 557.754 30.0767 557.944 30.3846C558.134 30.6926 557.41 30.7761 556.335 30.5706C554.574 30.2336 554.522 30.1406 555.812 29.6366C556.6 29.3287 557.735 29.0796 558.334 29.0832C559.071 29.0876 559.128 29.2088 558.511 29.4572ZM553.976 31.1537C553.976 31.5532 553.832 31.88 553.656 31.88C553.479 31.88 553.134 31.5532 552.887 31.1537C552.64 30.7543 552.784 30.4275 553.207 30.4275C553.63 30.4275 553.976 30.7543 553.976 31.1537ZM437.776 32.1654C437.776 32.3223 438.283 32.6455 438.903 32.8837C439.549 33.1313 439.841 33.0093 439.586 32.5983C439.16 31.9076 437.776 31.5772 437.776 32.1654ZM263.278 37.4024C263.037 37.6435 262.41 37.6697 261.887 37.4598C261.307 37.2281 261.479 37.056 262.325 37.0211C263.091 36.9899 263.519 37.1613 263.278 37.4024ZM569.586 37.682C569.84 38.0931 569.549 38.2151 568.902 37.9675C567.644 37.4845 567.414 36.9638 568.458 36.9638C568.835 36.9638 569.342 37.287 569.586 37.682ZM652.02 39.0605C652.02 40.8369 651.686 41.2058 649.828 41.4782C648.562 41.6641 647.309 41.407 646.863 40.8696C646.438 40.3583 644.992 40.0257 643.65 40.1317C642.307 40.2377 641.39 40.03 641.612 39.6698C641.835 39.3103 642.634 39.1774 643.387 39.3742C644.141 39.5717 644.758 39.4461 644.758 39.0953C644.758 38.4373 648.506 37.1446 650.749 37.0291C651.681 36.9812 652.02 37.523 652.02 39.0605ZM563.054 38.4163C563.301 38.8157 562.975 39.1425 562.328 39.1425C561.682 39.1425 561.355 38.8157 561.602 38.4163C561.849 38.0168 562.176 37.69 562.328 37.69C562.481 37.69 562.807 38.0168 563.054 38.4163ZM563.418 41.0301C556.139 43.0062 554.864 43.1391 558.334 41.561C559.732 40.9255 561.465 40.4287 562.186 40.4578C562.906 40.4868 563.651 40.1063 563.84 39.6117C564.062 39.0343 565.152 38.8273 566.888 39.0336C569.392 39.3314 569.138 39.4773 563.418 41.0301ZM647.481 40.3496C647.981 40.5515 648.798 40.5515 649.297 40.3496C649.797 40.1484 649.388 39.9835 648.389 39.9835C647.391 39.9835 646.982 40.1484 647.481 40.3496ZM391.256 44.5473C389.55 46.368 387.663 47.8576 387.062 47.8576C386.461 47.8576 386.168 48.0551 386.409 48.2969C386.65 48.5388 386.057 49.4698 385.09 50.3668C384.122 51.263 383.57 52.2361 383.863 52.5295C384.157 52.8222 384.028 52.9537 383.577 52.82C383.127 52.6871 381.743 53.7221 380.502 55.1201C379.207 56.5791 378.241 57.2146 378.235 56.6125C378.228 56.0352 379.121 54.5957 380.22 53.4134C381.319 52.2311 381.809 51.4975 381.31 51.7822C379.656 52.7264 380.364 51.5716 383.488 48.2294C385.186 46.413 387.379 44.7753 388.362 44.5894C389.345 44.4028 390.962 43.4383 391.954 42.4448C395.091 39.3088 394.501 41.086 391.256 44.5473ZM640.34 40.8006C640.174 40.9139 639.384 41.4854 638.585 42.0715C637.241 43.057 637.207 43.0418 638.129 41.866C638.677 41.1666 639.467 40.595 639.884 40.595C640.301 40.595 640.506 40.6873 640.34 40.8006ZM477.72 43.8203C477.72 44.5865 476.326 44.909 475.911 44.2379C475.661 43.8319 475.965 43.5 476.587 43.5C477.21 43.5 477.72 43.6438 477.72 43.8203ZM258.391 46.4051C257.792 46.7922 256.812 47.1088 256.213 47.1088C255.244 47.1088 255.244 47.0311 256.213 46.4051C256.812 46.018 257.792 45.7013 258.391 45.7013C259.359 45.7013 259.359 45.779 258.391 46.4051ZM382.581 45.9294C382.581 46.0674 381.845 46.8023 380.946 47.5634L379.312 48.9469L380.696 47.3129C381.996 45.7776 382.581 45.3484 382.581 45.9294ZM471.91 47.1313C470.979 47.7326 471.005 47.8372 472.091 47.8467C472.79 47.8525 473.362 47.5307 473.362 47.1313C473.362 46.2453 473.28 46.2453 471.91 47.1313ZM557.608 47.1415C556.841 47.644 557.272 47.7174 559.06 47.3891C562.192 46.8147 562.783 46.4014 560.452 46.416C559.486 46.4225 558.207 46.7486 557.608 47.1415ZM623.292 48.8874C622.517 49.4539 621.728 49.7633 621.54 49.5744C621.14 49.175 623.013 47.8852 624.017 47.8685C624.393 47.8626 624.066 48.3209 623.292 48.8874ZM164.16 49.7909C163.661 49.9927 162.844 49.9927 162.344 49.7909C161.845 49.5897 162.254 49.4248 163.252 49.4248C164.251 49.4248 164.66 49.5897 164.16 49.7909ZM620.792 50.0363C620.792 50.4358 620.445 50.7626 620.022 50.7626C619.6 50.7626 619.455 50.4358 619.702 50.0363C619.949 49.6369 620.295 49.3101 620.471 49.3101C620.648 49.3101 620.792 49.6369 620.792 50.0363ZM312.566 50.8751C312.869 51.3646 312.767 51.5172 312.322 51.2419C311.903 50.9826 311.355 51.3058 311.103 51.9602C310.853 52.6138 310.445 52.9471 310.198 52.6995C309.951 52.4526 310.162 51.7517 310.667 51.1431C311.769 49.8155 311.9 49.7967 312.566 50.8751ZM425.014 50.6936C424.373 51.3349 422.524 51.3719 422.524 50.7437C422.524 50.4045 423.164 50.175 423.946 50.2339C424.727 50.2927 425.208 50.4997 425.014 50.6936ZM465.373 50.6573C465.373 50.9986 463.903 52.2078 462.105 53.3437C460.308 54.4803 458.837 55.6909 458.837 56.0337C458.837 56.3772 459.215 56.4252 459.676 56.1405C460.195 55.8187 460.317 55.9408 459.995 56.46C459.255 57.6591 457.616 57.4957 457.107 56.1717C456.86 55.5253 456.982 55.2341 457.393 55.4883C457.788 55.7323 458.111 55.4222 458.111 54.7998C458.111 54.1774 458.574 53.6676 459.14 53.6676C459.706 53.6676 460.277 53.3916 460.411 53.0539C460.596 52.5847 463.33 50.9035 465.192 50.1133C465.292 50.0712 465.373 50.3159 465.373 50.6573ZM532.915 50.3217C532.915 50.4786 532.408 50.8018 531.788 51.04C531.141 51.2877 530.85 51.1656 531.104 50.7546C531.531 50.0639 532.915 49.7335 532.915 50.3217ZM545.067 50.8526C545.56 51.3494 546.147 51.5723 546.369 51.3487C546.593 51.125 546.19 50.719 545.474 50.4459C544.439 50.0523 544.356 50.1351 545.067 50.8526ZM547.44 50.8054C547.44 51.2281 547.767 51.3726 548.166 51.1257C548.566 50.8788 548.892 50.5331 548.892 50.3566C548.892 50.1801 548.566 50.0363 548.166 50.0363C547.767 50.0363 547.44 50.3827 547.44 50.8054ZM378.311 51.9449C377.182 52.7351 376.9 53.2987 377.457 53.6429C378.068 54.0205 378.03 54.3764 377.317 54.9683C376.543 55.6096 376.348 55.4026 376.374 53.9697C376.406 52.2579 377.739 50.7982 379.293 50.7735C379.681 50.7677 379.239 51.2949 378.311 51.9449ZM611.35 51.0371C611.35 51.1874 610.778 51.7597 610.079 52.308C608.927 53.2108 608.902 53.1854 609.805 52.0335C610.754 50.8236 611.35 50.4394 611.35 51.0371ZM618.019 52.3727C616.655 53.7366 617.023 54.725 618.476 53.5986C619.2 53.0372 618.343 53.9131 616.571 55.5435C613.532 58.3418 611.35 59.3106 611.35 57.861C611.35 57.5051 610.973 57.4463 610.511 57.731C609.988 58.0549 609.871 57.93 610.199 57.3991C610.488 56.9314 610.981 56.7077 611.295 56.9016C611.609 57.0955 612.614 56.4571 613.529 55.4832C614.444 54.5093 615.528 53.9196 615.937 54.1723C616.388 54.4512 616.499 54.1571 616.217 53.4236C615.914 52.6341 616.123 52.2151 616.82 52.2151C617.406 52.2151 617.886 51.8338 617.886 51.3675C617.886 50.902 618.11 50.7437 618.383 51.0168C618.656 51.2898 618.492 51.8999 618.019 52.3727ZM477.357 52.2151C476.789 53.1345 477.75 53.1345 479.172 52.2151C480.111 51.6087 480.092 51.5099 479.033 51.4997C478.358 51.4939 477.603 51.8156 477.357 52.2151ZM256.462 54.3299C255.784 55.1215 254.772 55.5406 254.109 55.3038C253.468 55.0758 253.193 55.1615 253.496 55.4948C254.384 56.4716 251.051 59.5909 250.028 58.7412C249.384 58.2074 249.195 58.6628 249.287 60.522C249.356 61.896 249.103 62.9585 248.727 62.883C248.35 62.8075 247.893 63.1546 247.709 63.6543C247.27 64.8512 249.82 63.9448 250.62 62.6187C250.94 62.0892 251.594 61.6665 252.073 61.6796C252.552 61.692 251.964 62.5678 250.766 63.6252C249.567 64.6827 248.696 65.8984 248.828 66.3255C248.961 66.7532 248.286 66.3683 247.329 65.4692C246.372 64.5708 245.245 63.8351 244.825 63.8351C243.472 63.8351 240.206 66.8317 240.695 67.6233C240.982 68.0873 241.696 67.7061 242.502 66.6573C243.234 65.7045 243.842 65.3334 243.85 65.8323C243.859 66.332 244.213 66.7401 244.635 66.7401C245.058 66.7401 245.205 66.417 244.961 66.0219C244.707 65.6108 244.997 65.4881 245.64 65.735C247.229 66.3451 246.37 67.3408 243.649 68.0459C242.37 68.3771 241.319 68.9545 241.313 69.3285C241.292 70.6554 240.233 71.6547 238.496 71.9866C237.146 72.2451 236.835 72.0665 237.159 71.2211C237.48 70.3867 237.243 70.2385 236.185 70.6103C234.85 71.0795 234.847 71.0555 236.108 70.0765C236.833 69.5122 237.437 68.7766 237.451 68.4403C237.464 68.104 237.76 67.908 238.107 68.0038C238.694 68.1658 240.515 65.5346 240.573 64.4401C240.587 64.1743 240.896 63.6841 241.259 63.3507C241.643 62.9992 241.701 63.1263 241.398 63.6536C240.51 65.1969 242.082 64.6572 244.298 62.6579C245.885 61.2257 246.049 60.8771 244.956 61.2482C243.847 61.6251 243.704 61.5409 244.348 60.8909C245.533 59.6962 247.105 60.742 246.045 62.0195C245.537 62.6317 245.506 63.1387 245.959 63.419C246.351 63.6608 246.93 63.4451 247.246 62.9389C247.805 62.0435 247.952 61.5649 248.477 58.9329C248.629 58.1718 249.4 57.6554 250.397 57.6453C251.471 57.6351 252.287 57.0258 252.69 55.9357C253.074 54.8986 253.714 54.3946 254.342 54.635C254.905 54.8514 255.547 54.5587 255.767 53.985C255.987 53.4112 256.501 52.9413 256.909 52.9413C257.317 52.9413 257.116 53.5659 256.462 54.3299ZM408.103 53.5877C407.498 53.9719 407.398 54.3851 407.845 54.6618C408.246 54.9095 408.761 54.6233 408.99 54.0264C409.471 52.7721 409.426 52.7503 408.103 53.5877ZM474.815 53.6676C474.16 54.0903 474.07 54.3757 474.59 54.3829C475.066 54.3888 475.657 54.067 475.904 53.6676C476.461 52.7656 476.21 52.7656 474.815 53.6676ZM478.851 53.6C478.627 53.9617 479.098 54.0874 479.898 53.8782C481.594 53.4345 481.808 52.9413 480.304 52.9413C479.729 52.9413 479.075 53.2376 478.851 53.6ZM595.373 53.2159C595.373 53.3662 594.8 53.9385 594.102 54.4868C592.95 55.3895 592.924 55.3641 593.827 54.2123C594.776 53.0023 595.373 52.6181 595.373 53.2159ZM303.419 53.9421C303.419 54.0924 302.847 54.6647 302.148 55.2131C300.996 56.1158 300.971 56.0904 301.874 54.9385C302.823 53.7286 303.419 53.3444 303.419 53.9421ZM384.759 53.8949C384.759 54.0198 383.698 55.0823 382.399 56.2552L380.039 58.3882L382.172 56.0279C384.16 53.8281 384.759 53.3335 384.759 53.8949ZM165.063 55.1121C165.317 55.5232 165.026 55.6452 164.379 55.3975C163.121 54.9146 162.891 54.3938 163.936 54.3938C164.312 54.3938 164.819 54.717 165.063 55.1121ZM472.416 55.4055C472.119 56.1615 472.047 56.9517 472.255 57.1609C472.918 57.8232 473.501 56.7375 473.223 55.3583C472.969 54.0946 472.93 54.0968 472.416 55.4055ZM479.277 54.964C478.82 55.1165 478.446 55.606 478.446 56.0519C478.446 56.6467 478.663 56.6459 479.261 56.0482C479.709 55.6001 480.493 55.3939 481.003 55.5893C481.513 55.7853 482.134 55.6161 482.382 55.2138C482.814 54.5158 481.047 54.3742 479.277 54.964ZM607.719 54.6146C607.719 54.7359 606.508 55.9611 605.027 57.3381C603.547 58.7143 602.811 59.1871 603.392 58.3882C605.02 56.1492 607.719 53.7954 607.719 54.6146ZM614.618 55.1201C614.371 55.5195 614.516 55.8463 614.939 55.8463C615.361 55.8463 615.708 55.5195 615.708 55.1201C615.708 54.7207 615.564 54.3938 615.387 54.3938C615.211 54.3938 614.865 54.7207 614.618 55.1201ZM162.058 56.0156C161.836 56.3751 161.472 56.4869 161.249 56.2639C161.026 56.041 160.324 56.2647 159.688 56.7607C158.692 57.5371 158.656 57.5029 159.428 56.5123C160.358 55.3184 162.771 54.863 162.058 56.0156ZM313.876 57.2015C312.318 58.3461 310.916 59.1711 310.759 59.0346C310.262 58.601 312.39 56.4332 313.924 55.8115C316.717 54.6793 316.702 55.1237 313.876 57.2015ZM470.677 55.6953C470.171 56.017 470.053 56.6445 470.395 57.1979C470.83 57.9024 471.085 57.7564 471.378 56.6343C471.595 55.8013 471.722 55.1252 471.66 55.131C471.597 55.1375 471.155 55.391 470.677 55.6953ZM141.465 56.0882C141.465 56.6975 135.428 61.095 134.338 61.2794C133.664 61.3927 133.185 61.8212 133.272 62.2301C133.359 62.639 132.869 62.8656 132.182 62.7334C131.496 62.602 130.802 62.4691 130.64 62.4385C130.042 62.3253 133.145 59.32 134.557 58.6439C135.992 57.9568 135.993 57.9648 134.608 59.0745C133.212 60.1922 133.212 60.2039 134.608 60.1741C135.383 60.1581 137.149 59.1777 138.532 57.9953C140.979 55.9044 141.465 55.5885 141.465 56.0882ZM299.536 57.1761C298.873 57.9075 298.578 58.7768 298.878 59.1079C299.179 59.4398 299.053 59.4979 298.599 59.2387C298.145 58.9794 297.37 59.2539 296.876 59.8487C296.382 60.4435 296.255 60.9301 296.592 60.9301C296.93 60.9301 296.398 61.4995 295.411 62.1952C294.423 62.891 293.363 63.379 293.054 63.2795C292.745 63.18 292.182 63.9179 291.801 64.9194C291.028 66.9529 290.133 67.4678 290.845 65.4692C291.541 63.5156 292.621 62.3565 293.334 62.7966C293.688 63.0152 293.978 62.8859 293.978 62.509C293.978 62.1321 295.363 60.4784 297.057 58.8349C300.199 55.7853 301.709 54.7751 299.536 57.1761ZM373.866 56.5726C373.866 56.972 373.722 57.2989 373.545 57.2989C373.369 57.2989 373.023 56.972 372.776 56.5726C372.529 56.1732 372.674 55.8463 373.096 55.8463C373.519 55.8463 373.866 56.1732 373.866 56.5726ZM465.042 56.5225C464.811 56.8943 464.922 57.3824 465.286 57.6075C465.649 57.8326 466.135 57.5283 466.364 56.9314C466.816 55.7548 465.724 55.4171 465.042 56.5225ZM523.074 56.4876C519.459 59.8502 514.008 63.6572 513.647 63.0733C513.4 62.6738 513.631 62.4364 514.16 62.546C514.689 62.6557 515.032 62.3129 514.922 61.7842C514.812 61.2548 515.058 61.0289 515.467 61.2824C515.876 61.5351 516.211 61.4269 516.211 61.0412C516.211 60.6563 517.738 59.3295 519.603 58.0934C522.896 55.9132 524.482 55.1796 523.074 56.4876ZM303.419 58.1311C302.42 58.962 301.603 59.9039 301.603 60.2249C301.603 60.5467 301.383 61.0296 301.113 61.2991C300.844 61.5692 300.697 61.2853 300.788 60.6687C300.997 59.2401 303.396 56.5653 304.439 56.5966C304.877 56.6104 304.418 57.3003 303.419 58.1311ZM453.746 58.2437C452.751 59.1631 451.284 60.1603 450.485 60.4602C449.62 60.7841 450.062 60.1196 451.575 58.8182C454.536 56.2705 456.419 55.7723 453.746 58.2437ZM376.595 58.6003C377.61 57.7615 377.624 57.8319 376.731 59.267C376.021 60.4072 375.569 60.6178 375.173 59.9932C374.866 59.5103 374.635 58.7877 374.66 58.3882C374.685 57.9888 374.876 58.0839 375.083 58.6003C375.391 59.3665 375.667 59.3665 376.595 58.6003ZM683.296 59.6592C682.947 60.5575 682.264 61.1981 681.776 61.0812C680.524 60.7827 678.105 63.1379 678.662 64.114C678.916 64.5599 678.882 64.7066 678.585 64.4401C677.972 63.8903 675.26 66.3581 675.26 67.4664C675.26 67.8658 674.825 68.1926 674.292 68.1926C673.759 68.1926 673.324 67.717 673.324 67.1352C673.324 66.5535 673.596 66.2463 673.929 66.4518C674.261 66.6573 675.21 65.6769 676.039 64.2731C676.867 62.8692 678.179 61.5191 678.955 61.2729C679.77 61.0144 680.159 60.4646 679.875 59.97C679.606 59.4994 679.644 59.3483 679.96 59.6338C680.276 59.9192 681.219 59.6737 682.054 59.0891C684.015 57.7143 684.044 57.7273 683.296 59.6592ZM309.955 59.3941C309.955 60.1864 306.328 62.6361 306.313 61.8546C306.307 61.546 306.006 61.7602 305.645 62.3318C305.283 62.9026 304.442 63.4502 303.773 63.5483C303.106 63.6463 302.671 63.6144 302.807 63.4778C302.944 63.3413 303.272 63.2846 303.534 63.3507C303.798 63.4175 304.709 62.5882 305.559 61.5082C306.569 60.2227 307.512 59.7006 308.286 59.9969C309.075 60.2997 309.293 60.1683 308.942 59.6011C308.653 59.1334 308.764 58.7514 309.186 58.7514C309.609 58.7514 309.955 59.0404 309.955 59.3941ZM474.891 59.5393C473.934 59.9221 473.333 60.4174 473.555 60.6396C473.778 60.8618 474.887 60.5408 476.022 59.9264C478.303 58.6903 477.608 58.4521 474.891 59.5393ZM674.629 59.726C674.185 60.262 673.981 60.9156 674.178 61.1785C674.374 61.4414 674.316 61.4922 674.048 61.2918C673.781 61.0913 672.883 61.4944 672.051 62.188C671.22 62.8816 671.5 62.3921 672.673 61.1001C674.738 58.8269 676.268 57.7513 674.629 59.726ZM131.93 61.4748C131.028 62.6266 131.053 62.6521 132.205 61.7493C132.904 61.201 133.476 60.6287 133.476 60.4784C133.476 59.8807 132.88 60.2649 131.93 61.4748ZM599.73 63.472C597.966 65.2695 596.371 66.7401 596.184 66.7401C595.765 66.7401 598.853 63.273 600.82 61.5358C603.546 59.1268 602.943 60.1981 599.73 63.472ZM157.644 61.745C157.196 62.1931 156.99 62.9767 157.185 63.4873C157.381 63.9971 157.196 64.6282 156.774 64.8889C156.306 65.178 156.176 64.9202 156.442 64.228C156.758 63.4045 156.557 63.2156 155.712 63.5395C155.07 63.7857 154.726 64.2796 154.948 64.6376C155.168 64.995 154.984 65.2876 154.537 65.2876C154.091 65.2876 153.941 65.6362 154.204 66.0625C154.491 66.5273 154.146 66.7452 153.339 66.6072C152.6 66.4809 152.067 66.7554 152.154 67.2173C152.241 67.6792 151.769 67.9777 151.105 67.8804C150.44 67.7823 148.777 68.4621 147.41 69.3895C146.042 70.3177 144.554 70.866 144.102 70.6074C143.65 70.3496 143.526 70.4092 143.826 70.7411C144.505 71.4891 142.232 74.1138 141.367 73.5793C140.309 72.9256 140.669 71.6416 141.791 72.0723C142.475 72.3345 142.709 72.1275 142.461 71.4797C142.032 70.3627 144.584 68.6807 145.48 69.489C145.796 69.7744 145.806 69.5783 145.503 69.0518C144.8 67.8361 147.203 65.9427 148.83 66.4308C149.559 66.6494 150.639 66.003 151.608 64.7669C152.48 63.655 152.968 63.1822 152.694 63.7153C152.42 64.2491 153.458 63.8598 155.001 62.8503C158.08 60.8357 158.893 60.4958 157.644 61.745ZM333.195 61.6564C332.596 62.0435 332.433 62.3601 332.832 62.3601C333.232 62.3601 334.049 62.0435 334.648 61.6564C335.247 61.2693 335.41 60.9526 335.011 60.9526C334.612 60.9526 333.795 61.2693 333.195 61.6564ZM310.237 63.9165C308.684 65.1591 307.503 66.491 307.613 66.8752C307.723 67.2601 307.485 67.3713 307.083 67.1236C306.186 66.5695 307.739 63.8351 308.952 63.8351C309.406 63.8351 310.184 63.3449 310.682 62.7458C311.179 62.1466 311.918 61.6564 312.323 61.6564C312.728 61.6564 311.79 62.6731 310.237 63.9165ZM327.159 62.1604C326.442 63.3217 328.571 63.9056 330.471 63.0689C331.994 62.3986 331.974 62.3754 330.169 62.7276C329.006 62.9549 328.116 62.7588 327.942 62.2359C327.737 61.6222 327.506 61.6004 327.159 62.1604ZM452.237 61.8379C452.068 61.9382 450.788 62.9999 449.392 64.1983L446.854 66.377L448.987 64.0167C450.16 62.7189 451.44 61.6564 451.832 61.6564C452.223 61.6564 452.405 61.7377 452.237 61.8379ZM334.097 63.1517C330.309 63.8983 322.151 68.1578 321.684 69.6321C321.426 70.444 321.652 70.3983 322.607 69.444C323.302 68.7482 324.172 68.3648 324.539 68.5921C324.906 68.8187 325.207 68.6582 325.207 68.2355C325.207 67.8128 325.451 67.5049 325.751 67.5521C327.04 67.7562 327.987 67.3807 329.499 66.0698C330.386 65.3014 332.394 64.4561 333.964 64.191C335.535 63.9259 337.003 63.4103 337.229 63.0457C337.454 62.6811 337.538 62.4182 337.414 62.4625C337.291 62.5061 335.798 62.8162 334.097 63.1517ZM253.173 65.5455C249.927 67.7932 249.839 67.945 251.252 68.8274C252.155 69.391 252.538 69.4367 252.234 68.9443C251.955 68.494 252.949 67.0234 254.478 65.6224C257.862 62.5235 257.563 62.5054 253.173 65.5455ZM453.027 63.3856C453.027 63.5381 451.802 64.5425 450.304 65.6166L447.58 67.571L450.094 65.3399C452.572 63.1423 453.027 62.8387 453.027 63.3856ZM687.607 63.8351C686.952 64.2578 686.862 64.5432 687.382 64.5505C687.858 64.5563 688.449 64.2346 688.696 63.8351C689.253 62.9331 689.002 62.9331 687.607 63.8351ZM150.543 65.2876C150.296 65.6871 149.767 66.0139 149.368 66.0139C148.968 66.0139 148.843 65.6871 149.09 65.2876C149.337 64.8882 149.866 64.5614 150.265 64.5614C150.665 64.5614 150.79 64.8882 150.543 65.2876ZM165.068 65.2876C164.821 65.6871 164.23 66.0088 163.754 66.003C163.234 65.9957 163.324 65.7103 163.978 65.2876C165.374 64.3856 165.625 64.3856 165.068 65.2876ZM299.735 67.8833C298.44 69.2203 297.083 70.1325 296.722 69.9088C295.948 69.4309 293.141 71.784 293.6 72.5262C293.772 72.8058 293.389 73.0346 292.749 73.0346C291.999 73.0346 292.66 72.0302 294.607 70.2138C296.27 68.6633 297.93 67.579 298.296 67.8048C298.915 68.1876 299.996 67.0844 300.231 65.8323C300.287 65.5331 300.373 65.1046 300.423 64.8817C300.473 64.6587 300.869 64.695 301.303 64.9637C301.797 65.2688 301.21 66.3618 299.735 67.8833ZM207.97 67.1185C207.2 67.701 206.739 68.3466 206.945 68.5529C207.152 68.7591 207.914 68.2725 208.639 67.4707C210.183 65.7648 209.934 65.6333 207.97 67.1185ZM254.843 67.3785C253.834 68.1542 253.422 68.9037 253.856 69.1716C254.265 69.4251 255.135 68.8187 255.787 67.823C257.194 65.6747 257.11 65.6355 254.843 67.3785ZM320.491 66.7322C320.237 67.1432 320.528 67.2652 321.174 67.0176C322.432 66.5346 322.663 66.0139 321.618 66.0139C321.242 66.0139 320.735 66.3371 320.491 66.7322ZM126.94 67.3887C126.94 67.7453 126.403 68.2428 125.748 68.4948C124.751 68.8775 124.706 68.7707 125.473 67.8462C126.519 66.5862 126.94 66.4547 126.94 67.3887ZM515.485 67.0604C515.485 67.2369 515.158 67.5826 514.759 67.8295C514.359 68.0764 514.032 67.9319 514.032 67.5092C514.032 67.0866 514.359 66.7401 514.759 66.7401C515.158 66.7401 515.485 66.8839 515.485 67.0604ZM239.146 68.1926C238.891 68.6052 238.432 68.7882 238.127 68.5993C237.822 68.4112 237.572 68.7272 237.572 69.3024C237.572 69.9487 237.872 70.1129 238.359 69.7308C238.791 69.3917 239.62 68.9668 240.199 68.786C240.927 68.5601 240.999 68.3016 240.431 67.9508C239.979 67.6712 239.401 67.7801 239.146 68.1926ZM518.753 68.1926C518.506 68.5921 518.814 68.9189 519.436 68.9189C520.059 68.9189 520.569 68.5921 520.569 68.1926C520.569 67.7932 520.261 67.4664 519.885 67.4664C519.509 67.4664 519 67.7932 518.753 68.1926ZM317.755 68.9501C318.251 69.4839 319.179 69.9981 319.819 70.0918C320.458 70.1855 320.762 70.0417 320.492 69.7722C320.222 69.5028 319.784 69.2769 319.518 69.2711C319.251 69.2646 318.543 68.9719 317.944 68.6197C317.061 68.1011 317.025 68.1636 317.755 68.9501ZM389.843 68.9189C389.843 69.3183 389.497 69.6452 389.074 69.6452C388.651 69.6452 388.507 69.3183 388.754 68.9189C389.001 68.5195 389.346 68.1926 389.523 68.1926C389.699 68.1926 389.843 68.5195 389.843 68.9189ZM122.582 71.4608C122.069 72.0796 121.485 72.4216 121.286 72.2219C121.086 72.0222 121.342 71.3533 121.856 70.7345C122.369 70.1158 122.952 69.7737 123.152 69.9734C123.352 70.1731 123.096 70.842 122.582 71.4608ZM245.733 70.7861C245.106 71.4143 244.593 72.1333 244.593 72.3838C244.593 72.6351 244.985 72.4485 245.464 71.9692C246.577 70.8565 247.747 70.8318 247.065 71.9365C246.751 72.4441 246.865 72.5778 247.354 72.2756C247.797 72.0018 247.976 71.2974 247.751 70.7113C247.24 69.3808 247.135 69.3852 245.733 70.7861ZM389.843 70.6568C389.843 70.8137 389.336 71.1369 388.716 71.3751C388.07 71.6227 387.778 71.5007 388.033 71.0897C388.459 70.399 389.843 70.0686 389.843 70.6568ZM513.576 70.9466C513.772 71.2632 513.307 71.5697 512.544 71.6271C511.78 71.6845 510.967 71.4252 510.736 71.0512C510.504 70.6772 510.969 70.3714 511.768 70.3714C512.567 70.3714 513.38 70.6307 513.576 70.9466ZM233.917 72.0752C233.597 72.6126 232.091 74.1341 230.57 75.4559C228.908 76.899 228.116 78.0523 228.587 78.3428C229.054 78.6311 228.625 79.2244 227.525 79.8134C224.653 81.3502 223.687 79.7996 225.766 76.9876C226.677 75.7551 227.583 74.9076 227.78 75.1037C227.976 75.3005 227.345 76.3209 226.379 77.3725C223.268 80.7539 227.12 78.1619 230.763 74.4217C234.104 70.9923 234.921 70.3837 233.917 72.0752ZM266.15 72.6867C265.918 73.2655 265.746 73.0934 265.711 72.2473C265.68 71.4818 265.851 71.0534 266.093 71.2945C266.334 71.5356 266.36 72.1623 266.15 72.6867ZM373.139 71.7462C373.139 72.1028 372.603 72.6003 371.948 72.8523C370.95 73.235 370.905 73.1283 371.673 72.2037C372.719 70.9437 373.139 70.8122 373.139 71.7462ZM597.16 73.6069C595.977 74.5517 594.846 75.1618 594.646 74.962C594.447 74.7623 595.251 73.8255 596.434 72.8806C597.616 71.935 598.748 71.3257 598.947 71.5254C599.147 71.7251 598.342 72.6613 597.16 73.6069ZM153.405 72.9532C152.051 74.0383 152.06 74.0513 153.629 73.2909C154.528 72.8552 155.263 72.3468 155.263 72.1616C155.263 71.606 154.886 71.7665 153.405 72.9532ZM282.358 72.9133C281.86 73.5124 281.104 74.0027 280.677 74.0027C280.251 74.0027 280.535 73.5226 281.311 72.9365C283.133 71.5581 283.488 71.5508 282.358 72.9133ZM238.782 72.8298C238.782 72.9837 237.965 73.6446 236.967 74.299C235.968 74.9533 235.151 75.2039 235.151 74.8567C235.151 74.5089 235.886 73.8698 236.785 73.4362C238.756 72.4863 238.782 72.4783 238.782 72.8298ZM370.234 72.9917C370.234 73.5923 368.824 73.9322 368.501 73.4093C368.291 73.0702 368.595 72.792 369.177 72.792C369.759 72.792 370.234 72.8821 370.234 72.9917ZM419.256 73.2764C419.009 73.6759 419.154 74.0027 419.577 74.0027C419.999 74.0027 420.346 73.6759 420.346 73.2764C420.346 72.877 420.202 72.5502 420.025 72.5502C419.849 72.5502 419.503 72.877 419.256 73.2764ZM720.288 73.2764C720.288 73.6759 720.615 74.0027 721.014 74.0027C721.414 74.0027 721.741 73.6759 721.741 73.2764C721.741 72.877 721.414 72.5502 721.014 72.5502C720.615 72.5502 720.288 72.877 720.288 73.2764ZM309.91 75.514L307.413 77.7211L309.955 76.0456C311.353 75.1247 312.634 74.2881 312.8 74.1864C312.966 74.0855 312.946 73.8458 312.754 73.6548C312.563 73.4631 311.283 74.2997 309.91 75.514ZM233.988 75.0202C233.774 75.5801 232.885 76.2206 232.015 76.4443C230.537 76.8227 230.552 76.7559 232.246 75.4421C234.435 73.7456 234.482 73.734 233.988 75.0202ZM370.539 75.7101C370.287 76.3644 369.774 76.7087 369.397 76.4756C368.988 76.2228 369.061 75.6309 369.576 75.01C370.639 73.7296 371.154 74.1051 370.539 75.7101ZM214.09 74.9795C214.09 75.1175 213.355 75.8524 212.456 76.6135L210.822 77.9971L212.205 76.363C213.505 74.8277 214.09 74.3985 214.09 74.9795ZM444.675 76.1814C444.428 76.5809 444.627 76.9077 445.117 76.9077C445.606 76.9077 445.81 77.1038 445.571 77.3434C444.918 77.9956 443.497 76.9128 443.98 76.1313C444.21 75.7595 444.561 75.4552 444.761 75.4552C444.961 75.4552 444.922 75.782 444.675 76.1814ZM367.056 80.5636C365.839 82.0103 365.15 82.4257 365.15 81.7126C365.15 80.544 368.074 77.4102 368.638 77.9738C368.817 78.1525 368.105 79.3181 367.056 80.5636ZM141.372 79.6311C140.469 80.783 140.494 80.8084 141.646 79.9057C142.856 78.9564 143.24 78.3602 142.643 78.3602C142.492 78.3602 141.92 78.9317 141.372 79.6311ZM302.743 80.1228C301.331 81.6254 301.277 81.8578 302.373 81.6966C303.081 81.5927 303.922 80.7997 304.243 79.934C304.983 77.9317 304.777 77.9571 302.743 80.1228ZM113.886 81.974C112.677 83.1033 111.688 84.3859 111.688 84.8246C111.688 85.2639 111.306 85.6227 110.838 85.6227C110.37 85.6227 109.455 86.0316 108.805 86.5305C108.154 87.0302 108.374 86.7186 109.292 85.8391C111.095 84.1128 111.525 83.0198 110.054 83.9037C109.43 84.2784 109.456 84.0678 110.136 83.2283C110.681 82.5565 111.38 82.1643 111.691 82.356C112.001 82.5485 112.796 81.8803 113.457 80.873C114.117 79.865 114.978 79.2382 115.37 79.4808C115.762 79.7234 115.094 80.8454 113.886 81.974ZM498.896 81.2652C498.896 82.2638 499.061 82.6727 499.262 82.173C499.464 81.6741 499.464 80.857 499.262 80.3574C499.061 79.8584 498.896 80.2666 498.896 81.2652ZM65.3344 88.3534C62.0816 91.8445 58.8512 95.5179 58.1569 96.5165L56.8947 98.3321L59.1678 96.5165C60.4177 95.5179 61.6124 94.0959 61.823 93.3566C62.0598 92.5236 62.542 92.2214 63.0925 92.5613C63.6212 92.8881 63.7933 92.8075 63.5181 92.3623C63.2646 91.952 63.8972 91.0028 64.9241 90.2533C65.951 89.5038 67.0803 88.1559 67.434 87.2568C67.7877 86.3577 68.3818 85.6227 68.7536 85.6227C69.5373 85.6227 68.9584 88.3687 68.0572 88.9257C67.7231 89.132 67.6374 89.787 67.8654 90.3826C68.2017 91.2584 68.5779 91.143 69.8466 89.774C70.7087 88.8444 71.9862 87.8639 72.6863 87.5952C73.6515 87.2248 73.841 86.6387 73.4721 85.1674C73.154 83.9008 73.2477 83.3895 73.7408 83.6945C74.157 83.9516 74.6842 83.6735 74.9137 83.0765C75.3843 81.8491 74.2601 81.5847 73.5382 82.7533C73.2128 83.2798 72.788 83.282 72.159 82.7606C71.4814 82.1977 69.745 83.6212 65.3344 88.3534ZM283.084 84.1702C283.084 84.5696 282.738 84.8965 282.315 84.8965C281.892 84.8965 281.748 84.5696 281.995 84.1702C282.241 83.7708 282.587 83.444 282.764 83.444C282.94 83.444 283.084 83.7708 283.084 84.1702ZM499.285 83.9117C499.761 84.1056 499.972 84.7331 499.752 85.3068C499.116 86.9634 501.992 86.5705 503.571 84.7839L504.954 83.2188L502.957 84.5043C501.165 85.6576 500.96 85.6692 500.96 84.6169C500.96 83.9618 500.398 83.4694 499.689 83.5013C498.99 83.5326 498.808 83.717 499.285 83.9117ZM72.0327 85.0178C71.8271 85.3504 72.0864 85.6278 72.6093 85.6336C73.8192 85.6481 71.7923 87.0476 70.5373 87.0643C69.9193 87.0723 69.6869 85.0715 70.2359 84.4731C70.6136 84.062 72.3057 84.5755 72.0327 85.0178ZM108.057 85.147C108.057 85.285 107.322 86.02 106.423 86.7811L104.789 88.1646L106.172 86.5305C107.472 84.9952 108.057 84.566 108.057 85.147ZM359.34 85.6227C359.34 86.0222 359.197 86.349 359.02 86.349C358.844 86.349 358.498 86.0222 358.251 85.6227C358.004 85.2233 358.149 84.8965 358.571 84.8965C358.994 84.8965 359.34 85.2233 359.34 85.6227ZM377.497 87.3497C377.497 87.5001 376.925 88.0724 376.226 88.6207C375.074 89.5234 375.049 89.498 375.951 88.3462C376.901 87.1362 377.497 86.752 377.497 87.3497ZM224.961 89.0724C224.948 89.3716 224.05 90.2446 222.964 91.0115L220.989 92.4052L222.75 90.4668C224.6 88.429 224.998 88.1784 224.961 89.0724ZM101.521 90.2657C101.521 90.4225 101.014 90.7457 100.394 90.9839C99.7472 91.2316 99.456 91.1096 99.7102 90.6985C100.136 90.0078 101.521 89.6774 101.521 90.2657ZM219.9 90.3753C219.9 90.4596 219.464 90.8902 218.932 91.3325C218.208 91.9331 217.963 91.8939 217.963 91.1793C217.963 90.6527 218.399 90.2221 218.932 90.2221C219.464 90.2221 219.9 90.2911 219.9 90.3753ZM111.985 92.5221C110.902 94.1743 110.083 94.6515 109.178 94.1562C108.995 94.0567 108.324 94.6283 107.685 95.4271C106.554 96.8419 106.545 96.8368 107.327 95.2252C107.769 94.3152 108.393 93.7335 108.714 93.9318C109.035 94.1308 110.056 93.4859 110.983 92.4996C113.134 90.2104 113.494 90.2184 111.985 92.5221ZM286.715 90.981C286.715 91.1313 286.143 91.7036 285.444 92.252C284.292 93.1547 284.267 93.1293 285.17 91.9774C286.119 90.7675 286.715 90.3833 286.715 90.981ZM65.3163 92.6412C64.1535 93.9042 64.4796 94.5106 65.8624 93.6558C66.3984 93.3246 66.7158 92.7211 66.5676 92.3144C66.4115 91.8874 65.8842 92.0246 65.3163 92.6412ZM122.292 92.5294C122.204 93.1329 121.695 94.0313 121.161 94.5266C120.374 95.2565 120.312 95.2209 120.83 94.3377C121.183 93.7386 121.517 93.0029 121.573 92.7037C121.775 91.6194 121.861 91.4327 122.155 91.4327C122.319 91.4327 122.381 91.9266 122.292 92.5294ZM216.995 92.74C216.995 93.5309 213.035 96.3996 212.446 96.0357C211.587 95.5034 214.55 92.4008 215.919 92.4008C216.511 92.4008 216.995 92.5533 216.995 92.74ZM290.987 92.6608C290.939 92.984 290.939 93.4938 290.987 93.7931C291.034 94.0923 290.773 94.3377 290.406 94.3377C290.039 94.3377 289.14 94.5622 288.409 94.8367C287.192 95.2935 287.171 95.2158 288.168 93.9289C289.179 92.6231 289.165 92.5947 287.969 93.5338C287.26 94.0894 286.842 94.7067 287.039 94.9042C287.237 95.1018 286.733 96.1991 285.918 97.3423C285.104 98.4861 284.659 99.4215 284.931 99.4215C285.202 99.4215 284.652 100.103 283.709 100.937L281.995 102.452L284.173 100.996C287.727 98.6205 292.753 93.1118 291.867 92.5642C291.43 92.2941 291.034 92.3376 290.987 92.6608ZM126.12 94.8824C125.218 96.0343 125.243 96.0597 126.395 95.157C127.094 94.6086 127.666 94.0364 127.666 93.886C127.666 93.2883 127.07 93.6725 126.12 94.8824ZM38.7725 96.1294C38.7725 98.1636 38.1682 97.932 37.8385 95.7714C37.7179 94.9827 37.8792 94.3377 38.1958 94.3377C38.5132 94.3377 38.7725 95.1439 38.7725 96.1294ZM200.654 95.7903C200.407 96.1897 200.715 96.5165 201.338 96.5165C201.96 96.5165 202.47 96.9762 202.47 97.5376C202.47 98.3626 202.131 98.399 200.709 97.7279C199.404 97.112 199.145 96.6588 199.709 95.9805C200.613 94.8911 201.295 94.7539 200.654 95.7903ZM361.519 95.4322C361.519 97.8695 365.123 99.7767 366.258 97.94C366.561 97.4497 366.065 97.3502 364.848 97.6553C363.435 98.0104 362.972 97.8485 362.972 97.0009C362.972 96.3822 362.645 95.6741 362.245 95.4271C361.846 95.1802 361.519 95.1824 361.519 95.4322ZM103.953 96.8564C104.178 97.4425 104.118 98.0736 103.819 98.2588C103.519 98.4433 103.227 97.9639 103.169 97.1926C103.044 95.5244 103.386 95.3777 103.953 96.8564ZM101.966 97.8514C102.06 98.335 101.978 98.4149 101.782 98.0278C101.587 97.6407 100.904 97.5253 100.265 97.77C99.4705 98.075 99.2773 97.9356 99.6528 97.3277C100.302 96.2776 101.72 96.5978 101.966 97.8514ZM213.685 98.2726C212.91 98.8391 212.439 99.4506 212.639 99.6314C212.838 99.8122 213.629 99.3489 214.399 98.6016C216.052 96.9937 215.673 96.8194 213.685 98.2726ZM37.9925 99.2814C37.7695 99.505 37.1834 99.2821 36.6903 98.7853C35.9786 98.0678 36.0621 97.985 37.097 98.3786C37.8131 98.6517 38.2162 99.0577 37.9925 99.2814ZM122.489 99.9662C121.586 101.118 121.612 101.143 122.764 100.241C123.974 99.2915 124.358 98.6953 123.76 98.6953C123.61 98.6953 123.037 99.2668 122.489 99.9662ZM197.695 100.65C197.794 101.329 198.264 101.96 198.738 102.051C199.213 102.143 199.264 102.051 198.852 101.847C198.441 101.643 198.274 101.2 198.483 100.862C198.691 100.525 198.559 100.061 198.188 99.8311C197.817 99.6024 197.595 99.9706 197.695 100.65ZM103.967 100.719C104.161 101.032 103.713 101.289 102.973 101.289C102.233 101.289 101.786 101.032 101.98 100.719C102.174 100.405 102.621 100.148 102.973 100.148C103.325 100.148 103.772 100.405 103.967 100.719ZM193.392 100.874C193.145 101.273 193.289 101.6 193.712 101.6C194.135 101.6 194.481 101.273 194.481 100.874C194.481 100.475 194.337 100.148 194.161 100.148C193.984 100.148 193.639 100.475 193.392 100.874ZM211.73 102.105C210.232 103.134 209.006 104.286 209.006 104.664C209.006 105.043 210.313 104.318 211.911 103.053C213.509 101.788 214.816 100.616 214.816 100.45C214.816 100.004 214.696 100.069 211.73 102.105ZM200.348 102.024C200.383 102.87 200.555 103.042 200.787 102.463C200.997 101.939 200.971 101.312 200.73 101.071C200.489 100.83 200.317 101.258 200.348 102.024ZM52.8472 104.886C52.3418 105.494 52.0694 106.134 52.2408 106.306C52.4129 106.477 52.9525 105.98 53.4399 105.199C54.4944 103.51 54.1429 103.325 52.8472 104.886ZM278.633 105.05C277.731 106.202 277.756 106.227 278.908 105.325C280.118 104.375 280.502 103.779 279.904 103.779C279.754 103.779 279.182 104.351 278.633 105.05ZM204.649 106.684C203.994 107.107 203.904 107.392 204.424 107.399C204.9 107.405 205.491 107.083 205.738 106.684C206.295 105.782 206.044 105.782 204.649 106.684ZM200.654 107.41C199.269 108.006 199.277 108.037 200.836 108.086C201.735 108.113 202.47 107.81 202.47 107.41C202.47 107.011 202.388 106.707 202.288 106.735C202.189 106.763 201.453 107.067 200.654 107.41ZM98.4218 108.227C98.9149 108.723 99.501 108.946 99.724 108.723C99.9476 108.499 99.5446 108.093 98.8285 107.82C97.7936 107.426 97.7101 107.509 98.4218 108.227ZM46.0372 112.373C45.8316 112.706 46.1243 112.978 46.6886 112.978C47.2529 112.978 47.5456 112.706 47.3401 112.373C47.1345 112.04 46.8411 111.768 46.6886 111.768C46.5361 111.768 46.2427 112.04 46.0372 112.373ZM96.8603 112.397C96.3258 113.262 99.0776 115.648 99.9723 115.096C100.37 114.85 100.887 114.961 101.123 115.342C101.569 116.066 104.294 115.801 105.068 114.96C105.314 114.692 104.605 114.639 103.492 114.841C102.004 115.111 101.275 114.844 100.732 113.83C100.327 113.073 99.6847 112.645 99.3056 112.88C98.9258 113.114 98.6157 112.96 98.6157 112.537C98.6157 111.612 97.405 111.515 96.8603 112.397ZM31.823 115.036C31.823 115.435 32.1396 116.252 32.5267 116.852C32.9138 117.451 33.2304 117.614 33.2304 117.215C33.2304 116.815 32.9138 115.998 32.5267 115.399C32.1396 114.8 31.823 114.637 31.823 115.036ZM43.7197 115.218C44.0015 115.717 43.9775 116.534 43.6652 117.033C42.8097 118.403 42.7276 119.822 43.5323 119.324C43.9238 119.083 44.061 118.703 43.8381 118.48C43.6151 118.257 43.8083 117.622 44.2673 117.069C44.9013 116.305 44.8744 115.853 44.1547 115.187C43.4118 114.499 43.3181 114.506 43.7197 115.218ZM48.1411 115.399C47.8942 115.799 48.0387 116.125 48.4614 116.125C48.8841 116.125 49.2305 115.799 49.2305 115.399C49.2305 115 49.0867 114.673 48.9102 114.673C48.7337 114.673 48.3881 115 48.1411 115.399Z" fill="#1363FE"/>
</svg>
