<svg width="492" height="138" viewBox="0 0 492 138" fill="none" xmlns="http://www.w3.org/2000/svg">
<path fill-rule="evenodd" clip-rule="evenodd" d="M152.834 96.9203C83.086 97.7852 82.6641 97.5462 80.5691 95.771C79.439 94.8134 69.3053 93.5784 58.0498 93.0267C44.5688 92.3658 36.4501 91.2548 34.2589 89.7709C32.4295 88.5321 30.0478 87.5184 28.9663 87.5184C27.8848 87.5184 27 86.1347 27 84.4435C27 81.9924 28.3698 81.3685 33.7512 81.3685C37.4643 81.3685 40.5023 80.6767 40.5023 79.831C40.5023 78.9854 38.7077 78.2936 36.5142 78.2936C30.7491 78.2936 29.0842 75.2532 34.7307 75.0365C37.3401 74.9365 40.1685 74.9365 41.016 75.0365C41.8636 75.1367 42.5571 74.5268 42.5571 73.6811C42.5571 72.8355 40.2455 72.1437 37.4203 72.1437C34.5951 72.1437 32.2835 71.4518 32.2835 70.6062C32.2835 69.7606 33.2589 69.0687 34.451 69.0687C35.5949 69.0687 40.537 67.7037 45.6231 65.9924C43.0607 65.6959 41.5192 65.3055 41.5192 64.8795C41.5192 64.0339 44.9865 63.3326 49.2243 63.321C51.5457 63.3147 54.3296 63.1641 56.837 62.9322C59.7002 62.3394 62.8425 61.8078 66.3608 61.3297L67.203 61.1538L61.0389 60.1236C57.5122 59.5342 60.4714 59.087 69.4531 58.8338C71.5959 58.6888 72.4737 57.8597 71.8149 56.5749C71.6995 56.3498 71.6406 56.1294 71.6359 55.916C60.0865 56.1219 48.8545 56.5354 43.574 57.1111C32.5051 58.3178 29.35 58.0981 31.7678 56.2889C33.834 54.7428 48.4152 52.3411 54.7165 52.509C58.0198 52.5971 61.399 51.8499 62.226 50.8488C63.0529 49.8476 66.7953 49.0937 70.5425 49.1734C71.4665 49.1931 72.4069 49.1769 73.3169 49.1307C71.9795 48.1229 73.0506 47.707 77.124 46.3182C77.906 46.0516 78.652 45.737 79.3303 45.3972C75.6985 45.3695 70.7978 45.4098 65.1482 45.5271C32.8879 46.1968 43.5101 43.936 79.0251 42.5736C80.2668 42.5259 81.5088 42.4767 82.7445 42.4261C82.7508 42.3836 82.754 42.3418 82.754 42.3009C82.754 41.147 85.7157 39.7598 89.3356 39.218C94.9618 38.376 95.3346 38.0625 91.904 37.0583C89.6967 36.4122 116.091 35.9389 150.559 36.0064C185.027 36.074 209.067 36.6133 203.981 37.2049C196.082 38.1239 195.633 38.3499 200.899 38.7566C202.888 38.9102 215.636 39.1064 233.704 39.2847C251.772 39.1064 264.521 38.9102 266.509 38.7566C271.775 38.3499 271.326 38.1239 263.427 37.2049C258.342 36.6133 282.382 36.074 316.849 36.0064C351.317 35.9389 377.712 36.4122 375.504 37.0583C372.074 38.0625 372.447 38.376 378.073 39.218C381.693 39.7598 384.654 41.147 384.654 42.3009C384.654 42.3418 384.658 42.3836 384.664 42.4261C385.9 42.4767 387.142 42.5259 388.383 42.5736C423.898 43.936 434.52 46.1968 402.26 45.5271C396.611 45.4098 391.71 45.3695 388.078 45.3972C388.756 45.737 389.502 46.0516 390.284 46.3182C394.358 47.707 395.429 48.1229 394.091 49.1307C395.001 49.1769 395.942 49.1931 396.866 49.1734C400.613 49.0937 404.355 49.8476 405.182 50.8488C406.009 51.8499 409.389 52.5971 412.692 52.509C417.014 52.3938 425.233 53.4877 430.635 54.6852C431.342 54.8077 431.885 54.937 432.27 55.0732C433.924 55.4962 435.144 55.9173 435.641 56.2889C435.761 56.3794 435.868 56.4658 435.961 56.5483C437.56 56.9219 439.468 57.1579 441.232 57.1579C446.215 57.1579 447.044 57.677 446.15 60.2328C445.331 62.5775 446.087 63.3078 449.335 63.3078C451.678 63.3078 452.986 63.7631 452.243 64.3195C452.029 64.4795 451.915 64.7113 451.892 64.9884C459.991 65.4025 465.272 65.9581 464.771 66.5856C464.211 67.2875 459.648 68.3235 454.419 68.9584C454.466 69.24 454.256 69.3672 453.771 69.2762C451.998 68.9428 446.704 70.6135 443.387 72.2071C443.259 72.8267 442.182 73.616 440.588 74.3405C440.698 74.9643 442.271 75.1184 444.177 74.6747C446.872 74.0478 446.743 74.3147 443.664 75.7397C442.985 76.0538 442.276 76.4343 441.593 76.8437C443.753 76.7878 446.426 76.6953 449.657 76.5694C460.385 76.1513 467.036 76.1968 464.437 76.6706C460.933 77.3092 460.272 78.0225 461.882 79.4293C463.549 80.8868 461.332 81.744 452.317 83.1265C439.633 85.0715 431.59 87.1702 430.497 88.701C432.782 89.2693 434.417 90.0627 434.417 90.8072C434.417 90.9455 433.72 91.07 432.457 91.1769C432.324 93.0372 425.647 95.1757 415.612 96.2554C409.142 96.9516 405.238 97.617 406.936 97.734C409.462 97.9084 409.391 98.232 406.543 99.5189C404.629 100.383 397.471 100.806 390.636 100.46C383.216 100.083 378.221 100.433 378.24 101.329C378.278 103.191 345.301 103.59 318.661 102.051C279.788 99.804 270.086 99.5198 276.51 100.816C281.603 101.843 280.578 102.058 270.728 102.029C264.143 102.009 258.339 101.505 257.829 100.909C257.387 100.391 255.531 99.958 252.115 99.6027C247.318 100.121 244.167 100.606 243.713 100.946C243.126 101.385 240.334 101.745 237.508 101.745C231.041 101.745 232.741 100.326 240.463 99.2777C241.191 99.179 241.902 99.074 242.572 98.9678C232.33 98.5187 216.676 98.3094 194.754 98.3046C170.294 98.2992 156.906 97.8623 152.834 96.9203ZM425.243 64.2634C431.419 64.3219 437.548 64.4476 443.072 64.6274C443.383 63.4776 442.499 62.6088 441.095 62.6928C439.683 62.7774 433.21 62.9715 426.712 63.1238C423.877 63.1904 421.749 63.2693 420.238 63.3825C422.48 63.5131 424.319 63.8413 425.243 64.2634ZM66.1758 51.9017C66.1758 51.5288 67.1005 50.7961 68.2306 50.2735C69.3607 49.7508 70.2853 50.056 70.2853 50.9515C70.2853 51.847 69.3607 52.5797 68.2306 52.5797C67.1005 52.5797 66.1758 52.2746 66.1758 51.9017ZM367.19 38.7424C366.491 37.8968 366.899 37.2049 368.096 37.2049C369.293 37.2049 370.272 37.8968 370.272 38.7424C370.272 39.588 369.864 40.2799 369.366 40.2799C368.867 40.2799 367.888 39.588 367.19 38.7424ZM308.117 37.5969C318.57 37.3178 335.676 37.3178 346.129 37.5969C356.582 37.8759 348.03 38.1042 327.123 38.1042C306.216 38.1042 297.664 37.8759 308.117 37.5969ZM401.233 51.9017C401.233 51.5288 400.308 50.7961 399.178 50.2735C398.048 49.7508 397.123 50.056 397.123 50.9515C397.123 51.847 398.048 52.5797 399.178 52.5797C400.308 52.5797 401.233 52.2746 401.233 51.9017ZM100.219 38.7424C100.917 37.8968 100.51 37.2049 99.3126 37.2049C98.1158 37.2049 97.1366 37.8968 97.1366 38.7424C97.1366 39.588 97.5443 40.2799 98.0427 40.2799C98.541 40.2799 99.5203 39.588 100.219 38.7424ZM159.291 37.5969C148.838 37.3178 131.733 37.3178 121.279 37.5969C110.826 37.8759 119.379 38.1042 140.285 38.1042C161.192 38.1042 169.745 37.8759 159.291 37.5969ZM98.5476 94.1207C96.005 93.7542 91.8441 93.7542 89.3014 94.1207C86.7588 94.4871 88.8391 94.787 93.9245 94.787C99.0099 94.787 101.09 94.4871 98.5476 94.1207Z" fill="#1363FE"/>
</svg>
