<svg width="692" height="138" viewBox="0 0 692 138" fill="none" xmlns="http://www.w3.org/2000/svg">
<path fill-rule="evenodd" clip-rule="evenodd" d="M131.422 14.4626C129.317 14.6286 127.595 15.1071 127.595 15.526C127.595 15.945 126.848 16.2874 125.936 16.2874C125.024 16.2874 124.472 16.6024 124.71 16.9875C125.06 17.5546 113.894 25.1493 112.709 25.1493C112.522 25.1493 110.757 26.2369 108.787 27.5662C106.818 28.8955 104.52 29.9831 103.681 29.9831C102.843 29.9831 100.901 31.0562 99.3672 32.367C97.8333 33.6786 96.1157 34.7662 95.5509 34.7839C94.9862 34.8024 94.1499 35.8014 93.6923 37.005C93.1437 38.4487 92.6571 38.8636 92.2623 38.2264C91.4535 36.9164 88.1238 39.2246 88.1069 41.1065C88.0956 42.2811 87.986 42.3029 87.3133 41.262C86.6422 40.2227 86.5303 40.2469 86.5198 41.4296C86.5133 42.1861 85.097 44.2888 83.3722 46.1014C80.861 48.7415 79.7831 49.3361 77.9535 49.0911C76.3809 48.8801 75.2055 49.3071 74.1791 50.4615C73.3598 51.384 72.9424 51.6474 73.2526 51.0472C73.6385 50.2996 73.1535 50.3906 71.7098 51.3373C70.5513 52.0962 69.8029 53.0404 70.047 53.4343C70.2903 53.8291 69.7827 54.1521 68.9175 54.1521C68.0522 54.1521 67.1652 54.621 66.9453 55.1938C66.7254 55.7666 64.4205 57.8484 61.8239 59.819C59.2265 61.7903 55.921 64.5513 54.4773 65.9539C48.3013 71.9574 42.5032 76.4674 41.219 76.2692C39.2774 75.9687 32.7961 81.903 29.5873 86.9189C26.5307 91.6971 26.2866 92.8225 28.3063 92.8225C30.1424 92.8225 31.9526 98.4402 31.2775 102.041C30.8602 104.264 31.0479 104.753 32.4618 105.122C33.3858 105.364 34.1415 105.979 34.1415 106.49C34.1415 107.001 33.779 107.195 33.3359 106.921C32.8831 106.642 32.5552 107.238 32.5867 108.283C32.6551 110.538 33.9941 113.97 34.0972 112.158C34.1584 111.088 34.2535 111.087 34.9262 112.151C35.5312 113.108 35.8898 113.149 36.6857 112.353C37.4454 111.593 37.4535 111.352 36.7196 111.352C36.1878 111.352 35.7528 110.99 35.7528 110.546C35.7528 110.103 36.6591 109.741 37.7669 109.741C38.8746 109.741 39.781 110.08 39.781 110.494C39.781 112.184 38.189 115.13 35.9155 117.647C33.1063 120.756 31.8745 124.666 34.152 123.243C34.9061 122.772 35.5248 121.808 35.5272 121.099C35.5369 118.383 35.7899 117.862 36.8912 118.285C37.5703 118.545 38.1415 118.136 38.3091 117.268C38.4879 116.337 39.3097 115.809 40.5946 115.798C42.0287 115.787 42.6015 115.342 42.6039 114.238C42.6063 113.388 43.0591 112.542 43.6109 112.358C44.1628 112.174 44.6148 111.67 44.6148 111.238C44.6148 110.805 44.2772 110.66 43.8647 110.915C42.6909 111.641 42.0964 110.017 43.2138 109.137C43.7624 108.706 45.2085 108.113 46.4274 107.823C47.6456 107.532 48.6429 106.916 48.6429 106.455C48.6429 105.995 48.1902 105.89 47.6359 106.223C46.9519 106.634 46.9833 106.391 47.7342 105.465C49.0103 103.892 50.6393 103.606 49.7603 105.108C49.4365 105.663 49.9593 105.425 50.9213 104.581C52.8556 102.884 53.2238 102.083 51.6641 102.964C50.8882 103.401 50.8737 103.297 51.6012 102.51C52.12 101.948 52.365 100.898 52.1442 100.176C51.8187 99.1097 51.913 99.1274 52.6501 100.275C53.7579 101.997 55.2161 102.149 54.574 100.476C54.3186 99.8114 54.5112 99.2676 55.0018 99.2676C55.4924 99.2676 55.8936 98.5425 55.8936 97.6563C55.8936 96.7701 56.1659 96.1023 56.4979 96.1732C57.749 96.4382 59.9218 95.0243 59.9218 93.9448C59.9218 93.3277 60.2843 92.8225 60.7274 92.8225C61.1705 92.8225 61.5331 93.1996 61.5331 93.6596C61.5331 94.1196 62.3266 93.7579 63.2958 92.8548C64.265 91.9517 66.0776 90.7609 67.324 90.2099C68.5703 89.658 69.5894 88.9555 69.5894 88.6478C69.5894 88.34 70.3145 88.1434 71.2007 88.2103C72.0869 88.2772 72.8176 88.7074 72.824 89.1674C72.8313 89.6266 73.1882 89.459 73.6176 88.7944C74.2895 87.7543 74.4006 87.7769 74.4111 88.9555C74.4176 89.7088 73.9277 90.6151 73.3219 90.9696C72.5872 91.3998 72.4341 92.1506 72.8619 93.2254C73.2156 94.1116 73.5298 94.3839 73.5612 93.8296C73.6417 92.3907 75.7404 92.5865 77.6369 94.2098C79.6308 95.9178 79.7041 96.8467 77.8471 96.8628C76.6508 96.8733 76.6194 96.9901 77.6393 97.6354C78.395 98.1131 79.1273 98.1083 79.6131 97.6225C80.9311 96.3045 81.7714 96.7742 80.9247 98.3564C80.4816 99.1838 80.3067 100.049 80.5363 100.278C80.7651 100.507 79.7025 101.468 78.1742 102.413C75.4222 104.114 72.8119 107.283 72.8119 108.923C72.8119 109.391 74.7156 108.675 77.0415 107.332C79.3682 105.99 81.1809 104.532 81.0697 104.093C80.9593 103.655 81.4338 103.296 82.1243 103.296C82.8147 103.296 83.1853 102.98 82.946 102.593C82.7075 102.207 84.1045 101.283 86.0501 100.54C87.9957 99.7969 89.806 98.6215 90.0718 97.9286C90.4626 96.9111 90.7848 96.8604 91.754 97.6644C92.413 98.2114 92.9528 98.3129 92.9528 97.8892C92.9528 97.4654 93.4563 97.119 94.0718 97.119C95.3391 97.119 101.2 94.487 101.815 93.6419C102.036 93.3373 102.943 92.6767 103.829 92.174C105.111 91.4465 105.173 91.2556 104.129 91.2354C103.407 91.2226 102.37 91.7511 101.822 92.4109C101.274 93.0707 100.53 93.4276 100.168 93.2036C99.8055 92.9796 99.2826 93.1625 99.0055 93.6105C98.249 94.8358 95.3697 96.2191 95.3697 95.3579C95.3697 94.9486 98.361 93.032 102.016 91.0993C110.398 86.6683 110.522 86.6208 109.065 88.3851C107.903 89.7934 107.957 89.7974 110.475 88.4955C113.141 87.117 114.08 86.0496 111.885 86.8915C109.948 87.6351 110.494 86.4178 112.489 85.5436C113.486 85.1062 115.752 83.8389 117.525 82.7263C119.297 81.6138 121.164 80.5052 121.674 80.2627C122.185 80.0194 122.798 79.0736 123.037 78.16C123.431 76.6551 123.589 76.6172 124.729 77.7564C125.712 78.7401 125.807 79.4869 125.164 81.1763C124.478 82.9833 124.543 83.2613 125.566 82.8698C126.239 82.6111 126.789 82.7698 126.789 83.2218C126.789 83.6746 127.877 84.4238 129.206 84.8871C131.876 85.8176 132.157 86.8133 130.403 89.1311C129.558 90.2485 129.472 90.9639 130.095 91.714C130.569 92.2852 130.745 93.0932 130.488 93.5097C129.761 94.686 130.927 99.3603 132.055 99.7929C132.609 100.006 134.766 98.5248 136.848 96.5011C138.929 94.4781 140.962 92.8225 141.365 92.8225C142.451 92.8225 142.251 94.1639 140.976 95.4392C140.201 96.2143 140.09 96.9788 140.616 97.9198C141.431 99.3748 140.906 100.879 139.584 100.879C139.141 100.879 139.057 100.426 139.396 99.8718C139.756 99.2845 139.188 99.4086 138.034 100.169C135.646 101.743 134.958 104.101 136.887 104.101C137.759 104.101 138.075 103.672 137.777 102.893C137.522 102.228 137.652 101.685 138.065 101.685C139.127 101.685 140.546 104.568 139.853 105.317C138.379 106.909 143.895 104.656 145.806 102.887C146.996 101.782 148.462 100.879 149.062 100.879C149.662 100.879 150.153 100.516 150.153 100.073C150.153 99.6301 150.697 99.2676 151.361 99.2676C152.026 99.2676 152.57 98.9051 152.57 98.462C152.57 98.0189 153.113 97.6563 153.778 97.6563C154.443 97.6563 154.987 97.3341 154.987 96.9401C154.987 96.547 156.255 95.9863 157.806 95.6954C159.494 95.3788 160.626 94.6956 160.626 93.9947C160.626 93.3502 160.928 92.8225 161.297 92.8225C161.667 92.8225 161.969 93.894 161.969 95.204C161.969 96.6461 161.624 97.413 161.096 97.148C160.616 96.9079 160.991 97.3768 161.929 98.1905C162.867 99.0042 163.811 100.416 164.028 101.327C164.367 102.754 164.105 102.936 162.121 102.645C159.953 102.327 158.949 103.467 160.533 104.447C161.543 105.071 166.351 103.28 165.849 102.468C165.316 101.606 166.218 101.065 169.038 100.553C170.279 100.329 172.361 98.9502 173.664 97.4904C174.967 96.0306 176.387 94.8366 176.818 94.8366C177.25 94.8366 177.916 94.3307 178.298 93.712C178.68 93.094 179.537 92.7968 180.204 93.0522C180.979 93.3502 181.568 92.9289 181.842 91.88C182.088 90.939 182.65 90.479 183.167 90.798C183.984 91.3031 193.336 86.9301 199.97 82.9423L202.657 81.327L202.387 83.2484C202.148 84.9467 202.396 85.1416 204.533 84.9314C205.862 84.8009 206.587 84.9821 206.144 85.3342C205.701 85.6862 205.339 86.5185 205.339 87.1831C205.339 87.8582 204.693 88.3384 203.875 88.2707C203.07 88.2047 202.587 88.3255 202.801 88.539C203.015 88.7533 202.482 89.6371 201.617 90.5023C199.681 92.4375 200.338 93.9899 202.584 92.7871C204.443 91.7929 206.031 92.518 205.429 94.0866C205.196 94.6924 205.359 95.4054 205.79 95.6721C206.221 95.9387 206.39 96.4527 206.166 96.8153C205.942 97.177 206.305 97.927 206.973 98.4813C207.971 99.3103 209.513 98.9123 215.625 96.2497C219.716 94.4676 223.947 92.6687 225.028 92.2522C226.109 91.8356 226.652 91.2846 226.236 91.0284C225.82 90.7714 222.942 91.7849 219.84 93.2809C213.782 96.2014 212.992 96.4374 212.992 95.3273C212.992 94.9317 214.442 94.0286 216.215 93.3196C217.987 92.6099 219.437 91.8244 219.437 91.573C219.437 91.3216 219.075 91.3402 218.632 91.6141C217.488 92.3214 217.68 91.0687 218.979 89.3559C219.7 88.4053 220.19 88.2337 220.399 88.8596C220.617 89.5146 221.152 89.3809 222.099 88.4343C222.859 87.6745 223.274 86.7199 223.022 86.3122C222.771 85.9054 222.97 85.5718 223.465 85.5718C223.961 85.5718 224.163 85.2431 223.915 84.8411C223.666 84.4399 224.279 84.3118 225.277 84.5575C226.275 84.8033 226.824 84.7147 226.499 84.3602C225.564 83.3435 230.023 81.3342 231.015 82.3259C232.254 83.565 234.83 83.3273 236.493 81.8216C237.304 81.0885 237.967 80.8774 237.967 81.3527C237.967 81.8281 238.187 82.7908 238.456 83.4917C238.725 84.1926 238.587 84.7662 238.15 84.7662C236.892 84.7662 228.156 88.9192 228.561 89.3245C228.762 89.5259 230.848 88.763 233.197 87.6294C235.546 86.4967 237.67 85.878 237.918 86.2542C238.167 86.6313 238.913 86.9479 239.578 86.9591C242.068 86.9986 243.253 87.6504 245.009 89.948C246.62 92.0556 246.685 92.452 245.613 93.6362C244.016 95.4006 244.098 95.9766 245.878 95.5109C246.685 95.2999 247.787 95.6616 248.33 96.315C249.179 97.3381 249.663 97.185 251.829 95.2064C253.211 93.9432 254.556 92.9337 254.815 92.9619C255.075 92.9901 255.469 92.9434 255.691 92.858C257.943 91.9895 259.653 92.2223 259.972 93.4405C260.193 94.2832 260.375 93.9585 260.431 92.6211C260.491 91.1863 260.969 90.4056 261.787 90.4056C262.725 90.4056 262.907 89.9384 262.493 88.593C262.187 87.5956 262.208 87.0381 262.541 87.3523C262.874 87.6673 264.433 87.3869 266.006 86.7295C267.956 85.915 269.129 85.7974 269.69 86.3589C270.729 87.3974 272.059 87.4425 271.426 86.4186C270.83 85.4542 276.189 84.394 277.515 85.2133C278.106 85.5783 278.29 85.4848 277.977 84.9789C277.459 84.1402 281.945 81.567 284.01 81.5179C284.607 81.5042 285.8 80.9604 286.66 80.3094C287.521 79.6593 288.88 79.1268 289.681 79.1268C290.483 79.1268 291.139 78.7256 291.139 78.2349C291.139 77.7443 291.682 77.5518 292.347 77.8071C293.012 78.0617 293.555 77.8805 293.555 77.4043C293.555 76.9274 294.088 76.7421 294.738 76.991C295.388 77.2408 296.109 77.1401 296.34 76.7679C296.57 76.3949 298.447 75.8366 300.512 75.5272C302.576 75.2178 304.846 74.6555 305.557 74.2777C306.268 73.9006 308.026 73.2247 309.467 72.776C311.715 72.0751 312.083 72.1532 312.067 73.3278C312.042 75.2211 309.583 78.1205 307.721 78.45C306.848 78.6047 305.833 79.7745 305.385 81.1409C304.949 82.4702 304.246 83.7841 303.822 84.0613C303.356 84.365 303.42 84.7928 303.982 85.14C304.575 85.5066 304.639 86.0544 304.161 86.6506C302.946 88.1611 304.552 91.1992 306.621 91.3063C307.632 91.3595 308.731 91.3595 309.064 91.3063C309.397 91.254 309.668 91.8356 309.668 92.5994C309.668 93.7394 309.891 93.6677 310.923 92.1966C312.255 90.2929 314.13 89.72 313.485 91.4127C313.275 91.967 313.421 93.2769 313.81 94.3242C314.317 95.689 314.802 96.0056 315.517 95.4425C316.067 95.0098 317.513 94.4177 318.732 94.1269C319.95 93.836 320.947 93.2415 320.947 92.8072C320.947 92.3722 321.866 92.0169 322.989 92.0169C324.113 92.0169 325.907 91.4441 326.976 90.7432C328.704 89.6105 330.353 89.049 332.514 88.8564C332.893 88.8218 332.995 88.2506 332.74 87.5859C332.485 86.9213 332.597 86.3775 332.99 86.3775C333.382 86.3775 333.846 86.8077 334.022 87.3346C334.231 87.9622 334.897 87.7342 335.963 86.6683C338.627 84.0041 340.335 83.7294 342.365 85.6363C344.068 87.2355 344.367 87.2733 346.596 86.1608C348.905 85.0087 349.008 85.0361 349.364 86.8987C349.567 87.9622 349.414 89.0304 349.023 89.2721C348.632 89.5138 348.497 90.0109 348.724 90.3766C348.95 90.7432 348.593 91.2499 347.931 91.5045C346.369 92.1039 346.372 93.6282 347.936 93.6282C348.6 93.6282 349.132 94.0817 349.118 94.6352C349.081 96.0306 346.275 99.2676 345.102 99.2676C344.562 99.2676 344.349 99.8171 344.618 100.518C344.893 101.235 344.758 101.558 344.302 101.276C343.863 101.005 343.505 101.207 343.505 101.723C343.505 102.24 343.021 102.477 342.431 102.25C341.84 102.024 341.356 102.331 341.356 102.934C341.356 103.537 341.606 103.876 341.912 103.687C343.199 102.891 347.177 101.435 347.734 101.555C348.066 101.626 349.106 100.917 350.045 99.9782C351.077 98.9462 351.953 98.5981 352.263 99.0992C352.944 100.203 357.357 99.3192 356.949 98.1599C356.774 97.6612 355.943 97.3784 355.103 97.5315C353.789 97.7699 353.844 97.5742 355.492 96.1385C356.546 95.2193 357.717 94.6578 358.093 94.8906C358.47 95.1234 359.489 94.9333 360.358 94.4693C361.478 93.8691 362.097 93.8828 362.489 94.5176C362.876 95.1436 363.271 95.084 363.808 94.3186C364.406 93.4646 364.664 93.4469 364.985 94.2372C365.437 95.3555 369.142 93.6201 371.83 91.03C372.624 90.2663 374.222 89.4026 375.384 89.111C376.941 88.7203 377.21 88.4012 376.411 87.8945C375.669 87.4248 376.089 87.1928 377.744 87.1589L380.161 87.1106L377.744 85.9714L375.327 84.8323L377.552 85.2915C379.365 85.6661 379.684 85.5114 379.278 84.4528C379.004 83.739 379.152 83.1549 379.605 83.1549C380.059 83.1549 380.612 83.6085 380.836 84.162C381.161 84.9676 381.255 84.9676 381.306 84.162C381.341 83.6085 382.004 83.1493 382.779 83.1429C383.66 83.1348 383.852 82.9084 383.291 82.5386C382.796 82.2132 382.138 81.1312 381.827 80.1346C381.37 78.6708 381.659 78.1713 383.33 77.5365C384.467 77.1038 385.398 76.3844 385.398 75.9381C385.398 75.4918 384.126 75.8406 382.572 76.7131C381.018 77.5864 379.477 78.3558 379.148 78.4243C378.162 78.6281 374.565 81.0434 373.93 81.928C373.264 82.8552 373.187 82.7126 372.914 80.0678C372.762 78.5886 373.041 78.2728 374.227 78.583C375.055 78.7997 375.554 78.6885 375.337 78.3373C374.757 77.3979 376.663 76.0589 379.249 75.59C380.492 75.3645 381.931 74.8569 382.447 74.4614C384.645 72.7752 390.118 71.1317 390.429 72.0646C390.939 73.5953 396.299 71.6771 396.162 70.0135C396.101 69.265 396.553 68.6535 397.169 68.6535C397.784 68.6535 398.288 69.2191 398.288 69.9095C398.288 70.6523 398.667 70.9311 399.216 70.5919C399.726 70.2769 400.681 70.7087 401.338 71.5514C402.49 73.0297 402.514 73.0305 402.007 71.5707C401.552 70.2616 401.793 70.1198 403.795 70.5202C405.088 70.7788 406.517 70.5758 407.032 70.0602C407.54 69.5526 407.955 69.4463 407.955 69.8241C407.955 70.202 408.681 69.6751 409.567 68.6535C410.453 67.632 411.178 67.205 411.178 67.7045C411.178 68.3474 411.783 68.3837 413.244 67.8278C415.792 66.8594 416.012 66.8562 416.012 67.7843C416.012 68.1919 414.924 68.7647 413.595 69.0564C412.266 69.348 411.178 69.887 411.178 70.2535C411.178 70.6201 411.959 70.7152 412.915 70.4654C414.106 70.1536 414.471 70.3043 414.076 70.9432C413.329 72.1524 414.608 72.1524 415.817 70.9432C416.523 70.2374 417.042 70.2543 417.957 71.014C419.021 71.8962 418.977 72.2209 417.589 73.7097C415.49 75.9631 415.508 77.7838 417.623 77.1127C418.852 76.7228 419.234 76.9677 419.234 78.1439C419.234 78.9922 419.959 80.5221 420.846 81.5437C422.604 83.5715 422.91 84.336 421.651 83.5578C421.208 83.2838 420.846 83.4442 420.846 83.913C420.846 84.3819 421.271 84.7662 421.791 84.7662C422.312 84.7662 421.886 85.6725 420.846 86.7803C419.805 87.888 419.198 88.8395 419.497 88.8951C419.796 88.9507 420.402 89.086 420.846 89.1972C421.289 89.3084 422.074 89.4437 422.591 89.4993C423.725 89.621 422.69 90.8085 421.45 90.8085C420.97 90.8085 420.409 91.312 420.204 91.9275C419.998 92.5446 420.198 92.8201 420.65 92.5406C421.099 92.2626 421.657 92.7557 421.887 93.637C422.309 95.2507 424.874 95.9347 424.874 94.4338C424.874 93.9907 425.418 93.6282 426.082 93.6282C426.747 93.6282 427.291 93.3059 427.291 92.912C427.291 92.518 427.744 92.2127 428.298 92.2336C430.903 92.3303 432.124 91.9307 432.124 90.9825C432.124 90.4129 433.302 89.2351 434.743 88.3642C437.635 86.6143 442.598 85.4397 442.598 86.504C442.598 86.8778 442.232 87.1831 441.786 87.1831C441.297 87.1831 441.363 87.8091 441.953 88.7533C442.682 89.9198 443.202 90.1011 443.975 89.4606C444.63 88.9168 445.015 88.8951 445.015 89.4026C445.015 90.4024 442.607 92.4818 442.574 91.511C442.56 91.1251 442.184 91.4352 441.737 92.2006C441.148 93.2117 441.281 94.1349 442.222 95.5706C443.2 97.0634 443.311 97.9359 442.672 99.129C442.031 100.327 442.114 100.949 443.017 101.698C443.986 102.502 444.209 102.443 444.209 101.38C444.209 100.611 444.871 100.073 445.82 100.073C446.706 100.073 447.443 99.6205 447.457 99.0662C447.474 98.3854 447.8 98.4644 448.464 99.3079C449.266 100.329 449.978 100.402 452.353 99.7107C453.952 99.2459 455.799 98.4136 456.458 97.8626C457.117 97.3115 458.83 96.6251 460.266 96.3383C461.703 96.0507 463.057 95.3466 463.278 94.773C463.497 94.1994 464.191 93.9271 464.82 94.168C465.512 94.4338 465.961 94.0979 465.961 93.3116C465.961 91.7801 467.262 91.5819 467.845 93.024C468.087 93.6258 468.276 93.463 468.314 92.6211C468.358 91.6632 469.037 91.2113 470.436 91.2113C471.568 91.2113 474.016 90.5184 475.874 89.6717C477.733 88.825 479.47 88.1901 479.734 88.2619C479.998 88.3336 480.724 88.0049 481.345 87.5319C481.967 87.059 484.652 85.9714 487.31 85.115C489.969 84.2587 492.618 82.9237 493.197 82.1479C494.35 80.6043 495.77 80.2708 495.77 81.5437C495.77 81.9868 495.135 82.3856 494.36 82.4299C493.419 82.483 493.621 82.7247 494.964 83.1549C496.675 83.7028 496.735 83.8204 495.367 83.9372L493.755 84.0742L495.367 84.7662C496.452 85.2327 496.583 85.4808 495.77 85.5275C494.698 85.5888 494.697 85.683 495.765 86.3581C496.799 87.0115 496.742 87.2919 495.363 88.3344C494.476 89.0038 494.207 89.5605 494.762 89.5742C495.317 89.5887 495.77 90.1132 495.77 90.7408C495.77 91.3684 496.861 92.3649 498.195 92.9555C499.53 93.546 500.463 94.4419 500.27 94.9462C500.055 95.5069 500.512 95.7075 501.45 95.4618C502.701 95.1347 502.826 94.7698 502.13 93.4703C501.662 92.5954 501.489 91.6681 501.747 91.4111C502.004 91.1533 502.215 91.366 502.215 91.8824C502.215 92.3996 502.577 92.8225 503.02 92.8225C503.463 92.8225 503.826 92.2916 503.826 91.6423C503.826 90.9938 504.551 90.0745 505.437 89.6C506.323 89.1255 507.048 88.4222 507.048 88.0355C507.048 87.2081 503.863 87.8776 502.416 89.0095C501.863 89.4429 501.411 89.4808 501.414 89.0941C501.422 88.058 506.108 85.5718 508.054 85.5718C508.978 85.5718 509.486 85.3245 509.183 85.0216C508.88 84.7187 509.81 83.9759 511.249 83.3709C513.377 82.4758 513.642 82.1181 512.672 81.4518C511.761 80.8259 511.907 80.7525 513.292 81.1425C514.653 81.5251 515.105 81.3165 515.105 80.303C515.105 79.4353 515.536 79.1195 516.313 79.4184C516.978 79.673 517.522 79.5562 517.522 79.1574C517.522 78.7401 518.521 78.7199 519.886 79.1115C521.771 79.6521 522.162 79.5594 521.814 78.6523C521.555 77.9771 521.881 77.5155 522.616 77.5155C523.297 77.5155 523.971 76.7284 524.112 75.7657C524.406 73.7709 526.384 72.722 526.384 74.5613C526.384 75.2259 525.93 75.9292 525.377 76.1234C524.823 76.3175 525.366 76.4835 526.585 76.4924C527.804 76.5012 528.8 76.1185 528.8 75.6424C528.8 75.043 529.077 75.0527 529.697 75.673C530.957 76.933 529.996 78.1077 527.203 78.7207C525.155 79.1703 524.855 79.5667 525.083 81.5179C525.326 83.6125 525.087 83.8365 522.039 84.3578C519.293 84.8282 519.004 85.0385 520.341 85.5944C522.655 86.5563 524.958 86.5249 524.349 85.5396C524.013 84.9958 524.565 84.8854 525.923 85.2262C527.627 85.654 527.921 85.5114 527.515 84.4528C526.844 82.703 528.508 82.794 529.551 84.5648C530.111 85.5146 530.584 85.6862 531.001 85.0893C531.341 84.6027 532.164 84.1789 532.829 84.1475C533.493 84.1161 534.853 83.9002 535.85 83.6689C536.846 83.4369 537.662 83.6279 537.662 84.0927C537.662 84.5584 537.111 84.7267 536.435 84.4673C535.457 84.0927 535.37 84.2981 536.004 85.484C537.023 87.3877 536.166 88.2731 534.561 86.9744C533.567 86.1704 533.447 86.1785 533.952 87.0171C534.301 87.598 534.11 88.6236 533.521 89.3341C532.572 90.4757 532.826 90.5474 535.95 90.0197L539.439 89.4308L538.906 91.8558C538.595 93.2745 538.727 94.4991 539.226 94.8076C539.696 95.0977 540.079 94.748 540.079 94.031C540.079 93.314 540.442 92.9514 540.885 93.2254C541.328 93.4993 541.691 93.3776 541.691 92.9555C541.691 92.5333 542.507 92.1958 543.503 92.2054C547.092 92.2401 549.736 91.6503 549.646 90.8342C549.446 88.9982 549.79 87.9887 550.616 87.9887C551.171 87.9887 551.286 88.8999 550.934 90.5063C550.549 92.257 550.652 92.8564 551.272 92.4729C551.763 92.17 552.195 91.1275 552.233 90.1567C552.291 88.6856 552.417 88.7718 552.987 90.6755C553.807 93.4082 553.242 95.2934 551.772 94.7295C551.187 94.5047 549.155 95.0719 547.257 95.9887C545.358 96.9063 542.803 97.6563 541.579 97.6563C540.355 97.6563 539.064 98.1099 538.71 98.665C538.355 99.2193 537.035 100.205 535.775 100.856C534.515 101.506 533.882 102.17 534.37 102.332C534.857 102.495 535.06 102.944 534.822 103.33C534.583 103.716 533.766 103.808 533.004 103.535C532.243 103.262 531.889 103.335 532.217 103.698C532.546 104.06 532.403 104.851 531.901 105.456C531.399 106.062 531.219 106.789 531.502 107.072C532.247 107.816 536.226 105.842 535.698 104.988C535.454 104.594 535.815 104.055 536.501 103.792C537.206 103.521 537.535 103.656 537.26 104.101C536.992 104.534 537.245 104.742 537.822 104.562C538.399 104.383 539.883 104.014 541.119 103.742C542.525 103.434 543.155 102.904 542.8 102.33C542.425 101.724 542.686 101.585 543.563 101.921C544.323 102.213 544.812 102.062 544.702 101.568C544.597 101.092 545.943 100.192 547.694 99.5681C549.445 98.9446 551.154 97.9867 551.491 97.4404C551.829 96.895 552.753 96.4221 553.545 96.3907C555.345 96.3182 559.415 94.3758 559.415 93.5887C559.415 93.2656 558.962 93.0521 558.408 93.1134C557.315 93.235 556.998 92.7049 556.998 90.7609C556.998 90.0705 557.36 89.7289 557.803 90.0028C558.246 90.2767 558.609 90.1051 558.609 89.6226C558.609 89.1392 558.051 88.5293 557.367 88.2675C555.226 87.4457 560.156 85.3664 565.054 85.0248C567.491 84.8548 569.948 84.6671 570.515 84.6067C571.792 84.4713 571.376 82.9793 569.926 82.4967C569.289 82.2841 569.085 82.508 569.421 83.0502C569.767 83.6109 569.364 83.9606 568.372 83.9606C567.485 83.9606 566.552 83.623 566.297 83.2105C565.748 82.3219 566.924 81.4873 570.492 80.2353C572.626 79.4869 573.11 79.5223 573.11 80.4303C573.11 81.0426 572.679 81.5437 572.151 81.5437C571.623 81.5437 571.85 82.0246 572.654 82.6128C574.008 83.6037 573.906 83.7817 571.276 85.0297C569.714 85.7708 567.651 86.3775 566.692 86.3775C564.337 86.3775 561.67 87.8824 562.279 88.8677C562.551 89.3068 563.424 89.459 564.221 89.2061C565.084 88.9321 565.85 89.2181 566.117 89.915C566.61 91.1984 567.473 91.1525 571.096 89.6524C572.426 89.1021 574.212 88.5108 575.066 88.3392C575.919 88.1668 576.875 87.6093 577.191 87.0985C577.51 86.5821 578.216 86.4508 578.784 86.8012C579.46 87.2194 579.604 87.1082 579.21 86.4693C578.778 85.7716 579.242 85.6444 580.898 86.0077C582.646 86.3904 582.897 86.3066 581.972 85.6492C580.929 84.908 580.956 84.7896 582.174 84.7783C582.949 84.7718 583.584 84.3795 583.584 83.9066C583.584 83.4127 584.271 83.2645 585.195 83.5578C586.206 83.8784 586.806 83.7028 586.806 83.084C586.806 82.4492 587.35 82.5918 588.338 83.4861C589.878 84.8798 592.408 84.9684 593.358 83.6625C594.079 82.6724 600.181 82.877 601.892 83.9485C603.127 84.7211 603.066 84.7727 601.453 84.3296C599.996 83.9292 599.486 84.1878 599.143 85.4993C598.901 86.4258 598.361 87.1831 597.943 87.1831C597.526 87.1831 597.427 87.5746 597.722 88.054C598.033 88.5559 599.163 88.7025 600.388 88.3996C602.103 87.9767 602.321 88.0733 601.509 88.8983C600.143 90.2872 600.242 91.2113 601.758 91.2113C602.448 91.2113 602.79 91.5738 602.516 92.0169C602.242 92.46 602.562 92.8225 603.227 92.8225C603.891 92.8225 604.68 92.4262 604.98 91.9412C605.279 91.4562 606.389 91.225 607.444 91.4264C608.5 91.6286 609.364 91.4812 609.364 91.0993C609.364 90.7182 609.726 90.4056 610.169 90.4056C610.613 90.4056 610.975 90.9494 610.975 91.6141C610.975 93.0433 610.742 93.0078 614.002 92.0733C616.991 91.2161 617.454 92.1708 615.237 94.6207C614.067 95.9138 614.032 96.2505 615.008 96.8539C615.641 97.2447 616.532 97.2696 616.99 96.9095C617.448 96.5494 619.273 95.8018 621.046 95.2475C622.818 94.6924 624.613 93.9206 625.033 93.5307C626.042 92.5978 628.699 92.6195 628.699 93.5613C628.699 93.9673 628.246 94.5007 627.692 94.7464C627.139 94.9913 627.41 95.1122 628.296 95.0147C629.182 94.9164 630.148 94.5047 630.441 94.0979C630.734 93.6918 632.094 93.3599 633.462 93.3599C634.83 93.3599 635.95 93.148 635.949 92.8894C635.949 92.6316 638.215 92.3706 640.984 92.3102C647.73 92.1635 652.062 91.2604 652.062 90.002C652.062 89.4341 653.509 88.3908 655.276 87.6834C657.044 86.9761 659.863 84.9821 661.542 83.2524C664.119 80.5971 664.625 79.4974 664.794 76.1927C664.903 74.04 665.115 71.2823 665.264 70.0634C665.445 68.5971 665.165 67.8479 664.439 67.8479C663.835 67.8479 663.341 68.2322 663.341 68.7011C663.341 69.1699 662.955 69.3158 662.483 69.0241C661.922 68.6769 662.123 67.8946 663.066 66.7611C663.859 65.808 663.991 65.4818 663.36 66.0352C662.216 67.0407 660.2 67.4975 661.164 66.5339C661.444 66.2536 661.326 65.377 660.903 64.5843C660.479 63.7923 660.401 63.0246 660.729 62.878C661.058 62.7313 662.092 61.5172 663.025 60.1799C666.342 55.4323 662.261 51.1785 655.307 52.1348C653.079 52.4418 651.257 53.0597 651.257 53.5084C651.257 53.9612 651.884 54.0764 652.667 53.767C653.442 53.4601 655.345 53.0516 656.896 52.8591C659.531 52.5312 659.479 52.5916 656.091 53.7872C654.097 54.4913 651.426 55.2212 650.155 55.4105C648.18 55.7038 647.99 55.5797 648.844 54.5501C650.128 53.0025 649.094 53.0283 644.712 54.654C642.773 55.3735 640.559 55.9398 639.793 55.9141C639.026 55.8875 638.189 56.2057 637.932 56.6206C637.31 57.6276 635.144 57.5874 635.144 56.569C635.144 56.1259 635.869 55.7634 636.755 55.7634C637.642 55.7634 638.367 55.4428 638.367 55.052C638.367 53.9282 635.373 53.44 634.406 54.4067C633.926 54.8869 633.533 55.0053 633.533 54.6702C633.533 54.335 632.784 54.5848 631.869 55.226C630.955 55.8665 629.505 56.2073 628.647 55.9833C627.546 55.6957 627.088 55.9874 627.088 56.9767C627.088 58.1304 626.875 58.2004 625.879 57.3747C624.879 56.5441 624.668 56.6311 624.659 57.8806C624.652 58.7724 624.404 59.0351 624.055 58.5243C623.729 58.049 622.805 57.4174 622.002 57.1201C621.198 56.8236 620.751 56.2411 621.007 55.8262C621.263 55.4113 620.833 53.7864 620.051 52.2146C618.845 49.7937 618.198 49.3457 615.809 49.2764C614.258 49.2313 611.841 49.1314 610.438 49.0549C609.034 48.9784 607.947 49.2781 608.021 49.7212C608.095 50.1643 607.15 50.4575 605.921 50.3729C604.491 50.2738 603.882 50.5332 604.229 51.094C604.586 51.6724 604.047 51.8311 602.636 51.5612C601.462 51.3364 600.502 51.4911 600.502 51.9044C600.502 52.3177 599.686 52.5505 598.689 52.4216C597.692 52.2935 596.354 52.5127 595.716 52.9099C594.96 53.3795 594.44 53.2893 594.228 52.6496C593.996 51.9552 593.603 51.9141 592.886 52.5094C591.774 53.4327 588.486 54.0788 582.523 54.5453C579.601 54.7741 578.291 54.4994 577.224 53.4319C575.065 51.2728 573.326 50.8233 565.5 50.4003C561.536 50.186 557.629 49.6567 556.82 49.2233C555.498 48.5151 555.473 48.3105 556.584 47.2003C557.892 45.892 557.661 45.3949 553.193 39.9045C551.349 37.6375 545.792 37.1347 539.02 38.6244C536.279 39.227 532.95 39.9021 531.62 40.1261C530.291 40.3492 528.152 40.8777 526.868 41.2999C523.438 42.4269 523.161 42.3037 523.161 39.6507C523.161 38.3214 523.524 37.2338 523.967 37.2338C525.267 37.2338 524.857 33.7519 523.345 31.9513C520.978 29.1324 517.936 28.272 513.697 29.2218C511.628 29.6859 509.468 30.452 508.898 30.9249C508.329 31.3978 507.135 31.5944 506.247 31.3624C505.358 31.1296 504.631 31.2681 504.631 31.6701C504.631 32.0713 504.066 32.4 503.375 32.4C502.667 32.4 502.358 32.7867 502.667 33.2862C503.065 33.9299 502.763 33.9299 501.559 33.2862C499.135 31.9884 497.616 32.201 499.442 33.5827C501.27 34.9652 500.72 35.1279 497.875 34.0459C496.373 33.4747 495.939 33.5271 496.202 34.2473C496.398 34.7823 496.21 35.7636 495.786 36.4282C495.146 37.428 494.73 37.4618 493.374 36.6207C492.116 35.8409 491.783 35.8328 491.94 36.5845C492.052 37.1227 491.782 37.6101 491.339 37.6673C490.895 37.7245 489.512 38.1941 488.265 38.7114C485.486 39.8626 484.491 39.8981 484.491 38.8451C484.491 38.402 484.139 38.0395 483.71 38.0395C483.281 38.0395 483.168 38.6743 483.459 39.4493C483.929 40.7061 483.832 40.7335 482.566 39.7023C481.385 38.7412 481.032 38.7291 480.475 39.6298C480.107 40.2252 480.007 41.2894 480.253 41.9943C480.568 42.8999 480.437 43.036 479.805 42.46C479.151 41.863 479.192 40.8237 479.957 38.597C480.851 35.9972 480.913 33.9839 480.288 27.8442C480.237 27.3326 479.711 27.0998 479.12 27.3262C478.529 27.5533 478.046 27.4261 478.046 27.0434C478.046 23.957 460.206 23.8047 454.528 26.8428C453.695 27.2891 451.576 27.7112 449.819 27.7813C448.063 27.8514 446.626 28.2333 446.626 28.6289C446.626 29.0252 446.068 29.1356 445.387 28.8746C444.666 28.5974 443.946 28.9269 443.664 29.6617C443.319 30.56 443.01 30.651 442.594 29.9775C442.08 29.1461 434.793 30.9708 427.291 33.8099C426.626 34.0612 425.8 34.2063 425.455 34.1313C425.111 34.0572 424.62 34.5414 424.364 35.2077C424.108 35.8739 423.575 36.2187 423.178 35.973C422.782 35.7281 422.457 35.8208 422.456 36.1793C422.456 36.5378 421.535 36.8842 420.411 36.9494C419.285 37.0139 417.49 38.0113 416.421 39.1649C415.352 40.3186 413.938 41.262 413.278 41.262C412.618 41.262 411.839 41.6495 411.547 42.1224C411.255 42.5961 410.583 42.8177 410.056 42.6147C409.528 42.4124 408.424 42.7387 407.602 43.3397C406.779 43.9407 405.798 44.242 405.42 44.0084C405.042 43.7748 404.733 43.9681 404.733 44.437C404.733 44.9059 404.37 45.2902 403.927 45.2902C403.484 45.2902 403.122 44.3919 403.122 43.2946C403.122 42.0765 402.368 40.8052 401.184 40.0294C399.135 38.6864 395.065 38.7001 394.07 40.0536C393.745 40.4966 393.468 40.1341 393.454 39.2479C393.434 37.9114 393.296 37.8429 392.648 38.8451C392.128 39.6507 391.864 39.7176 391.855 39.0465C391.848 38.493 391.299 38.0395 390.634 38.0395C389.97 38.0395 389.426 37.7092 389.426 37.3047C389.426 36.9011 388.791 36.6924 388.016 36.8407C387.24 36.9889 386.335 37.138 386.002 37.1718C385.669 37.2064 385.398 37.7172 385.398 38.3077C385.398 38.8991 384.945 39.3857 384.391 39.3897C383.837 39.3937 382.477 39.6548 381.37 39.969C379.393 40.5289 379.385 40.5144 380.967 39.181C382.395 37.9766 382.41 37.8808 381.102 38.3335C380.291 38.6147 379.305 38.8451 378.912 38.8451C378.519 38.8451 378.406 39.3889 378.661 40.0536C378.916 40.7182 378.724 41.262 378.233 41.262C377.743 41.262 377.341 40.8302 377.341 40.3025C377.341 39.7224 376.943 39.8433 376.334 40.607C375.231 41.9919 365.431 45.4932 364.415 44.8648C364.068 44.6505 363.657 44.8527 363.503 45.3143C363.349 45.776 361.052 46.319 358.399 46.5212C355.235 46.7621 353.247 47.3341 352.622 48.184C352.098 48.897 351.282 49.241 350.809 48.9486C350.337 48.6569 349.95 48.8019 349.95 49.2708C349.95 49.7397 349.628 50.124 349.235 50.124C348.255 50.124 347.562 45.0872 348.399 44.0398C349.611 42.5244 348.293 39.9923 345.512 38.4955C344.017 37.6898 342.613 36.5611 342.393 35.9867C342.169 35.4034 341.298 35.1231 340.422 35.3527C339.559 35.5783 338.609 35.368 338.311 34.8854C337.637 33.7954 330.342 34.4616 324.17 36.1776C316.958 38.1829 309.435 40.5772 306.848 41.6914C303.969 42.9305 295.263 46.0958 294.733 46.0958C294.529 46.0958 294.361 45.552 294.361 44.8874C294.361 44.2227 294.748 43.6789 295.221 43.6789C295.732 43.6789 295.86 42.9828 295.537 41.9669C295.209 40.9301 295.305 40.4467 295.782 40.7416C297.08 41.544 299.993 38.5245 299.184 37.2161C298.781 36.5635 298.791 35.7072 299.207 35.2052C300.718 33.3845 299.009 30.6518 295.388 29.1002C293.421 28.2567 291.081 27.5662 290.189 27.5662C287.338 27.5662 280.225 29.9549 274.52 32.8286C271.476 34.3626 268.551 35.6185 268.023 35.6202C267.494 35.6218 265.753 36.3944 264.155 37.3378L261.247 39.053L261.81 36.8101C262.192 35.289 262.011 34.282 261.247 33.6842C260.628 33.1992 260.105 31.3551 260.085 29.586C260.024 24.2921 256.054 23.3616 246.829 26.477C243.507 27.5985 241.427 28.3525 240.384 28.8134C240.162 28.9116 239.15 29.2605 238.135 29.59C237.12 29.9187 236.423 30.5898 236.588 31.0812C237.019 32.3775 230.524 36.3662 229.405 35.4921C228.874 35.078 227.614 35.1174 226.383 35.5855C225.222 36.027 224.271 36.1599 224.271 35.8804C224.271 35.6016 223.631 35.9529 222.847 36.6618C222.064 37.3708 220.335 38.1418 219.005 38.3762C217.676 38.6107 214.308 39.9069 211.519 41.258C208.731 42.6082 206.14 43.5226 205.762 43.2882C205.383 43.0545 204.889 43.3188 204.664 43.8755C204.343 44.665 204.083 44.6457 203.483 43.7893C202.834 42.862 202.646 42.862 202.277 43.7893C201.98 44.5353 201.82 44.4209 201.777 43.43C201.742 42.6284 201.404 42.1635 201.025 42.3979C200.647 42.6316 199.933 41.9347 199.438 40.8495C198.683 39.1915 198.149 38.9539 196.1 39.3631C194.673 39.6491 193.176 39.4493 192.492 38.8814C190.831 37.5029 187.042 39.4582 186.319 42.0676C186.012 43.1754 185.726 43.5927 185.681 42.9949C185.622 42.1917 184.821 42.3681 182.608 43.6749L179.614 45.4408L178.177 43.6644C177.235 42.5019 176.739 40.5305 176.739 37.95C176.739 35.7837 176.388 34.0113 175.96 34.0113C175.532 34.0113 173.879 32.7086 172.286 31.1167C169.888 28.7183 169.02 28.3163 167.224 28.7747C166.032 29.0792 164.333 29.4724 163.448 29.648C162.564 29.8236 161.717 30.3352 161.567 30.7855C161.417 31.2359 161.024 31.4381 160.694 31.2343C160.051 30.8363 153.594 32.6184 151.203 33.8534C150.404 34.2667 148.392 34.85 146.732 35.1497C143.93 35.6556 143.728 35.5621 143.912 33.8461C144.042 32.6345 143.729 32.0778 143.004 32.2317C142.315 32.3775 142.072 32.0141 142.359 31.2657C142.693 30.3964 142.442 30.2063 141.451 30.5777C140.256 31.0248 140.223 30.9177 141.188 29.731C142.146 28.5539 142.108 28.3719 140.9 28.3719C139.983 28.3719 139.668 27.9521 139.978 27.1441C140.753 25.1244 139.568 18.7043 138.42 18.7043C137.733 18.7043 137.484 17.8825 137.686 16.2874C137.926 14.3893 137.697 13.9019 136.62 14.0155C135.866 14.0952 133.527 14.2966 131.422 14.4626ZM474.219 25.6827C473.665 25.9066 472.759 25.9066 472.205 25.6827C471.651 25.4595 472.104 25.2766 473.212 25.2766C474.32 25.2766 474.773 25.4595 474.219 25.6827ZM452.115 26.5052C452.696 26.738 453.391 26.709 453.658 26.4416C453.926 26.1741 453.45 25.984 452.601 26.0186C451.663 26.0573 451.472 26.2482 452.115 26.5052ZM467.572 29.9831C466.908 30.4125 466.001 30.7638 465.558 30.7638C465.115 30.7638 465.296 30.4125 465.961 29.9831C466.626 29.5537 467.532 29.2025 467.975 29.2025C468.418 29.2025 468.237 29.5537 467.572 29.9831ZM455.488 34.8169C454.823 35.2463 453.554 35.567 452.668 35.5299C451.34 35.4743 451.411 35.3487 453.071 34.8169C455.92 33.905 456.899 33.905 455.488 34.8169ZM162.237 39.1255C162.237 39.7232 160.774 40.8713 158.985 41.6777C156.721 42.6993 156.048 43.3446 156.769 43.8022C157.34 44.1639 157.444 44.47 157.001 44.4829C156.558 44.4958 155.414 44.7158 154.46 44.9719C153.125 45.3304 152.753 45.0992 152.848 43.973C152.925 43.0642 154.655 41.66 157.403 40.2767C162.586 37.6673 162.237 37.7502 162.237 39.1255ZM445.565 41.4135C445.308 42.0555 445.117 41.8646 445.078 40.9261C445.044 40.0769 445.234 39.6016 445.501 39.8691C445.769 40.1365 445.798 40.8318 445.565 41.4135ZM436.153 41.262C436.153 41.7051 435.768 42.0676 435.299 42.0676C434.831 42.0676 434.67 41.7051 434.944 41.262C435.218 40.8189 435.602 40.4564 435.797 40.4564C435.993 40.4564 436.153 40.8189 436.153 41.262ZM433.736 42.0676C433.736 42.5107 433.17 42.8733 432.48 42.8733C431.789 42.8733 431.448 42.5107 431.722 42.0676C431.996 41.6245 432.56 41.262 432.978 41.262C433.395 41.262 433.736 41.6245 433.736 42.0676ZM461.933 42.0676C461.933 42.5107 461.549 42.8733 461.08 42.8733C460.611 42.8733 460.451 42.5107 460.724 42.0676C460.998 41.6245 461.382 41.262 461.578 41.262C461.773 41.262 461.933 41.6245 461.933 42.0676ZM477.664 43.5234C477.416 43.7715 476.766 43.5242 476.219 42.9732C475.43 42.1772 475.522 42.0854 476.67 42.522C477.465 42.8249 477.912 43.2753 477.664 43.5234ZM430.513 43.2656C430.513 43.6153 425.131 46.0958 424.373 46.0958C423.263 46.0958 424.395 44.3008 425.881 43.7039C427.879 42.9007 430.513 42.6517 430.513 43.2656ZM437.764 43.6789C437.764 44.122 437.38 44.4845 436.911 44.4845C436.442 44.4845 436.282 44.122 436.555 43.6789C436.829 43.2358 437.213 42.8733 437.409 42.8733C437.604 42.8733 437.764 43.2358 437.764 43.6789ZM329.406 45.3135C328.077 46.207 326.354 46.7822 325.579 46.5921C324.802 46.4019 324.345 46.5333 324.562 46.8853C324.779 47.2366 324.327 47.7425 323.556 48.0092C318.707 49.6905 314.815 50.907 314.253 50.9175C312.676 50.9473 314.749 49.3925 316.924 48.9147C318.245 48.6239 319.6 47.9335 319.935 47.38C320.511 46.4269 328.011 43.8779 330.615 43.749C331.279 43.7168 330.735 44.4201 329.406 45.3135ZM423.507 47.4283C423.279 48.0197 422.756 48.2944 422.342 48.039C421.93 47.7844 420.106 48.35 418.289 49.2966C416.473 50.2432 414.478 50.8225 413.856 50.584C413.128 50.3044 412.808 50.617 412.958 51.4629C413.087 52.1856 412.788 52.9187 412.294 53.0927C411.798 53.2667 411.437 52.6327 411.488 51.6764C411.56 50.3391 412.627 49.5528 416.179 48.2219C418.707 47.2744 421.224 46.0475 421.773 45.4964C422.954 44.3089 424.179 45.6745 423.507 47.4283ZM425.152 50.5614C424.889 51.2454 424.502 51.6321 424.29 51.421C424.079 51.21 424.145 50.65 424.438 50.1779C425.232 48.8922 425.696 49.1419 425.152 50.5614ZM318.056 51.417C318.764 51.6877 319.07 52.3129 318.748 52.8269C318.43 53.3344 318.16 54.2617 318.148 54.8885C318.137 55.5153 316.498 56.5658 314.502 57.2248C312.508 57.883 310.655 58.7612 310.384 59.1753C310.113 59.5902 309.655 59.8891 309.368 59.8407C309.08 59.7924 306.865 60.6584 304.444 61.7654C302.024 62.8723 299.123 64.0091 297.998 64.2918C296.872 64.5738 295.605 65.3996 295.181 66.1255C294.574 67.1655 294.405 67.1978 294.385 66.2769C294.367 65.3682 294.146 65.3239 293.394 66.0755C292.863 66.6072 291.684 67.0278 290.776 67.0109C289.564 66.9875 289.876 66.6322 291.944 65.6767C293.495 64.9597 295.046 64.4336 295.391 64.5069C295.736 64.5803 296.238 64.0655 296.507 63.3629C296.976 62.1416 300.544 60.1944 301.813 60.4675C302.146 60.5384 302.417 60.2347 302.417 59.7916C302.417 59.3485 303.098 58.9859 303.93 58.9859C305.638 58.9859 307.777 56.8268 306.919 55.9688C306.611 55.6603 306.07 55.873 305.719 56.4417C305.368 57.0097 303.937 57.5076 302.54 57.5479C301.144 57.5874 300.001 57.9878 300.001 58.4373C300.001 58.8868 299.804 59.0576 299.563 58.8176C298.841 58.0957 301.931 52.582 303.069 52.561C303.649 52.5497 303.915 52.8784 303.661 53.2909C303.405 53.7034 303.574 54.2738 304.035 54.559C304.497 54.8442 304.822 54.7789 304.759 54.4132C304.44 52.5755 305.074 52.0575 307.642 52.0575C309.381 52.0575 310.072 52.3097 309.455 52.7213C308.077 53.6389 311.962 53.0138 314.502 51.9084C315.61 51.4259 316.577 51.0086 316.651 50.9804C316.726 50.953 317.359 51.1487 318.056 51.417ZM645.362 56.7205C645.105 57.3626 644.914 57.1717 644.875 56.2331C644.841 55.384 645.031 54.9086 645.298 55.1761C645.566 55.4436 645.595 56.1388 645.362 56.7205ZM409.567 57.3747C409.567 57.8178 409.204 58.1803 408.761 58.1803C408.318 58.1803 407.955 57.8178 407.955 57.3747C407.955 56.9316 408.318 56.569 408.761 56.569C409.204 56.569 409.567 56.9316 409.567 57.3747ZM421.12 58.2278C420.485 58.8635 408.316 63.8028 407.351 63.8165C407.241 63.8181 407.15 63.4814 407.15 63.0681C407.15 62.6548 407.965 62.061 408.962 61.7493C409.96 61.4367 412.588 60.3708 414.803 59.3807C419.746 57.1716 421.147 56.7004 421.597 57.0959C421.79 57.2635 421.575 57.7735 421.12 58.2278ZM561.831 57.3747C561.831 57.8178 561.288 58.1803 560.623 58.1803C559.958 58.1803 559.415 57.8178 559.415 57.3747C559.415 56.9316 559.958 56.569 560.623 56.569C561.288 56.569 561.831 56.9316 561.831 57.3747ZM407.15 58.1803C407.15 58.6234 406.787 58.9859 406.344 58.9859C405.901 58.9859 405.539 58.6234 405.539 58.1803C405.539 57.7372 405.901 57.3747 406.344 57.3747C406.787 57.3747 407.15 57.7372 407.15 58.1803ZM74.8308 60.5924C73.218 62.3736 72.0063 62.6894 72.0063 61.3271C72.0063 60.8429 72.7314 60.2564 73.6176 60.0252C74.5038 59.7932 75.2288 59.2228 75.2288 58.7579C75.2288 58.2923 75.4681 58.1513 75.7614 58.4437C76.0538 58.7362 75.6349 59.703 74.8308 60.5924ZM66.3669 61.7581C66.3669 61.9539 66.0043 62.3374 65.5612 62.6113C65.1181 62.8852 64.7556 62.7249 64.7556 62.256C64.7556 61.7871 65.1181 61.4028 65.5612 61.4028C66.0043 61.4028 66.3669 61.5624 66.3669 61.7581ZM70.1139 64.2612C68.8659 65.6171 68.5171 65.1241 69.2011 62.9682C69.6095 61.6816 69.9423 61.4753 70.4031 62.2214C70.7543 62.7901 70.6246 63.7053 70.1139 64.2612ZM406.344 63.8197C406.344 64.2628 405.96 64.6254 405.491 64.6254C405.022 64.6254 404.862 64.2628 405.136 63.8197C405.41 63.3766 405.793 63.0141 405.989 63.0141C406.185 63.0141 406.344 63.3766 406.344 63.8197ZM403.927 64.6254C403.927 65.0685 403.768 65.431 403.572 65.431C403.376 65.431 402.993 65.0685 402.719 64.6254C402.445 64.1823 402.605 63.8197 403.074 63.8197C403.543 63.8197 403.927 64.1823 403.927 64.6254ZM65.964 66.2366C63.7469 67.1897 62.9582 67.1897 63.5471 66.2366C63.8211 65.7935 64.8394 65.4568 65.8102 65.4874C67.5117 65.5422 67.5173 65.5688 65.964 66.2366ZM401.151 66.1577C399.694 66.7281 399.723 66.8135 401.554 67.3565C403.432 67.9148 403.449 67.9744 401.913 68.6439C399.806 69.5623 398.386 69.6276 399.784 68.7422C401.851 67.4314 399.25 66.9722 396.519 68.1645C395.055 68.8042 394.401 69.3625 395.065 69.406C396.139 69.4753 396.139 69.5704 395.065 70.2648C393.409 71.3355 392.61 71.263 392.85 70.0634C393.104 68.7953 398.958 65.6123 401.108 65.5736C402.68 65.5446 402.681 65.5591 401.151 66.1577ZM288.319 69.4592C288.593 69.9023 288.454 70.2648 288.011 70.2648C287.568 70.2648 286.982 69.9023 286.708 69.4592C286.434 69.0161 286.572 68.6535 287.015 68.6535C287.458 68.6535 288.045 69.0161 288.319 69.4592ZM313.968 73.5381C313.348 74.1576 312.983 73.7927 312.69 72.2604C312.315 70.3011 312.39 70.2253 313.558 71.3919C314.471 72.3055 314.588 72.9178 313.968 73.5381ZM530.815 71.0704C530.541 71.5135 529.954 71.8761 529.511 71.8761C529.068 71.8761 528.929 71.5135 529.203 71.0704C529.477 70.6273 530.064 70.2648 530.507 70.2648C530.95 70.2648 531.088 70.6273 530.815 71.0704ZM403.927 72.2789C403.927 72.9435 404.279 73.4873 404.708 73.4873C405.137 73.4873 405.279 72.9435 405.025 72.2789C404.769 71.6142 404.418 71.0704 404.244 71.0704C404.07 71.0704 403.927 71.6142 403.927 72.2789ZM406.912 71.6094C406.628 72.0686 406.916 73.1321 407.553 73.9731C408.797 75.6174 409.025 74.8513 408.038 72.3321C407.686 71.4338 407.209 71.1276 406.912 71.6094ZM55.8936 73.4873C55.8936 73.9304 55.5093 74.293 55.0405 74.293C54.5716 74.293 54.4113 73.9304 54.6852 73.4873C54.9591 73.0442 55.3426 72.6817 55.5383 72.6817C55.7341 72.6817 55.8936 73.0442 55.8936 73.4873ZM129.981 73.9264C129.454 74.5612 128.702 74.8819 128.31 74.6394C127.916 74.3969 127.595 74.7417 127.595 75.4064C127.595 76.7091 126.149 77.9497 125.448 77.2488C124.685 76.4851 127.854 73.0048 129.42 72.8871C130.651 72.7945 130.758 72.9919 129.981 73.9264ZM342.699 74.3663C343.69 75.0672 343.71 75.3 342.81 75.6601C341.882 76.0307 341.882 76.2192 342.81 76.8686C343.737 77.5187 343.737 77.7064 342.81 78.077C341.955 78.4186 341.933 78.6531 342.711 79.134C343.936 79.8913 343.047 81.5437 341.417 81.5437C340.763 81.5437 338.379 82.4814 336.116 83.6278C332.824 85.2955 331.868 85.4969 331.322 84.6349C330.812 83.8301 330.636 83.8123 330.627 84.5648C330.62 85.1191 330.071 85.5718 329.406 85.5718C328.742 85.5718 328.198 86.1398 328.198 86.8343C328.198 87.7583 328.684 87.9605 330.01 87.5875C331.429 87.1879 331.56 87.2613 330.615 87.9235C329.95 88.3891 328.737 88.775 327.919 88.7823C327.101 88.7887 325.289 89.3897 323.891 90.118C317.999 93.1867 316.919 93.4807 316.919 92.0169C316.919 91.5738 317.484 91.2113 318.175 91.2113C318.865 91.2113 319.231 90.8882 318.988 90.4935C318.514 89.7281 321.902 87.1831 323.393 87.1831C323.884 87.1831 324.829 86.6393 325.493 85.9747C326.158 85.31 327.44 84.7662 328.341 84.7662C329.326 84.7662 329.826 84.3618 329.593 83.7551C329.38 83.1984 329.678 82.301 330.258 81.7604C331.095 80.9789 331.384 81.0619 331.674 82.168C331.932 83.1485 332.066 83.0019 332.132 81.6694C332.19 80.5076 332.845 79.6198 333.837 79.3604C334.723 79.1284 335.448 78.558 335.448 78.0931C335.448 77.6275 335.673 77.4712 335.947 77.7459C336.56 78.359 338.171 76.8001 338.893 74.8972C339.496 73.3037 340.916 73.1055 342.699 74.3663ZM386.203 75.0986C386.203 75.5417 386.769 75.9042 387.459 75.9042C388.15 75.9042 388.491 75.5417 388.217 75.0986C387.944 74.6555 387.379 74.293 386.961 74.293C386.544 74.293 386.203 74.6555 386.203 75.0986ZM402.799 75.582C402.513 76.3288 402.459 77.1216 402.681 77.3431C402.903 77.5647 403.318 77.1344 403.605 76.3876C403.892 75.6408 403.945 74.8481 403.723 74.6265C403.502 74.405 403.086 74.8352 402.799 75.582ZM502.783 75.4346C502.518 76.2539 497.695 79.0035 496.374 79.0881C494.719 79.1945 496.074 77.3254 498.186 76.589C499.516 76.1258 500.603 75.4797 500.603 75.1542C500.603 74.8279 501.158 74.5613 501.834 74.5613C502.511 74.5613 502.938 74.9544 502.783 75.4346ZM521.193 77.1788C519.427 78.4702 518.327 78.6466 518.327 77.6388C518.327 76.8259 521.777 75.1373 522.354 75.6674C522.575 75.8704 522.053 76.5504 521.193 77.1788ZM592.446 77.5155C592.446 77.9586 592.083 78.3211 591.64 78.3211C591.197 78.3211 590.834 77.9586 590.834 77.5155C590.834 77.0724 591.197 76.7099 591.64 76.7099C592.083 76.7099 592.446 77.0724 592.446 77.5155ZM584.645 78.6329C584.952 79.4321 584.575 79.644 583.322 79.3789C581.58 79.0092 581.579 79.0156 583.181 80.3836C584.612 81.6065 584.627 81.7032 583.316 81.2496C582.505 80.9685 581.495 80.738 581.072 80.738C580.616 80.738 580.655 80.0823 581.167 79.1268C582.162 77.2674 584.02 77.0031 584.645 78.6329ZM588.417 78.3211C588.417 78.7642 588.055 79.1268 587.612 79.1268C587.169 79.1268 586.806 78.7642 586.806 78.3211C586.806 77.878 587.169 77.5155 587.612 77.5155C588.055 77.5155 588.417 77.878 588.417 78.3211ZM339.074 79.9324C338.8 80.3755 338.938 80.738 339.382 80.738C339.825 80.738 340.411 80.3755 340.685 79.9324C340.959 79.4893 340.82 79.1268 340.377 79.1268C339.934 79.1268 339.348 79.4893 339.074 79.9324ZM371.702 79.9324C371.702 80.3755 371.542 80.738 371.347 80.738C371.151 80.738 370.767 80.3755 370.493 79.9324C370.22 79.4893 370.38 79.1268 370.849 79.1268C371.318 79.1268 371.702 79.4893 371.702 79.9324ZM396.677 79.9324C395.951 80.4013 395.851 80.7179 396.428 80.726C396.955 80.7324 397.611 80.3755 397.885 79.9324C398.503 78.9318 398.224 78.9318 396.677 79.9324ZM531.217 79.8382C531.217 80.68 527.105 81.5864 526.101 80.966C525.719 80.73 525.898 80.2249 526.499 79.8438C527.935 78.9342 531.217 78.9302 531.217 79.8382ZM598.891 80.3352C598.891 80.9999 598.528 81.5437 598.085 81.5437C597.642 81.5437 597.279 80.9999 597.279 80.3352C597.279 79.6706 597.642 79.1268 598.085 79.1268C598.528 79.1268 598.891 79.6706 598.891 80.3352ZM536.051 80.6752C536.051 81.5654 530.502 83.5143 529.843 82.8552C529.59 82.6015 530.249 82.0738 531.307 81.6822C532.365 81.2899 533.775 80.7646 534.44 80.5149C535.105 80.2643 535.739 80.0307 535.85 79.9961C535.961 79.9614 536.051 80.2667 536.051 80.6752ZM595.91 81.2174C595.629 82.4855 590.834 83.1018 590.834 81.87C590.834 81.24 591.339 80.9821 592.043 81.252C592.707 81.5074 593.251 81.3471 593.251 80.8951C593.251 80.444 593.886 80.1685 594.661 80.2821C595.436 80.3956 595.998 80.817 595.91 81.2174ZM334.248 81.5566C334.527 82.0069 335.092 82.1672 335.504 81.9119C336.621 81.2214 336.414 80.738 334.998 80.738C334.308 80.738 333.97 81.1062 334.248 81.5566ZM391.843 82.0134C390.719 82.6369 390.363 83.1251 391.037 83.1171C391.702 83.1098 392.95 82.5717 393.809 81.9207C395.749 80.4545 394.551 80.5109 391.843 82.0134ZM228.326 84.5471C227.27 85.7362 227.299 85.8192 228.593 85.3221C229.39 85.0168 230.647 84.7606 231.386 84.7541C232.548 84.7428 232.567 84.6357 231.522 83.9606C229.937 82.9366 229.72 82.9761 228.326 84.5471ZM193.439 84.4472C193.171 84.7146 192.476 84.7437 191.895 84.5108C191.252 84.2538 191.443 84.0629 192.382 84.0242C193.231 83.9896 193.706 84.1797 193.439 84.4472ZM323.745 85.0442C322.871 85.6395 321.43 86.3235 320.544 86.5636C319.658 86.8037 318.208 87.2274 317.322 87.5054C316.435 87.7833 317.523 87.1219 319.739 86.0351C324.173 83.8607 326.226 83.3523 323.745 85.0442ZM52.6711 85.0707C52.6711 85.2375 52.0363 85.8723 51.2612 86.4806C49.9835 87.482 49.9553 87.4538 50.9567 86.1761C52.0097 84.8339 52.6711 84.4077 52.6711 85.0707ZM128.803 86.3775C129.077 86.8206 129.461 87.1831 129.657 87.1831C129.852 87.1831 130.012 86.8206 130.012 86.3775C130.012 85.9344 129.628 85.5718 129.159 85.5718C128.69 85.5718 128.53 85.9344 128.803 86.3775ZM592.446 86.3775C591.72 86.8464 591.62 87.163 592.197 87.171C592.724 87.1775 593.38 86.8206 593.654 86.3775C594.272 85.3769 593.993 85.3769 592.446 86.3775ZM267.38 87.1702C267.103 87.6206 266.099 87.9887 265.15 87.9887C263.967 87.9887 263.686 88.2498 264.254 88.8177C264.823 89.3865 265.779 89.2866 267.295 88.4995C268.512 87.8687 269.142 87.1267 268.697 86.852C268.251 86.5765 267.659 86.7199 267.38 87.1702ZM337.668 87.9162C335.305 88.7082 333.868 89.6588 333.905 90.4056C333.945 91.2306 334.093 91.2951 334.37 90.6071C334.594 90.0536 335.431 89.6 336.229 89.6C338.21 89.6 343.074 87.4973 342.196 87.0196C341.808 86.8077 339.771 87.2113 337.668 87.9162ZM361.229 87.9887C357.555 90.0004 356.098 90.0399 359.215 88.0435C360.544 87.192 362.175 86.4838 362.84 86.4701C363.505 86.4564 362.78 87.1396 361.229 87.9887ZM433.736 87.1831C433.071 87.6125 431.983 87.9444 431.319 87.9195C430.522 87.8905 430.659 87.6399 431.722 87.1831C433.936 86.2317 435.208 86.2317 433.736 87.1831ZM516.366 87.2669C516.776 87.934 512.971 89.6 511.039 89.6C510.173 89.6 509.465 89.9215 509.465 90.3138C509.465 90.7061 508.196 91.6302 506.646 92.3657C503.187 94.0068 503.01 94.7408 506.243 94.031C509.259 93.3688 509.342 94.0117 506.444 95.5843L504.229 96.7863L506.991 96.8185C510.77 96.8628 515.102 95.1831 515.117 93.6677C515.127 92.6711 515.267 92.6373 515.814 93.5009C516.316 94.2928 516.605 94.0342 516.891 92.5349C517.106 91.4095 516.901 90.1076 516.435 89.6411C515.843 89.049 515.879 88.7944 516.555 88.7944C517.087 88.7944 517.522 89.0796 517.522 89.4284C517.522 89.7773 518.247 90.1172 519.133 90.1841C521.116 90.3331 521.277 89.0409 519.334 88.5736C518.172 88.2933 518.277 88.079 519.939 87.3491C521.841 86.5128 521.789 86.4725 519.01 86.6216C517.392 86.7094 516.202 86.9994 516.366 87.2669ZM529.455 86.9277C530.036 87.1606 530.732 87.1315 530.999 86.8641C531.267 86.5966 530.791 86.4065 529.942 86.4411C529.004 86.4798 528.813 86.6707 529.455 86.9277ZM46.8093 88.7783C46.9567 90.7416 45.5944 91.7075 44.3835 90.4967C43.7253 89.8385 43.7568 89.6 44.5012 89.6C45.0587 89.6 45.3108 89.2681 45.0603 88.8629C44.8097 88.4576 45.0603 87.9428 45.617 87.7181C46.1737 87.4941 46.6425 87.2814 46.6587 87.2468C46.6756 87.2121 46.7432 87.9009 46.8093 88.7783ZM61.4235 89.9513C59.8114 91.4505 58.2993 93.1625 58.0624 93.7563C57.7965 94.4241 57.608 94.2308 57.5685 93.2495C57.5339 92.377 58.6827 90.6554 60.1232 89.4252C63.8485 86.2405 64.9385 86.682 61.4235 89.9513ZM67.5753 87.9887C67.3014 88.4318 66.6456 88.7887 66.1179 88.7823C65.5411 88.7742 65.641 88.4576 66.3669 87.9887C67.9145 86.9881 68.1932 86.9881 67.5753 87.9887ZM41.4083 89.9835C40.585 90.9752 40.589 91.2113 41.4277 91.2113C41.9989 91.2113 42.2768 91.4014 42.0448 91.6334C41.8128 91.8646 41.0112 91.8203 40.2643 91.5335C38.9922 91.0453 38.993 90.9156 40.278 89.4953C41.8821 87.7237 42.9141 88.1692 41.4083 89.9835ZM374.706 88.4753C374.439 88.7428 373.743 88.7718 373.163 88.539C372.52 88.282 372.711 88.0911 373.649 88.0524C374.498 88.0177 374.974 88.2079 374.706 88.4753ZM559.646 89.7257C559.705 90.52 560.247 91.3579 560.849 91.5891C561.525 91.8485 561.75 92.6163 561.438 93.5984C560.97 95.0727 561.127 95.1234 563.598 94.2977C567.883 92.8677 567.882 92.2763 563.592 90.2228C559.9 88.4568 559.547 88.4117 559.646 89.7257ZM355.589 90.4056C355.589 90.8487 355.205 91.2113 354.736 91.2113C354.267 91.2113 354.107 90.8487 354.381 90.4056C354.655 89.9625 355.038 89.6 355.234 89.6C355.43 89.6 355.589 89.9625 355.589 90.4056ZM546.524 90.4056C546.524 90.8487 546.162 91.2113 545.719 91.2113C545.276 91.2113 544.913 90.8487 544.913 90.4056C544.913 89.9625 545.276 89.6 545.719 89.6C546.162 89.6 546.524 89.9625 546.524 90.4056ZM556.192 91.2113C556.192 91.6544 555.83 92.0169 555.386 92.0169C554.943 92.0169 554.581 91.6544 554.581 91.2113C554.581 90.7682 554.943 90.4056 555.386 90.4056C555.83 90.4056 556.192 90.7682 556.192 91.2113ZM143.435 93.8296C143.212 94.3839 143.029 93.9303 143.029 92.8225C143.029 91.7148 143.212 91.262 143.435 91.8155C143.659 92.3698 143.659 93.2761 143.435 93.8296ZM216.215 92.0169C216.215 92.46 215.83 92.8225 215.362 92.8225C214.893 92.8225 214.732 92.46 215.006 92.0169C215.28 91.5738 215.664 91.2113 215.859 91.2113C216.055 91.2113 216.215 91.5738 216.215 92.0169ZM564.651 92.0169C564.377 92.46 563.791 92.8225 563.348 92.8225C562.905 92.8225 562.766 92.46 563.04 92.0169C563.314 91.5738 563.9 91.2113 564.343 91.2113C564.787 91.2113 564.925 91.5738 564.651 92.0169ZM49.0707 93.5879C48.7742 94.0672 48.2337 94.2759 47.8695 94.0511C47.5054 93.8264 46.616 94.545 45.8925 95.6495C44.4859 97.7965 43.0035 98.3057 43.0035 96.6421C43.0035 95.6608 45.3511 93.7571 47.8373 92.7226C49.3205 92.1047 49.7853 92.431 49.0707 93.5879ZM252.468 92.8225C252.468 93.2656 252.309 93.6282 252.113 93.6282C251.917 93.6282 251.534 93.2656 251.26 92.8225C250.986 92.3794 251.146 92.0169 251.615 92.0169C252.084 92.0169 252.468 92.3794 252.468 92.8225ZM352.367 93.1778C352.367 93.8167 352.004 94.5627 351.561 94.8366C351.118 95.1105 350.755 95.1613 350.755 94.9502C350.755 94.7383 350.536 93.9923 350.266 93.2914C349.946 92.4552 350.222 92.0169 351.072 92.0169C351.784 92.0169 352.367 92.539 352.367 93.1778ZM32.5053 95.6423C32.5053 96.0854 32.154 95.9041 31.7246 95.2394C31.2952 94.5748 30.944 93.6685 30.944 93.2254C30.944 92.7823 31.2952 92.9635 31.7246 93.6282C32.154 94.2928 32.5053 95.1992 32.5053 95.6423ZM56.6993 93.5388C56.6993 93.9327 55.9549 95.1113 55.0453 96.1571L53.3913 98.0592L53.9456 96.0451C54.2501 94.9373 54.9035 93.7643 55.3982 93.4389C56.5647 92.6703 56.6993 92.6808 56.6993 93.5388ZM312.212 95.2394C312.212 96.3472 312.395 96.8008 312.618 96.2465C312.842 95.693 312.842 94.7867 312.618 94.2324C312.395 93.6789 312.212 94.1317 312.212 95.2394ZM250.051 95.2394C250.051 95.6825 249.689 96.0451 249.246 96.0451C248.803 96.0451 248.44 95.6825 248.44 95.2394C248.44 94.7963 248.803 94.4338 249.246 94.4338C249.689 94.4338 250.051 94.7963 250.051 95.2394ZM323.767 95.2394C323.493 95.6825 323.653 96.0451 324.122 96.0451C324.591 96.0451 324.975 95.6825 324.975 95.2394C324.975 94.7963 324.816 94.4338 324.62 94.4338C324.424 94.4338 324.041 94.7963 323.767 95.2394ZM449.043 95.2394C449.043 95.6825 448.658 96.0451 448.19 96.0451C447.721 96.0451 447.56 95.6825 447.834 95.2394C448.108 94.7963 448.492 94.4338 448.688 94.4338C448.883 94.4338 449.043 94.7963 449.043 95.2394ZM51.1283 96.4052C51.5335 96.1546 51.8655 96.4761 51.8655 97.1198C51.8655 97.7635 51.3668 98.4805 50.7577 98.7149C49.9859 99.0106 49.6548 98.487 49.6661 96.9885C49.6749 95.805 49.8417 95.2918 50.0367 95.8485C50.2324 96.4052 50.7231 96.6557 51.1283 96.4052ZM142.63 97.8578C142.407 98.412 142.224 97.9585 142.224 96.8507C142.224 95.743 142.407 95.2902 142.63 95.8437C142.854 96.3979 142.854 97.3043 142.63 97.8578ZM444.958 97.9053C444.903 99.6068 444.877 99.6124 444.209 98.0592C443.256 95.8421 443.256 95.0533 444.209 95.6423C444.652 95.9162 444.989 96.9345 444.958 97.9053ZM623.865 96.0451C623.139 96.514 623.039 96.8306 623.616 96.8386C624.144 96.8451 624.8 96.4882 625.074 96.0451C625.692 95.0445 625.413 95.0445 623.865 96.0451ZM202.68 97.0118C201.418 98.2735 201.449 99.2676 202.749 99.2676C203.319 99.2676 203.785 98.5425 203.785 97.6563C203.785 96.7701 203.754 96.0451 203.716 96.0451C203.678 96.0451 203.212 96.4801 202.68 97.0118ZM502.652 96.7951C502.397 97.2076 502.557 97.7724 503.007 98.0511C503.458 98.3291 503.826 97.9915 503.826 97.3011C503.826 95.8856 503.343 95.6777 502.652 96.7951ZM629.913 96.8418C629.631 97.2978 629.954 97.4332 630.671 97.1585C632.067 96.6227 632.322 96.0451 631.164 96.0451C630.746 96.0451 630.184 96.4036 629.913 96.8418ZM41.9956 98.2573C42.2132 98.9107 41.6049 99.2007 40.2498 99.0879C38.1512 98.9147 37.6976 98.3967 38.7344 97.3599C39.5626 96.5325 41.6089 97.0956 41.9956 98.2573ZM453.071 97.206C453.071 97.4018 452.708 97.7852 452.265 98.0592C451.822 98.3331 451.46 98.1728 451.46 97.7039C451.46 97.235 451.822 96.8507 452.265 96.8507C452.708 96.8507 453.071 97.0102 453.071 97.206ZM499.782 98.0777C498.931 99.1033 498.981 99.2217 500.087 98.7971C500.814 98.5176 501.409 97.9657 501.409 97.5701C501.409 96.5341 500.943 96.6799 499.782 98.0777ZM308.427 99.3216C307.688 100.516 308.382 101.013 309.951 100.411C310.677 100.132 311.07 99.5802 310.824 99.183C310.222 98.2074 309.074 98.2735 308.427 99.3216ZM312.085 99.2201C312.085 99.6374 312.387 100.165 312.756 100.393C313.126 100.621 313.428 100.28 313.428 99.635C313.428 98.9897 313.126 98.462 312.756 98.462C312.387 98.462 312.085 98.8028 312.085 99.2201ZM40.937 100.963C40.3747 101.873 38.1697 101.913 38.1697 101.013C38.1697 99.8791 39.0768 99.357 40.2579 99.8106C40.8766 100.047 41.1828 100.566 40.937 100.963ZM48.9185 100.335C49.2101 100.043 49.4486 100.228 49.4486 100.744C49.4486 101.262 48.7839 101.685 47.9718 101.685C47.1589 101.685 46.4943 101.146 46.4943 100.489C46.4943 99.664 46.7884 99.5367 47.4417 100.079C47.9622 100.512 48.6268 100.627 48.9185 100.335ZM142.096 104.101C142.096 104.545 141.937 104.907 141.741 104.907C141.545 104.907 141.162 104.545 140.888 104.101C140.614 103.658 140.774 103.296 141.243 103.296C141.712 103.296 142.096 103.658 142.096 104.101ZM44.7759 105.874C44.0242 106.625 43.594 106.625 42.8424 105.874C42.0907 105.122 42.305 104.907 43.8091 104.907C45.3132 104.907 45.5275 105.122 44.7759 105.874ZM78.4514 105.224C78.4514 105.398 77.889 105.756 77.201 106.02C76.484 106.295 76.161 106.16 76.4429 105.704C76.9158 104.938 78.4514 104.571 78.4514 105.224Z" fill="#1363FE"/>
</svg>
