<svg width="692" height="138" viewBox="0 0 692 138" fill="none" xmlns="http://www.w3.org/2000/svg">
<g clip-path="url(#clip0_3_5)">
<path fill-rule="evenodd" clip-rule="evenodd" d="M610.143 31.3125C599.048 29.4168 576.713 28.9386 512.964 29.2354C467.057 29.4487 447.173 30.1177 401.409 32.9876C333.28 37.2606 297.364 41.5872 221.108 54.7083C205.692 57.3611 181.539 61.1667 167.434 63.1661C107.888 71.6071 39.6021 88.0209 37.4717 94.4059C37.183 95.2726 37.3003 96.0975 37.7328 96.2381C38.1654 96.3787 43.8628 94.7479 50.3943 92.6153C61.4918 88.9904 70.9768 86.5168 70.7176 87.3142C70.6554 87.5057 67.4913 88.602 63.6848 89.7511C59.8796 90.8997 50.9555 93.8162 43.855 96.2311C36.7541 98.6469 29.1199 101.054 26.8884 101.582C22.7783 102.553 20.8543 104.731 23.3803 105.552C25.9098 106.374 36.9453 104.141 52.3681 99.6843C69.3419 94.7812 131.035 80.1533 153.363 75.7385C176.435 71.1763 200.333 67.4794 215.882 66.0675C302.098 58.2386 337.7 56.7356 397.183 58.4127C479.775 60.7412 527.291 64.5765 589.303 73.9209C615.941 77.9345 640.321 82.4234 646.645 84.4789C649.97 85.5597 651.554 85.5563 653.506 84.4624C657.083 82.4579 661.001 77.5926 662.33 73.5053C663.285 70.5657 663.116 69.6781 661.244 67.7825C656.76 63.2424 654.314 62.8766 581.403 55.8422C521.772 50.0896 482.376 47.8041 428.346 46.9628C418.572 46.81 410.249 46.556 409.85 46.3974C408.602 45.8989 446.669 44.7178 466.015 44.6537C489.773 44.575 544.223 46.4546 568.763 48.2007C586.875 49.4887 588.3 49.7324 596.673 52.9572C605.128 56.2139 605.605 56.2929 608.071 54.8309C611.759 52.6448 617.532 45.4438 618.852 41.3826C619.871 38.2452 619.692 37.6198 616.998 34.9217C615.357 33.279 613.675 31.8855 613.261 31.8259C612.846 31.7659 611.443 31.5356 610.143 31.3125Z" fill="#1363FE"/>
</g>
<defs>
<clipPath id="clip0_3_5">
<rect width="692" height="138" fill="white"/>
</clipPath>
</defs>
</svg>
